{
.appVersion = "1349";
copyright = "Copyright 2019 Google LLC. All Rights Reserved.";
customParameters = (
{
name = description;
value = "Designed by Monotype design team.";
},
{
name = license;
value = "This Font Software is licensed under the SIL Open Font License, Version 1.1. This Font Software is distributed on an \"AS IS\" BASIS, WITHOUT WARRANTIES OR CONDITIONS OF ANY KIND, either express or implied. See the SIL Open Font License for the specific language, permissions and limitations governing your use of this Font Software.";
},
{
name = licenseURL;
value = "http://scripts.sil.org/OFL";
},
{
name = vendorID;
value = GOOG;
},
{
name = unicodeRanges;
value = (
0,
1,
114
);
},
{
name = trademark;
value = "Noto is a trademark of Google Inc.";
},
{
name = "Has WWS Names";
value = 1;
},
{
name = versionString;
value = "Version 2.002";
},
{
name = fsType;
value = (
);
},
{
name = codePageRanges;
value = (
1252
);
}
);
date = "2019-10-23 14:23:32 +0000";
designer = "Monotype Design Team, Lewis McGuffie";
designerURL = "http://www.monotype.com/studio";
disablesAutomaticAlignment = 1;
disablesNiceNames = 1;
familyName = "Noto Sans Ol Chiki";
fontMaster = (
{
alignmentZones = (
"{1069, 15}",
"{714, 15}",
"{536, 15}",
"{0, -15}",
"{-293, -15}"
);
ascender = 1069;
capHeight = 714;
customParameters = (
{
name = typoAscender;
value = 1069;
},
{
name = typoDescender;
value = -293;
},
{
name = typoLineGap;
value = 0;
},
{
name = winAscent;
value = 1069;
},
{
name = winDescent;
value = 293;
},
{
name = hheaAscender;
value = 1069;
},
{
name = hheaDescender;
value = -293;
},
{
name = hheaLineGap;
value = 0;
},
{
name = underlinePosition;
value = -100;
},
{
name = underlineThickness;
value = 50;
},
{
name = panose;
value = (
2,
11,
5,
2,
4,
5,
4,
2,
2,
4
);
}
);
descender = -293;
horizontalStems = (
75,
68
);
iconName = SemiLight;
id = UUID0;
userData = {
GSOffsetHorizontal = 50;
GSOffsetVertical = 20;
};
verticalStems = (
88,
68
);
visible = 1;
weightValue = 90;

glyphs = (
{
glyphname = .notdef;
lastChange = "2019-10-15 17:35:40 +0000";
layers = (
{
hints = (
{
origin = "{0, 0}";
target = "{1, 3}";
type = Stem;
},
{
origin = "{1, 1}";
target = "{0, 2}";
type = Stem;
},
{
horizontal = 1;
origin = "{0, 0}";
target = "{1, 3}";
type = Stem;
},
{
horizontal = 1;
origin = "{1, 0}";
target = "{0, 3}";
type = Stem;
}
);
layerId = UUID0;
paths = (
{
closed = 1;
nodes = (
"505 0 LINE",
"505 714 LINE",
"94 714 LINE",
"94 0 LINE"
);
},
{
closed = 1;
nodes = (
"145 663 LINE",
"454 663 LINE",
"454 51 LINE",
"145 51 LINE"
);
}
);
width = 600;
},
{
layerId = "9C387D97-1150-45A6-AF8D-2AAB62D95D5D";
paths = (
{
closed = 1;
nodes = (
"505 0 LINE",
"505 714 LINE",
"94 714 LINE",
"94 0 LINE"
);
},
{
closed = 1;
nodes = (
"145 663 LINE",
"454 663 LINE",
"454 51 LINE",
"145 51 LINE"
);
}
);
width = 600;
},
{
associatedMasterId = UUID0;
layerId = "7E95A2A8-5900-43B9-A104-91CF3A0C6271";
width = 600;
},
{
hints = (
{
origin = "{0, 0}";
target = "{1, 3}";
type = Stem;
},
{
origin = "{1, 1}";
target = "{0, 2}";
type = Stem;
},
{
horizontal = 1;
origin = "{0, 0}";
target = "{1, 3}";
type = Stem;
},
{
horizontal = 1;
origin = "{1, 0}";
target = "{0, 3}";
type = Stem;
}
);
layerId = "6E1A9BF3-6A06-44F2-8E17-ACCB47751CD5";
paths = (
{
closed = 1;
nodes = (
"505 0 LINE",
"505 714 LINE",
"94 714 LINE",
"94 0 LINE"
);
},
{
closed = 1;
nodes = (
"145 663 LINE",
"454 663 LINE",
"454 51 LINE",
"145 51 LINE"
);
}
);
width = 600;
},
{
hints = (
{
origin = "{0, 0}";
target = "{1, 3}";
type = Stem;
},
{
origin = "{1, 1}";
target = "{0, 2}";
type = Stem;
},
{
horizontal = 1;
origin = "{0, 0}";
target = "{1, 3}";
type = Stem;
},
{
horizontal = 1;
origin = "{1, 0}";
target = "{0, 3}";
type = Stem;
}
);
layerId = "38768EF3-7794-49DB-B097-CE6891208EBB";
paths = (
{
closed = 1;
nodes = (
"505 0 LINE",
"505 714 LINE",
"94 714 LINE",
"94 0 LINE"
);
},
{
closed = 1;
nodes = (
"145 663 LINE",
"454 663 LINE",
"454 51 LINE",
"145 51 LINE"
);
}
);
width = 600;
}
);
},
{
glyphname = uni20B9;
lastChange = "2020-10-21 22:44:01 +0000";
layers = (
{
layerId = UUID0;
paths = (
{
closed = 1;
nodes = (
"489 726 LINE",
"77 726 LINE",
"77 642 LINE",
"142 642 LINE SMOOTH",
"190 642 OFFCURVE",
"216 635 OFFCURVE",
"236 616 CURVE SMOOTH",
"259 596 OFFCURVE",
"272 561 OFFCURVE",
"272 507 CURVE SMOOTH",
"272 460 OFFCURVE",
"263 425 OFFCURVE",
"242 402 CURVE SMOOTH",
"222 378 OFFCURVE",
"193 366 OFFCURVE",
"130 366 CURVE SMOOTH",
"87 366 LINE",
"77 282 LINE",
"283 -11 LINE",
"382 -11 LINE",
"153 317 LINE",
"145 279 LINE",
"292 293 OFFCURVE",
"351 373 OFFCURVE",
"351 509 CURVE SMOOTH",
"351 566 OFFCURVE",
"336 616 OFFCURVE",
"305 642 CURVE",
"489 642 LINE"
);
},
{
closed = 1;
nodes = (
"77 466 LINE",
"489 466 LINE",
"489 551 LINE",
"77 551 LINE"
);
}
);
width = 551;
},
{
layerId = "6E1A9BF3-6A06-44F2-8E17-ACCB47751CD5";
paths = (
{
closed = 1;
nodes = (
"498 726 LINE",
"68 726 LINE",
"68 631 LINE",
"135 631 LINE SMOOTH",
"186 631 OFFCURVE",
"213 631 OFFCURVE",
"234 612 CURVE SMOOTH",
"258 592 OFFCURVE",
"272 562 OFFCURVE",
"272 507 CURVE SMOOTH",
"272 460 OFFCURVE",
"262 425 OFFCURVE",
"240 402 CURVE SMOOTH",
"219 378 OFFCURVE",
"189 366 OFFCURVE",
"123 366 CURVE SMOOTH",
"78 366 LINE",
"68 282 LINE",
"283 -11 LINE",
"402 -11 LINE",
"163 317 LINE",
"148 266 LINE",
"302 280 OFFCURVE",
"360 373 OFFCURVE",
"360 509 CURVE SMOOTH",
"360 566 OFFCURVE",
"359 582 OFFCURVE",
"328 631 CURVE",
"498 631 LINE"
);
},
{
closed = 1;
nodes = (
"68 451 LINE",
"498 451 LINE",
"498 551 LINE",
"68 551 LINE"
);
}
);
width = 551;
},
{
layerId = "38768EF3-7794-49DB-B097-CE6891208EBB";
paths = (
{
closed = 1;
nodes = (
"514 727 LINE",
"63 727 LINE",
"63 607 LINE",
"120 607 LINE SMOOTH",
"171 607 OFFCURVE",
"194 602 OFFCURVE",
"212 583 CURVE SMOOTH",
"231 565 OFFCURVE",
"243 533 OFFCURVE",
"243 483 CURVE SMOOTH",
"243 440 OFFCURVE",
"234 408 OFFCURVE",
"217 386 CURVE SMOOTH",
"198 364 OFFCURVE",
"173 353 OFFCURVE",
"107 353 CURVE SMOOTH",
"81 353 LINE",
"63 239 LINE",
"241 -13 LINE",
"401 -13 LINE",
"192 269 LINE",
"196 245 LINE",
"309 270 OFFCURVE",
"373 352 OFFCURVE",
"373 472 CURVE SMOOTH",
"373 528 OFFCURVE",
"353 582 OFFCURVE",
"327 607 CURVE",
"514 607 LINE"
);
},
{
closed = 1;
nodes = (
"63 425 LINE",
"514 425 LINE",
"514 545 LINE",
"63 545 LINE"
);
}
);
width = 570;
},
{
layerId = "9C387D97-1150-45A6-AF8D-2AAB62D95D5D";
paths = (
{
closed = 1;
nodes = (
"535 728 LINE",
"61 728 LINE",
"61 586 LINE",
"120 586 LINE SMOOTH",
"164 586 OFFCURVE",
"183 583 OFFCURVE",
"200 566 CURVE SMOOTH",
"216 548 OFFCURVE",
"225 518 OFFCURVE",
"225 470 CURVE SMOOTH",
"225 429 OFFCURVE",
"220 397 OFFCURVE",
"206 376 CURVE SMOOTH",
"188 354 OFFCURVE",
"169 345 OFFCURVE",
"107 345 CURVE SMOOTH",
"81 345 LINE",
"59 214 LINE",
"214 -15 LINE",
"385 -15 LINE",
"214 231 LINE",
"197 216 LINE",
"293 248 OFFCURVE",
"368 340 OFFCURVE",
"368 453 CURVE SMOOTH",
"368 506 OFFCURVE",
"351 562 OFFCURVE",
"327 586 CURVE",
"535 587 LINE"
);
},
{
closed = 1;
nodes = (
"61 398 LINE",
"535 398 LINE",
"535 537 LINE",
"61 537 LINE"
);
}
);
width = 585;
},
{
associatedMasterId = UUID0;
layerId = "5CC745D4-D12D-435B-A472-7D28876E43BC";
name = "Light Condensed";
paths = (
{
closed = 1;
nodes = (
"367 622 LINE",
"53 622 LINE",
"53 596 LINE",
"84 596 LINE SMOOTH",
"148 596 OFFCURVE",
"178 581 OFFCURVE",
"197 555 CURVE SMOOTH",
"214 532 OFFCURVE",
"220 501 OFFCURVE",
"220 463 CURVE SMOOTH",
"220 416 OFFCURVE",
"213 383 OFFCURVE",
"194 359 CURVE SMOOTH",
"174 335 OFFCURVE",
"146 323 OFFCURVE",
"86 323 CURVE SMOOTH",
"69 323 LINE",
"63 296 LINE",
"240 0 LINE",
"271 0 LINE",
"83 314 LINE",
"89 298 LINE",
"203 299 OFFCURVE",
"246 353 OFFCURVE",
"246 462 CURVE SMOOTH",
"246 539 OFFCURVE",
"217 580 OFFCURVE",
"181 596 CURVE",
"367 596 LINE"
);
},
{
closed = 1;
nodes = (
"53 447 LINE",
"367 447 LINE",
"367 473 LINE",
"53 473 LINE"
);
}
);
width = 411;
},
{
associatedMasterId = UUID0;
layerId = "AA2163BC-B14D-4D16-A884-99BB623F1DBF";
name = Condensed;
paths = (
{
closed = 1;
nodes = (
"371 622 LINE",
"49 622 LINE",
"49 554 LINE",
"90 554 LINE SMOOTH",
"132 554 OFFCURVE",
"152 545 OFFCURVE",
"167 529 CURVE SMOOTH",
"185 510 OFFCURVE",
"191 480 OFFCURVE",
"191 439 CURVE SMOOTH",
"191 396 OFFCURVE",
"186 365 OFFCURVE",
"170 345 CURVE SMOOTH",
"155 327 OFFCURVE",
"134 318 OFFCURVE",
"87 318 CURVE SMOOTH",
"63 318 LINE",
"50 255 LINE",
"195 0 LINE",
"288 0 LINE",
"123 279 LINE",
"125 252 LINE",
"218 267 OFFCURVE",
"266 320 OFFCURVE",
"266 438 CURVE SMOOTH",
"266 503 OFFCURVE",
"247 538 OFFCURVE",
"226 554 CURVE",
"371 554 LINE"
);
},
{
closed = 1;
nodes = (
"49 406 LINE",
"371 406 LINE",
"371 474 LINE",
"49 474 LINE"
);
}
);
width = 411;
},
{
associatedMasterId = UUID0;
layerId = "9A082071-1CDF-4F9E-B116-82A287035C9D";
name = "SemiBold Condensed";
paths = (
{
closed = 1;
nodes = (
"415 622 LINE",
"53 622 LINE",
"53 525 LINE",
"94 525 LINE SMOOTH",
"133 525 OFFCURVE",
"149 518 OFFCURVE",
"162 506 CURVE SMOOTH",
"180 488 OFFCURVE",
"185 460 OFFCURVE",
"185 423 CURVE SMOOTH",
"185 382 OFFCURVE",
"182 351 OFFCURVE",
"166 332 CURVE SMOOTH",
"153 316 OFFCURVE",
"133 308 OFFCURVE",
"93 308 CURVE SMOOTH",
"72 308 LINE",
"52 223 LINE",
"180 0 LINE",
"331 0 LINE",
"178 239 LINE",
"172 221 LINE",
"246 239 OFFCURVE",
"306 280 OFFCURVE",
"306 399 CURVE SMOOTH",
"306 477 OFFCURVE",
"286 507 OFFCURVE",
"265 525 CURVE",
"415 525 LINE"
);
},
{
closed = 1;
nodes = (
"53 369 LINE",
"416 369 LINE",
"416 466 LINE",
"53 466 LINE"
);
}
);
width = 460;
},
{
associatedMasterId = UUID0;
layerId = "6EDA54BC-5413-4E6E-9D6B-A24A39A704A7";
name = "Bold Condensed";
paths = (
{
closed = 1;
nodes = (
"444 622 LINE",
"56 622 LINE",
"56 507 LINE",
"98 507 LINE SMOOTH",
"135 507 OFFCURVE",
"148 501 OFFCURVE",
"160 491 CURVE SMOOTH",
"178 475 OFFCURVE",
"182 447 OFFCURVE",
"182 413 CURVE SMOOTH",
"182 373 OFFCURVE",
"180 343 OFFCURVE",
"165 324 CURVE SMOOTH",
"153 309 OFFCURVE",
"133 302 OFFCURVE",
"98 302 CURVE SMOOTH",
"78 302 LINE",
"54 203 LINE",
"172 0 LINE",
"358 0 LINE",
"213 214 LINE",
"203 202 LINE",
"264 222 OFFCURVE",
"332 255 OFFCURVE",
"332 375 CURVE SMOOTH",
"332 460 OFFCURVE",
"312 487 OFFCURVE",
"290 507 CURVE",
"444 507 LINE"
);
},
{
closed = 1;
nodes = (
"56 346 LINE",
"444 346 LINE",
"444 461 LINE",
"56 461 LINE"
);
}
);
width = 490;
}
);
unicode = 20B9;
},
{
color = 10;
glyphname = uni1C50;
lastChange = "2019-10-15 17:35:40 +0000";
layers = (
{
layerId = UUID0;
paths = (
{
closed = 1;
nodes = (
"456 -10 OFFCURVE",
"523 127 OFFCURVE",
"523 358 CURVE SMOOTH",
"523 590 OFFCURVE",
"445 725 OFFCURVE",
"285 725 CURVE SMOOTH",
"114 725 OFFCURVE",
"49 589 OFFCURVE",
"49 358 CURVE SMOOTH",
"49 127 OFFCURVE",
"124 -10 OFFCURVE",
"285 -10 CURVE SMOOTH"
);
},
{
closed = 1;
nodes = (
"177 65 OFFCURVE",
"137 162 OFFCURVE",
"137 358 CURVE SMOOTH",
"137 553 OFFCURVE",
"177 650 OFFCURVE",
"285 650 CURVE SMOOTH",
"392 650 OFFCURVE",
"434 553 OFFCURVE",
"434 358 CURVE SMOOTH",
"434 161 OFFCURVE",
"392 65 OFFCURVE",
"285 65 CURVE SMOOTH"
);
}
);
width = 572;
},
{
layerId = "9C387D97-1150-45A6-AF8D-2AAB62D95D5D";
paths = (
{
closed = 1;
nodes = (
"470 -10 OFFCURVE",
"549 113 OFFCURVE",
"549 357 CURVE SMOOTH",
"549 604 OFFCURVE",
"467 725 OFFCURVE",
"291 725 CURVE SMOOTH",
"114 725 OFFCURVE",
"36 602 OFFCURVE",
"36 357 CURVE SMOOTH",
"36 113 OFFCURVE",
"117 -10 OFFCURVE",
"291 -10 CURVE SMOOTH"
);
},
{
closed = 1;
nodes = (
"215 112 OFFCURVE",
"186 190 OFFCURVE",
"186 357 CURVE SMOOTH",
"186 534 OFFCURVE",
"216 603 OFFCURVE",
"292 603 CURVE SMOOTH",
"367 603 OFFCURVE",
"399 534 OFFCURVE",
"399 357 CURVE SMOOTH",
"399 189 OFFCURVE",
"366 112 OFFCURVE",
"291 112 CURVE SMOOTH"
);
}
);
width = 585;
},
{
associatedMasterId = UUID0;
layerId = "7E95A2A8-5900-43B9-A104-91CF3A0C6271";
width = 600;
},
{
layerId = "6E1A9BF3-6A06-44F2-8E17-ACCB47751CD5";
paths = (
{
closed = 1;
nodes = (
"460 -10 OFFCURVE",
"531 123 OFFCURVE",
"531 358 CURVE SMOOTH",
"531 594 OFFCURVE",
"451 725 OFFCURVE",
"287 725 CURVE SMOOTH",
"114 725 OFFCURVE",
"45 593 OFFCURVE",
"45 358 CURVE SMOOTH",
"45 123 OFFCURVE",
"122 -10 OFFCURVE",
"287 -10 CURVE SMOOTH"
);
},
{
closed = 1;
nodes = (
"188 79 OFFCURVE",
"151 170 OFFCURVE",
"151 358 CURVE SMOOTH",
"151 547 OFFCURVE",
"189 636 OFFCURVE",
"287 636 CURVE SMOOTH",
"385 636 OFFCURVE",
"424 547 OFFCURVE",
"424 358 CURVE SMOOTH",
"424 169 OFFCURVE",
"384 79 OFFCURVE",
"287 79 CURVE SMOOTH"
);
}
);
width = 575.83607;
},
{
layerId = "38768EF3-7794-49DB-B097-CE6891208EBB";
paths = (
{
closed = 1;
nodes = (
"465 -10 OFFCURVE",
"539 118 OFFCURVE",
"539 358 CURVE SMOOTH",
"539 599 OFFCURVE",
"458 725 OFFCURVE",
"289 725 CURVE SMOOTH",
"114 725 OFFCURVE",
"41 597 OFFCURVE",
"41 358 CURVE SMOOTH",
"41 118 OFFCURVE",
"120 -10 OFFCURVE",
"289 -10 CURVE SMOOTH"
);
},
{
closed = 1;
nodes = (
"201 94 OFFCURVE",
"167 179 OFFCURVE",
"167 358 CURVE SMOOTH",
"167 541 OFFCURVE",
"202 621 OFFCURVE",
"289 621 CURVE SMOOTH",
"377 621 OFFCURVE",
"412 541 OFFCURVE",
"412 358 CURVE SMOOTH",
"412 178 OFFCURVE",
"376 94 OFFCURVE",
"289 94 CURVE SMOOTH"
);
}
);
width = 580.09836;
}
);
unicode = 1C50;
},
{
color = 10;
glyphname = uni1C51;
lastChange = "2019-10-15 17:35:40 +0000";
layers = (
{
layerId = UUID0;
paths = (
{
closed = 1;
nodes = (
"461 81 LINE",
"229 175 OFFCURVE",
"136 385 OFFCURVE",
"145 589 CURVE",
"112 587 LINE",
"461 337 LINE",
"461 714 LINE",
"375 714 LINE",
"375 448 LINE",
"407 465 LINE",
"47 724 LINE",
"47 342 OFFCURVE",
"125 109 OFFCURVE",
"461 -10 CURVE"
);
}
);
width = 515;
},
{
layerId = "9C387D97-1150-45A6-AF8D-2AAB62D95D5D";
paths = (
{
closed = 1;
nodes = (
"498 127 LINE",
"292 194 OFFCURVE",
"207 333 OFFCURVE",
"194 520 CURVE",
"153 520 LINE",
"498 308 LINE",
"498 714 LINE",
"359 714 LINE",
"359 495 LINE",
"397 516 LINE",
"35 729 LINE",
"35 299 OFFCURVE",
"175 74 OFFCURVE",
"498 -15 CURVE"
);
}
);
width = 539;
},
{
associatedMasterId = UUID0;
layerId = "7E95A2A8-5900-43B9-A104-91CF3A0C6271";
width = 600;
},
{
layerId = "6E1A9BF3-6A06-44F2-8E17-ACCB47751CD5";
paths = (
{
closed = 1;
nodes = (
"472 95 LINE",
"248 181 OFFCURVE",
"157 370 OFFCURVE",
"159 569 CURVE",
"124 567 LINE",
"472 328 LINE",
"472 714 LINE",
"370 714 LINE",
"370 462 LINE",
"404 480 LINE",
"43 725 LINE",
"43 329 OFFCURVE",
"140 99 OFFCURVE",
"472 -11 CURVE"
);
}
);
width = 522.08197;
},
{
layerId = "38768EF3-7794-49DB-B097-CE6891208EBB";
paths = (
{
closed = 1;
nodes = (
"484 110 LINE",
"268 187 OFFCURVE",
"180 353 OFFCURVE",
"175 546 CURVE",
"137 545 LINE",
"484 319 LINE",
"484 714 LINE",
"365 714 LINE",
"365 477 LINE",
"401 497 LINE",
"39 727 LINE",
"39 315 OFFCURVE",
"156 87 OFFCURVE",
"484 -13 CURVE"
);
}
);
width = 529.95082;
}
);
unicode = 1C51;
},
{
color = 10;
glyphname = uni1C52;
lastChange = "2019-10-15 17:35:40 +0000";
layers = (
{
layerId = UUID0;
paths = (
{
closed = 1;
nodes = (
"45 55 OFFCURVE",
"161 -9 OFFCURVE",
"280 -9 CURVE SMOOTH",
"437 -9 OFFCURVE",
"491 121 OFFCURVE",
"500 145 CURVE",
"419 162 LINE",
"409 133 OFFCURVE",
"369 66 OFFCURVE",
"280 66 CURVE SMOOTH",
"200 66 OFFCURVE",
"133 109 OFFCURVE",
"133 195 CURVE SMOOTH",
"133 228 OFFCURVE",
"192 287 OFFCURVE",
"212 307 CURVE SMOOTH",
"361 457 LINE",
"373 470 OFFCURVE",
"432 530 OFFCURVE",
"432 608 CURVE SMOOTH",
"432 674 OFFCURVE",
"389 725 OFFCURVE",
"288 725 CURVE SMOOTH",
"186 725 OFFCURVE",
"145 662 OFFCURVE",
"145 607 CURVE SMOOTH",
"145 537 OFFCURVE",
"223 491 OFFCURVE",
"284 462 CURVE",
"289 502 LINE",
"144 356 LINE SMOOTH",
"95 307 OFFCURVE",
"45 253 OFFCURVE",
"45 195 CURVE SMOOTH"
);
},
{
closed = 1;
nodes = (
"228 635 OFFCURVE",
"249 657 OFFCURVE",
"288 657 CURVE SMOOTH",
"334 657 OFFCURVE",
"349 627 OFFCURVE",
"349 603 CURVE SMOOTH",
"349 543 OFFCURVE",
"304 516 OFFCURVE",
"304 510 CURVE",
"317 508 LINE",
"315 519 OFFCURVE",
"228 565 OFFCURVE",
"228 606 CURVE SMOOTH"
);
}
);
width = 513;
},
{
layerId = "9C387D97-1150-45A6-AF8D-2AAB62D95D5D";
paths = (
{
closed = 1;
nodes = (
"32 85 OFFCURVE",
"120 -15 OFFCURVE",
"271 -15 CURVE SMOOTH",
"381 -15 OFFCURVE",
"466 46 OFFCURVE",
"513 161 CURVE",
"379 187 LINE",
"355 138 OFFCURVE",
"324 111 OFFCURVE",
"275 111 CURVE SMOOTH",
"226 111 OFFCURVE",
"190 143 OFFCURVE",
"190 193 CURVE SMOOTH",
"190 220 OFFCURVE",
"203 253 OFFCURVE",
"244 287 CURVE SMOOTH",
"424 436 LINE SMOOTH",
"465 470 OFFCURVE",
"492 507 OFFCURVE",
"492 571 CURVE SMOOTH",
"492 661 OFFCURVE",
"415 728 OFFCURVE",
"302 728 CURVE SMOOTH",
"183 728 OFFCURVE",
"96 665 OFFCURVE",
"96 569 CURVE SMOOTH",
"96 514 OFFCURVE",
"137 454 OFFCURVE",
"235 420 CURVE",
"231 445 LINE",
"122 359 LINE SMOOTH",
"66 315 OFFCURVE",
"32 259 OFFCURVE",
"32 193 CURVE SMOOTH"
);
},
{
closed = 1;
nodes = (
"249 594 OFFCURVE",
"271 606 OFFCURVE",
"298 606 CURVE SMOOTH",
"323 606 OFFCURVE",
"341 597 OFFCURVE",
"341 571 CURVE SMOOTH",
"341 544 OFFCURVE",
"318 526 OFFCURVE",
"290 498 CURVE",
"326 498 LINE",
"278 531 OFFCURVE",
"249 545 OFFCURVE",
"249 571 CURVE SMOOTH"
);
}
);
width = 518;
},
{
associatedMasterId = UUID0;
layerId = "7E95A2A8-5900-43B9-A104-91CF3A0C6271";
width = 600;
},
{
layerId = "6E1A9BF3-6A06-44F2-8E17-ACCB47751CD5";
paths = (
{
closed = 1;
nodes = (
"41 64 OFFCURVE",
"149 -11 OFFCURVE",
"277 -11 CURVE SMOOTH",
"420 -11 OFFCURVE",
"484 99 OFFCURVE",
"504 150 CURVE",
"407 169 LINE",
"393 134 OFFCURVE",
"356 79 OFFCURVE",
"279 79 CURVE SMOOTH",
"208 79 OFFCURVE",
"150 119 OFFCURVE",
"150 194 CURVE SMOOTH",
"150 226 OFFCURVE",
"195 277 OFFCURVE",
"221 301 CURVE SMOOTH",
"380 451 LINE",
"400 470 OFFCURVE",
"450 523 OFFCURVE",
"450 597 CURVE SMOOTH",
"450 670 OFFCURVE",
"397 726 OFFCURVE",
"292 726 CURVE SMOOTH",
"185 726 OFFCURVE",
"131 663 OFFCURVE",
"131 596 CURVE SMOOTH",
"131 530 OFFCURVE",
"198 480 OFFCURVE",
"270 450 CURVE",
"272 485 LINE",
"138 357 LINE SMOOTH",
"86 309 OFFCURVE",
"41 255 OFFCURVE",
"41 194 CURVE SMOOTH"
);
},
{
closed = 1;
nodes = (
"234 623 OFFCURVE",
"255 642 OFFCURVE",
"291 642 CURVE SMOOTH",
"331 642 OFFCURVE",
"347 618 OFFCURVE",
"347 594 CURVE SMOOTH",
"347 543 OFFCURVE",
"308 519 OFFCURVE",
"300 506 CURVE",
"320 505 LINE",
"304 523 OFFCURVE",
"234 559 OFFCURVE",
"234 596 CURVE SMOOTH"
);
}
);
width = 514.47541;
},
{
layerId = "38768EF3-7794-49DB-B097-CE6891208EBB";
paths = (
{
closed = 1;
nodes = (
"37 74 OFFCURVE",
"136 -13 OFFCURVE",
"274 -13 CURVE SMOOTH",
"402 -13 OFFCURVE",
"476 74 OFFCURVE",
"508 155 CURVE",
"394 177 LINE",
"375 136 OFFCURVE",
"341 94 OFFCURVE",
"277 94 CURVE SMOOTH",
"216 94 OFFCURVE",
"169 130 OFFCURVE",
"169 194 CURVE SMOOTH",
"169 223 OFFCURVE",
"199 266 OFFCURVE",
"232 294 CURVE SMOOTH",
"400 444 LINE",
"430 470 OFFCURVE",
"470 516 OFFCURVE",
"470 585 CURVE SMOOTH",
"470 666 OFFCURVE",
"405 727 OFFCURVE",
"297 727 CURVE SMOOTH",
"184 727 OFFCURVE",
"115 664 OFFCURVE",
"115 583 CURVE SMOOTH",
"115 523 OFFCURVE",
"170 468 OFFCURVE",
"254 436 CURVE",
"253 466 LINE",
"131 358 LINE SMOOTH",
"77 312 OFFCURVE",
"37 257 OFFCURVE",
"37 194 CURVE SMOOTH"
);
},
{
closed = 1;
nodes = (
"241 610 OFFCURVE",
"262 625 OFFCURVE",
"294 625 CURVE SMOOTH",
"327 625 OFFCURVE",
"344 608 OFFCURVE",
"344 583 CURVE SMOOTH",
"344 543 OFFCURVE",
"313 522 OFFCURVE",
"295 502 CURVE",
"323 502 LINE",
"292 527 OFFCURVE",
"241 552 OFFCURVE",
"241 584 CURVE SMOOTH"
);
}
);
width = 516.11475;
}
);
unicode = 1C52;
},
{
color = 10;
glyphname = uni1C53;
lastChange = "2020-10-21 22:38:16 +0000";
layers = (
{
layerId = UUID0;
paths = (
{
closed = 1;
nodes = (
"467 81 LINE",
"304 113 OFFCURVE",
"144 180 OFFCURVE",
"144 288 CURVE SMOOTH",
"144 347 OFFCURVE",
"213 421 OFFCURVE",
"249 460 CURVE",
"198 461 LINE",
"467 337 LINE",
"467 714 LINE",
"381 714 LINE",
"381 456 LINE",
"251 515 LINE",
"279 491 LINE",
"303 515 OFFCURVE",
"345 547 OFFCURVE",
"345 608 CURVE SMOOTH",
"345 673 OFFCURVE",
"288 725 OFFCURVE",
"214 725 CURVE SMOOTH",
"129 725 OFFCURVE",
"80 664 OFFCURVE",
"80 602 CURVE SMOOTH",
"80 517 OFFCURVE",
"163 487 OFFCURVE",
"175 471 CURVE",
"175 489 LINE",
"155 463 OFFCURVE",
"56 378 OFFCURVE",
"56 289 CURVE SMOOTH",
"56 125 OFFCURVE",
"262 45 OFFCURVE",
"467 -10 CURVE"
);
},
{
closed = 1;
nodes = (
"211 534 OFFCURVE",
"157 565 OFFCURVE",
"157 603 CURVE SMOOTH",
"157 628 OFFCURVE",
"177 657 OFFCURVE",
"212 657 CURVE SMOOTH",
"245 657 OFFCURVE",
"267 634 OFFCURVE",
"267 608 CURVE SMOOTH",
"267 571 OFFCURVE",
"226 536 OFFCURVE",
"214 527 CURVE",
"226 527 LINE"
);
}
);
width = 521;
},
{
layerId = "9C387D97-1150-45A6-AF8D-2AAB62D95D5D";
paths = (
{
closed = 1;
nodes = (
"516 126 LINE",
"245 179 OFFCURVE",
"187 226 OFFCURVE",
"187 291 CURVE SMOOTH",
"187 334 OFFCURVE",
"206 372 OFFCURVE",
"249 395 CURVE",
"194 402 LINE",
"518 246 LINE",
"518 714 LINE",
"399 714 LINE",
"399 429 LINE",
"289 481 LINE",
"309 450 LINE",
"345 480 OFFCURVE",
"379 512 OFFCURVE",
"379 576 CURVE SMOOTH",
"379 671 OFFCURVE",
"305 728 OFFCURVE",
"216 728 CURVE SMOOTH",
"120 728 OFFCURVE",
"49 666 OFFCURVE",
"49 576 CURVE SMOOTH",
"49 525 OFFCURVE",
"70 462 OFFCURVE",
"167 417 CURVE",
"150 453 LINE",
"98 415 OFFCURVE",
"43 369 OFFCURVE",
"43 291 CURVE SMOOTH",
"43 110 OFFCURVE",
"242 39 OFFCURVE",
"516 -15 CURVE"
);
},
{
closed = 1;
nodes = (
"217 519 OFFCURVE",
"176 543 OFFCURVE",
"176 574 CURVE SMOOTH",
"176 594 OFFCURVE",
"190 613 OFFCURVE",
"216 613 CURVE SMOOTH",
"243 613 OFFCURVE",
"256 594 OFFCURVE",
"256 573 CURVE SMOOTH",
"256 543 OFFCURVE",
"229 522 OFFCURVE",
"206 502 CURVE",
"258 498 LINE"
);
}
);
width = 559;
},
{
associatedMasterId = "9C387D97-1150-45A6-AF8D-2AAB62D95D5D";
layerId = "5A628EEE-A960-4343-B496-CAFE4C24BB12";
name = "Oct 4 19, 12:51";
paths = (
{
closed = 1;
nodes = (
"396 435 LINE",
"522 374 LINE",
"522 714 LINE",
"396 714 LINE"
);
},
{
closed = 1;
nodes = (
"232 527 OFFCURVE",
"215 511 CURVE SMOOTH",
"138 440 LINE SMOOTH",
"94 400 OFFCURVE",
"47 344 OFFCURVE",
"47 267 CURVE SMOOTH",
"47 100 OFFCURVE",
"246 29 OFFCURVE",
"520 -15 CURVE",
"520 126 LINE",
"249 169 OFFCURVE",
"191 226 OFFCURVE",
"191 288 CURVE SMOOTH",
"191 328 OFFCURVE",
"215 363 OFFCURVE",
"250 393 CURVE SMOOTH",
"315 450 LINE SMOOTH",
"350 480 OFFCURVE",
"383 513 OFFCURVE",
"383 576 CURVE SMOOTH",
"383 671 OFFCURVE",
"309 728 OFFCURVE",
"220 728 CURVE SMOOTH",
"124 728 OFFCURVE",
"53 666 OFFCURVE",
"53 576 CURVE SMOOTH",
"53 526 OFFCURVE",
"74 458 OFFCURVE",
"170 414 CURVE SMOOTH",
"522 254 LINE",
"522 381 LINE",
"225 518 LINE SMOOTH",
"197 531 OFFCURVE",
"180 552 OFFCURVE",
"180 574 CURVE SMOOTH",
"180 594 OFFCURVE",
"194 613 OFFCURVE",
"220 613 CURVE SMOOTH",
"247 613 OFFCURVE",
"260 594 OFFCURVE",
"260 573 CURVE SMOOTH",
"260 542 OFFCURVE"
);
}
);
width = 600;
},
{
associatedMasterId = UUID0;
layerId = "6E6A61DE-60A8-4EF7-BE9F-4C5F948E8A83";
name = "Oct 4 19, 12:51";
paths = (
{
closed = 1;
nodes = (
"467 81 LINE",
"304 113 OFFCURVE",
"144 180 OFFCURVE",
"144 288 CURVE SMOOTH",
"144 340 OFFCURVE",
"197 403 OFFCURVE",
"234 444 CURVE",
"467 337 LINE",
"467 714 LINE",
"381 714 LINE",
"381 456 LINE",
"287 499 LINE",
"303 515 OFFCURVE",
"345 548 OFFCURVE",
"345 608 CURVE SMOOTH",
"345 673 OFFCURVE",
"288 725 OFFCURVE",
"214 725 CURVE SMOOTH",
"129 725 OFFCURVE",
"80 664 OFFCURVE",
"80 602 CURVE SMOOTH",
"80 529 OFFCURVE",
"141 497 OFFCURVE",
"166 479 CURVE",
"135 445 OFFCURVE",
"56 369 OFFCURVE",
"56 289 CURVE SMOOTH",
"56 125 OFFCURVE",
"262 45 OFFCURVE",
"467 -10 CURVE"
);
},
{
closed = 1;
nodes = (
"208 536 OFFCURVE",
"157 567 OFFCURVE",
"157 603 CURVE SMOOTH",
"157 628 OFFCURVE",
"177 657 OFFCURVE",
"212 657 CURVE SMOOTH",
"245 657 OFFCURVE",
"267 634 OFFCURVE",
"267 608 CURVE SMOOTH",
"267 573 OFFCURVE",
"229 540 OFFCURVE",
"219 530 CURVE"
);
}
);
visible = 1;
width = 521;
},
{
associatedMasterId = UUID0;
layerId = "7E95A2A8-5900-43B9-A104-91CF3A0C6271";
width = 600;
},
{
layerId = "6E1A9BF3-6A06-44F2-8E17-ACCB47751CD5";
paths = (
{
closed = 1;
nodes = (
"481 94 LINE",
"287 132 OFFCURVE",
"157 194 OFFCURVE",
"157 289 CURVE SMOOTH",
"157 343 OFFCURVE",
"211 407 OFFCURVE",
"249 441 CURVE",
"197 444 LINE",
"482 310 LINE",
"482 714 LINE",
"386 714 LINE",
"386 448 LINE",
"262 505 LINE",
"288 479 LINE",
"315 505 OFFCURVE",
"355 537 OFFCURVE",
"355 599 CURVE SMOOTH",
"355 672 OFFCURVE",
"293 726 OFFCURVE",
"215 726 CURVE SMOOTH",
"126 726 OFFCURVE",
"71 665 OFFCURVE",
"71 594 CURVE SMOOTH",
"71 519 OFFCURVE",
"136 480 OFFCURVE",
"173 455 CURVE",
"168 478 LINE",
"138 449 OFFCURVE",
"52 375 OFFCURVE",
"52 290 CURVE SMOOTH",
"52 121 OFFCURVE",
"256 43 OFFCURVE",
"481 -11 CURVE"
);
},
{
closed = 1;
nodes = (
"213 530 OFFCURVE",
"163 559 OFFCURVE",
"163 594 CURVE SMOOTH",
"163 618 OFFCURVE",
"181 644 OFFCURVE",
"213 644 CURVE SMOOTH",
"244 644 OFFCURVE",
"264 622 OFFCURVE",
"264 598 CURVE SMOOTH",
"264 563 OFFCURVE",
"227 532 OFFCURVE",
"212 520 CURVE",
"235 518 LINE"
);
}
);
width = 532.21311;
},
{
layerId = "38768EF3-7794-49DB-B097-CE6891208EBB";
paths = (
{
closed = 1;
nodes = (
"497 109 LINE",
"267 154 OFFCURVE",
"171 209 OFFCURVE",
"171 290 CURVE SMOOTH",
"171 339 OFFCURVE",
"209 391 OFFCURVE",
"249 420 CURVE",
"196 424 LINE",
"499 280 LINE",
"499 714 LINE",
"392 714 LINE",
"392 439 LINE",
"275 494 LINE",
"298 466 LINE",
"329 493 OFFCURVE",
"366 525 OFFCURVE",
"366 588 CURVE SMOOTH",
"366 672 OFFCURVE",
"299 727 OFFCURVE",
"215 727 CURVE SMOOTH",
"123 727 OFFCURVE",
"61 665 OFFCURVE",
"61 586 CURVE SMOOTH",
"61 522 OFFCURVE",
"105 472 OFFCURVE",
"170 437 CURVE",
"160 466 LINE",
"119 433 OFFCURVE",
"48 372 OFFCURVE",
"48 290 CURVE SMOOTH",
"48 116 OFFCURVE",
"249 41 OFFCURVE",
"497 -13 CURVE"
);
},
{
closed = 1;
nodes = (
"215 525 OFFCURVE",
"169 552 OFFCURVE",
"169 585 CURVE SMOOTH",
"169 607 OFFCURVE",
"185 630 OFFCURVE",
"214 630 CURVE SMOOTH",
"244 630 OFFCURVE",
"260 609 OFFCURVE",
"260 586 CURVE SMOOTH",
"260 554 OFFCURVE",
"228 527 OFFCURVE",
"209 512 CURVE",
"246 509 LINE"
);
}
);
width = 544.67213;
}
);
unicode = 1C53;
},
{
color = 10;
glyphname = uni1C54;
lastChange = "2019-10-15 17:35:40 +0000";
layers = (
{
layerId = "9C387D97-1150-45A6-AF8D-2AAB62D95D5D";
paths = (
{
closed = 1;
nodes = (
"200 275 OFFCURVE",
"271 178 OFFCURVE",
"359 178 CURVE SMOOTH",
"378 178 OFFCURVE",
"401 184 OFFCURVE",
"425 201 CURVE",
"353 212 LINE",
"362 202 OFFCURVE",
"370 190 OFFCURVE",
"370 177 CURVE SMOOTH",
"370 134 OFFCURVE",
"339 111 OFFCURVE",
"298 111 CURVE SMOOTH",
"234 111 OFFCURVE",
"177 173 OFFCURVE",
"177 319 CURVE SMOOTH",
"177 471 OFFCURVE",
"304 574 OFFCURVE",
"496 591 CURVE",
"490 729 LINE",
"166 701 OFFCURVE",
"36 468 OFFCURVE",
"36 309 CURVE SMOOTH",
"36 121 OFFCURVE",
"128 -15 OFFCURVE",
"298 -15 CURVE SMOOTH",
"403 -15 OFFCURVE",
"502 55 OFFCURVE",
"502 175 CURVE SMOOTH",
"502 238 OFFCURVE",
"476 292 OFFCURVE",
"440 324 CURVE",
"430 296 OFFCURVE",
"410 280 OFFCURVE",
"381 280 CURVE SMOOTH",
"322 280 OFFCURVE",
"272 344 OFFCURVE",
"208 453 CURVE",
"153 365 LINE"
);
}
);
width = 525;
},
{
associatedMasterId = UUID0;
layerId = "DD197135-FC36-4307-9913-B03881483A63";
name = "Oct 8 19, 15:48";
paths = (
{
closed = 1;
nodes = (
"393 -10 OFFCURVE",
"448 72 OFFCURVE",
"448 145 CURVE SMOOTH",
"448 222 OFFCURVE",
"416 270 OFFCURVE",
"405 289 CURVE",
"397 280 OFFCURVE",
"374 250 OFFCURVE",
"331 250 CURVE SMOOTH",
"261 250 OFFCURVE",
"182 359 OFFCURVE",
"156 430 CURVE",
"174 508 OFFCURVE",
"274 621 OFFCURVE",
"438 635 CURVE",
"438 725 LINE",
"260 708 OFFCURVE",
"49 571 OFFCURVE",
"49 297 CURVE SMOOTH",
"49 135 OFFCURVE",
"121 -10 OFFCURVE",
"272 -10 CURVE SMOOTH"
);
},
{
closed = 1;
nodes = (
"167 60 OFFCURVE",
"132 195 OFFCURVE",
"132 292 CURVE SMOOTH",
"132 309 OFFCURVE",
"133 325 OFFCURVE",
"135 339 CURVE",
"160 285 OFFCURVE",
"243 182 OFFCURVE",
"310 182 CURVE SMOOTH",
"342 182 OFFCURVE",
"359 191 OFFCURVE",
"362 193 CURVE",
"364 188 OFFCURVE",
"371 171 OFFCURVE",
"371 149 CURVE SMOOTH",
"371 119 OFFCURVE",
"353 60 OFFCURVE",
"273 60 CURVE SMOOTH"
);
}
);
visible = 1;
width = 483;
},
{
layerId = UUID0;
paths = (
{
closed = 1;
nodes = (
"165 273 OFFCURVE",
"248 182 OFFCURVE",
"310 182 CURVE SMOOTH",
"349 182 OFFCURVE",
"364 194 OFFCURVE",
"373 200 CURVE",
"354 208 LINE",
"359 200 OFFCURVE",
"371 179 OFFCURVE",
"371 149 CURVE SMOOTH",
"371 119 OFFCURVE",
"353 60 OFFCURVE",
"273 60 CURVE SMOOTH",
"167 60 OFFCURVE",
"132 195 OFFCURVE",
"132 292 CURVE SMOOTH",
"132 543 OFFCURVE",
"312 623 OFFCURVE",
"438 635 CURVE",
"438 725 LINE",
"260 708 OFFCURVE",
"49 571 OFFCURVE",
"49 297 CURVE SMOOTH",
"49 135 OFFCURVE",
"121 -10 OFFCURVE",
"272 -10 CURVE SMOOTH",
"393 -10 OFFCURVE",
"448 72 OFFCURVE",
"448 145 CURVE SMOOTH",
"448 222 OFFCURVE",
"416 270 OFFCURVE",
"405 289 CURVE",
"397 280 OFFCURVE",
"374 250 OFFCURVE",
"331 250 CURVE SMOOTH",
"268 250 OFFCURVE",
"186 344 OFFCURVE",
"151 443 CURVE",
"126 355 LINE"
);
}
);
visible = 1;
width = 483;
},
{
associatedMasterId = UUID0;
layerId = "7E95A2A8-5900-43B9-A104-91CF3A0C6271";
width = 600;
},
{
layerId = "6E1A9BF3-6A06-44F2-8E17-ACCB47751CD5";
paths = (
{
closed = 1;
nodes = (
"175 274 OFFCURVE",
"255 181 OFFCURVE",
"324 181 CURVE SMOOTH",
"358 181 OFFCURVE",
"375 191 OFFCURVE",
"388 200 CURVE",
"354 209 LINE",
"360 201 OFFCURVE",
"371 182 OFFCURVE",
"371 157 CURVE SMOOTH",
"371 123 OFFCURVE",
"349 75 OFFCURVE",
"280 75 CURVE SMOOTH",
"187 75 OFFCURVE",
"145 189 OFFCURVE",
"145 300 CURVE SMOOTH",
"145 522 OFFCURVE",
"310 609 OFFCURVE",
"455 622 CURVE",
"453 726 LINE",
"232 706 OFFCURVE",
"45 541 OFFCURVE",
"45 301 CURVE SMOOTH",
"45 131 OFFCURVE",
"123 -11 OFFCURVE",
"280 -11 CURVE SMOOTH",
"396 -11 OFFCURVE",
"464 67 OFFCURVE",
"464 154 CURVE SMOOTH",
"464 227 OFFCURVE",
"434 276 OFFCURVE",
"415 299 CURVE",
"407 285 OFFCURVE",
"385 259 OFFCURVE",
"346 259 CURVE SMOOTH",
"284 259 OFFCURVE",
"211 344 OFFCURVE",
"168 446 CURVE",
"134 358 LINE"
);
}
);
width = 495.39344;
},
{
layerId = "38768EF3-7794-49DB-B097-CE6891208EBB";
paths = (
{
closed = 1;
nodes = (
"187 274 OFFCURVE",
"262 180 OFFCURVE",
"340 180 CURVE SMOOTH",
"367 180 OFFCURVE",
"387 188 OFFCURVE",
"405 200 CURVE",
"354 210 LINE",
"361 201 OFFCURVE",
"371 186 OFFCURVE",
"371 166 CURVE SMOOTH",
"371 128 OFFCURVE",
"344 92 OFFCURVE",
"288 92 CURVE SMOOTH",
"209 92 OFFCURVE",
"160 182 OFFCURVE",
"160 309 CURVE SMOOTH",
"160 498 OFFCURVE",
"307 593 OFFCURVE",
"474 608 CURVE",
"470 727 LINE",
"201 704 OFFCURVE",
"41 507 OFFCURVE",
"41 305 CURVE SMOOTH",
"41 126 OFFCURVE",
"125 -13 OFFCURVE",
"288 -13 CURVE SMOOTH",
"399 -13 OFFCURVE",
"482 61 OFFCURVE",
"482 164 CURVE SMOOTH",
"482 232 OFFCURVE",
"454 283 OFFCURVE",
"427 311 CURVE",
"418 290 OFFCURVE",
"397 269 OFFCURVE",
"362 269 CURVE SMOOTH",
"302 269 OFFCURVE",
"239 344 OFFCURVE",
"187 449 CURVE",
"143 361 LINE"
);
}
);
width = 509.16393;
}
);
unicode = 1C54;
},
{
color = 10;
glyphname = uni1C55;
lastChange = "2019-10-15 17:35:40 +0000";
layers = (
{
layerId = UUID0;
paths = (
{
closed = 1;
nodes = (
"420 134 OFFCURVE",
"394 65 OFFCURVE",
"308 65 CURVE SMOOTH",
"208 65 OFFCURVE",
"138 153 OFFCURVE",
"138 316 CURVE SMOOTH",
"138 496 OFFCURVE",
"262 642 OFFCURVE",
"286 677 CURVE",
"214 725 LINE",
"176 678 OFFCURVE",
"49 501 OFFCURVE",
"49 316 CURVE SMOOTH",
"49 119 OFFCURVE",
"160 -10 OFFCURVE",
"308 -10 CURVE SMOOTH",
"439 -10 OFFCURVE",
"515 104 OFFCURVE",
"515 203 CURVE",
"437 203 OFFCURVE",
"328 222 OFFCURVE",
"328 320 CURVE SMOOTH",
"328 423 OFFCURVE",
"418 463 OFFCURVE",
"486 476 CURVE",
"463 555 LINE",
"440 551 OFFCURVE",
"243 511 OFFCURVE",
"243 320 CURVE SMOOTH",
"243 182 OFFCURVE",
"371 138 OFFCURVE",
"445 147 CURVE",
"431 160 LINE"
);
}
);
width = 551;
},
{
layerId = "9C387D97-1150-45A6-AF8D-2AAB62D95D5D";
paths = (
{
closed = 1;
nodes = (
"413 137 OFFCURVE",
"380 111 OFFCURVE",
"327 111 CURVE SMOOTH",
"257 111 OFFCURVE",
"191 185 OFFCURVE",
"191 339 CURVE SMOOTH",
"191 475 OFFCURVE",
"238 555 OFFCURVE",
"316 648 CURVE",
"197 729 LINE",
"102 622 OFFCURVE",
"36 488 OFFCURVE",
"36 339 CURVE SMOOTH",
"36 141 OFFCURVE",
"137 -15 OFFCURVE",
"327 -15 CURVE SMOOTH",
"449 -15 OFFCURVE",
"565 87 OFFCURVE",
"565 255 CURVE",
"461 255 OFFCURVE",
"393 286 OFFCURVE",
"393 348 CURVE SMOOTH",
"393 402 OFFCURVE",
"442 440 OFFCURVE",
"520 458 CURVE",
"482 579 LINE",
"321 547 OFFCURVE",
"248 448 OFFCURVE",
"248 348 CURVE SMOOTH",
"248 230 OFFCURVE",
"346 158 OFFCURVE",
"465 148 CURVE",
"434 191 LINE"
);
}
);
width = 588;
},
{
associatedMasterId = UUID0;
layerId = "7E95A2A8-5900-43B9-A104-91CF3A0C6271";
width = 600;
},
{
layerId = "6E1A9BF3-6A06-44F2-8E17-ACCB47751CD5";
paths = (
{
closed = 1;
nodes = (
"418 135 OFFCURVE",
"390 79 OFFCURVE",
"314 79 CURVE SMOOTH",
"222 79 OFFCURVE",
"154 162 OFFCURVE",
"154 323 CURVE SMOOTH",
"154 490 OFFCURVE",
"255 616 OFFCURVE",
"295 668 CURVE",
"209 726 LINE",
"154 661 OFFCURVE",
"45 497 OFFCURVE",
"45 323 CURVE SMOOTH",
"45 125 OFFCURVE",
"153 -11 OFFCURVE",
"314 -11 CURVE SMOOTH",
"442 -11 OFFCURVE",
"530 99 OFFCURVE",
"530 218 CURVE",
"444 218 OFFCURVE",
"347 241 OFFCURVE",
"347 328 CURVE SMOOTH",
"347 417 OFFCURVE",
"425 456 OFFCURVE",
"496 471 CURVE",
"469 562 LINE",
"405 550 OFFCURVE",
"244 492 OFFCURVE",
"244 328 CURVE SMOOTH",
"244 196 OFFCURVE",
"364 144 OFFCURVE",
"451 147 CURVE",
"432 169 LINE"
);
}
);
width = 561.91803;
},
{
layerId = "38768EF3-7794-49DB-B097-CE6891208EBB";
paths = (
{
closed = 1;
nodes = (
"416 136 OFFCURVE",
"385 94 OFFCURVE",
"320 94 CURVE SMOOTH",
"238 94 OFFCURVE",
"171 173 OFFCURVE",
"171 330 CURVE SMOOTH",
"171 483 OFFCURVE",
"247 588 OFFCURVE",
"305 659 CURVE",
"203 727 LINE",
"130 643 OFFCURVE",
"41 493 OFFCURVE",
"41 330 CURVE SMOOTH",
"41 132 OFFCURVE",
"146 -13 OFFCURVE",
"320 -13 CURVE SMOOTH",
"445 -13 OFFCURVE",
"546 93 OFFCURVE",
"546 235 CURVE",
"452 235 OFFCURVE",
"368 262 OFFCURVE",
"368 337 CURVE SMOOTH",
"368 410 OFFCURVE",
"433 449 OFFCURVE",
"507 465 CURVE",
"475 570 LINE",
"366 549 OFFCURVE",
"246 472 OFFCURVE",
"246 337 CURVE SMOOTH",
"246 212 OFFCURVE",
"356 151 OFFCURVE",
"458 147 CURVE",
"433 179 LINE"
);
}
);
width = 574.04918;
}
);
unicode = 1C55;
},
{
color = 10;
glyphname = uni1C56;
lastChange = "2019-10-15 17:35:40 +0000";
layers = (
{
layerId = UUID0;
paths = (
{
closed = 1;
nodes = (
"472 52 LINE",
"427 72 OFFCURVE",
"137 207 OFFCURVE",
"137 399 CURVE SMOOTH",
"137 496 OFFCURVE",
"182 554 OFFCURVE",
"190 561 CURVE",
"168 567 LINE",
"198 503 OFFCURVE",
"241 425 OFFCURVE",
"341 425 CURVE SMOOTH",
"435 425 OFFCURVE",
"495 501 OFFCURVE",
"495 573 CURVE SMOOTH",
"495 660 OFFCURVE",
"434 725 OFFCURVE",
"336 725 CURVE SMOOTH",
"258 725 OFFCURVE",
"183 667 OFFCURVE",
"177 664 CURVE",
"211 653 LINE",
"192 690 OFFCURVE",
"180 714 OFFCURVE",
"173 730 CURVE",
"104 692 LINE",
"159 592 LINE",
"152 638 LINE",
"112 607 OFFCURVE",
"48 507 OFFCURVE",
"48 402 CURVE SMOOTH",
"48 195 OFFCURVE",
"274 49 OFFCURVE",
"412 -10 CURVE"
);
},
{
closed = 1;
nodes = (
"276 496 OFFCURVE",
"238 600 OFFCURVE",
"224 623 CURVE",
"224 604 LINE",
"247 622 OFFCURVE",
"292 653 OFFCURVE",
"334 653 CURVE SMOOTH",
"380 653 OFFCURVE",
"415 616 OFFCURVE",
"415 576 CURVE SMOOTH",
"415 534 OFFCURVE",
"383 496 OFFCURVE",
"341 496 CURVE SMOOTH"
);
}
);
width = 506;
},
{
associatedMasterId = "9C387D97-1150-45A6-AF8D-2AAB62D95D5D";
layerId = "CBD2C52C-C1BD-4C64-9F26-00B82A69A04F";
name = "Large counter";
paths = (
{
closed = 1;
nodes = (
"511 87 LINE",
"296 207 OFFCURVE",
"213 305 OFFCURVE",
"213 426 CURVE SMOOTH",
"213 445 OFFCURVE",
"215 466 OFFCURVE",
"225 493 CURVE",
"199 478 LINE",
"239 401 OFFCURVE",
"296 367 OFFCURVE",
"367 367 CURVE SMOOTH",
"469 367 OFFCURVE",
"560 434 OFFCURVE",
"560 550 CURVE SMOOTH",
"560 669 OFFCURVE",
"466 729 OFFCURVE",
"361 729 CURVE SMOOTH",
"295 729 OFFCURVE",
"231 704 OFFCURVE",
"181 662 CURVE",
"219 655 LINE",
"206 677 OFFCURVE",
"191 704 OFFCURVE",
"180 729 CURVE",
"74 672 LINE",
"139 555 LINE",
"135 618 LINE",
"90 563 OFFCURVE",
"60 491 OFFCURVE",
"60 413 CURVE SMOOTH",
"60 228 OFFCURVE",
"220 75 OFFCURVE",
"416 -12 CURVE"
);
},
{
closed = 1;
nodes = (
"323 487 OFFCURVE",
"293 522 OFFCURVE",
"256 586 CURVE",
"247 538 LINE",
"277 582 OFFCURVE",
"322 609 OFFCURVE",
"361 609 CURVE SMOOTH",
"398 609 OFFCURVE",
"423 585 OFFCURVE",
"423 550 CURVE SMOOTH",
"423 512 OFFCURVE",
"394 487 OFFCURVE",
"364 487 CURVE SMOOTH"
);
}
);
width = 600;
},
{
associatedMasterId = "9C387D97-1150-45A6-AF8D-2AAB62D95D5D";
layerId = "FB013A30-71FF-40DB-B736-F3314D345DF4";
name = "Version 2";
paths = (
{
closed = 1;
nodes = (
"514 91 LINE",
"296 217 OFFCURVE",
"205 308 OFFCURVE",
"205 423 CURVE SMOOTH",
"205 459 OFFCURVE",
"215 490 OFFCURVE",
"235 515 CURVE",
"204 523 LINE",
"251 428 OFFCURVE",
"312 398 OFFCURVE",
"380 398 CURVE SMOOTH",
"480 398 OFFCURVE",
"563 457 OFFCURVE",
"563 561 CURVE SMOOTH",
"563 672 OFFCURVE",
"479 729 OFFCURVE",
"374 729 CURVE SMOOTH",
"317 729 OFFCURVE",
"261 711 OFFCURVE",
"213 678 CURVE",
"260 654 LINE",
"246 679 OFFCURVE",
"232 703 OFFCURVE",
"218 728 CURVE",
"116 670 LINE",
"168 582 LINE",
"170 646 LINE",
"105 590 OFFCURVE",
"61 511 OFFCURVE",
"61 418 CURVE SMOOTH",
"61 228 OFFCURVE",
"220 85 OFFCURVE",
"416 -12 CURVE"
);
},
{
closed = 1;
nodes = (
"342 515 OFFCURVE",
"314 551 OFFCURVE",
"273 633 CURVE",
"273 570 LINE",
"301 596 OFFCURVE",
"339 609 OFFCURVE",
"370 609 CURVE SMOOTH",
"406 609 OFFCURVE",
"426 592 OFFCURVE",
"426 562 CURVE SMOOTH",
"426 532 OFFCURVE",
"406 515 OFFCURVE",
"380 515 CURVE SMOOTH"
);
}
);
width = 600;
},
{
layerId = "9C387D97-1150-45A6-AF8D-2AAB62D95D5D";
paths = (
{
closed = 1;
nodes = (
"489 92 LINE",
"266 218 OFFCURVE",
"179 309 OFFCURVE",
"179 427 CURVE SMOOTH",
"179 459 OFFCURVE",
"186 488 OFFCURVE",
"199 511 CURVE",
"165 513 LINE",
"205 433 OFFCURVE",
"278 384 OFFCURVE",
"356 384 CURVE SMOOTH",
"451 384 OFFCURVE",
"538 454 OFFCURVE",
"538 555 CURVE SMOOTH",
"538 666 OFFCURVE",
"451 729 OFFCURVE",
"341 729 CURVE SMOOTH",
"275 729 OFFCURVE",
"217 708 OFFCURVE",
"167 672 CURVE",
"211 647 LINE",
"194 673 OFFCURVE",
"180 698 OFFCURVE",
"165 724 CURVE",
"69 668 LINE",
"123 570 LINE",
"124 635 LINE",
"70 579 OFFCURVE",
"36 500 OFFCURVE",
"36 418 CURVE SMOOTH",
"36 228 OFFCURVE",
"192 95 OFFCURVE",
"391 -11 CURVE"
);
},
{
closed = 1;
nodes = (
"315 501 OFFCURVE",
"275 530 OFFCURVE",
"221 627 CURVE",
"236 561 LINE",
"270 591 OFFCURVE",
"308 606 OFFCURVE",
"341 606 CURVE SMOOTH",
"376 606 OFFCURVE",
"401 584 OFFCURVE",
"401 554 CURVE SMOOTH",
"401 521 OFFCURVE",
"380 501 OFFCURVE",
"356 501 CURVE SMOOTH"
);
}
);
width = 538;
},
{
associatedMasterId = "9C387D97-1150-45A6-AF8D-2AAB62D95D5D";
layerId = "B8763EFC-3F28-4B83-A1BB-FEDFCAF7ADE4";
name = "Smaller counter";
paths = (
{
closed = 1;
nodes = (
"514 95 LINE",
"296 227 OFFCURVE",
"207 309 OFFCURVE",
"207 427 CURVE SMOOTH",
"207 541 OFFCURVE",
"303 606 OFFCURVE",
"369 606 CURVE SMOOTH",
"404 606 OFFCURVE",
"426 587 OFFCURVE",
"426 557 CURVE SMOOTH",
"426 526 OFFCURVE",
"404 507 OFFCURVE",
"377 507 CURVE SMOOTH",
"346 507 OFFCURVE",
"323 536 OFFCURVE",
"293 580 CURVE SMOOTH",
"193 729 LINE",
"97 669 LINE",
"219 482 LINE SMOOTH",
"258 423 OFFCURVE",
"320 390 OFFCURVE",
"380 390 CURVE SMOOTH",
"482 390 OFFCURVE",
"563 455 OFFCURVE",
"563 558 CURVE SMOOTH",
"563 669 OFFCURVE",
"479 729 OFFCURVE",
"369 729 CURVE SMOOTH",
"196 729 OFFCURVE",
"64 581 OFFCURVE",
"64 418 CURVE SMOOTH",
"64 228 OFFCURVE",
"220 95 OFFCURVE",
"416 -8 CURVE"
);
}
);
width = 600;
},
{
associatedMasterId = UUID0;
layerId = "7E95A2A8-5900-43B9-A104-91CF3A0C6271";
width = 600;
},
{
layerId = "6E1A9BF3-6A06-44F2-8E17-ACCB47751CD5";
paths = (
{
closed = 1;
nodes = (
"477 64 LINE",
"379 115 OFFCURVE",
"149 237 OFFCURVE",
"149 407 CURVE SMOOTH",
"149 485 OFFCURVE",
"183 535 OFFCURVE",
"193 546 CURVE",
"167 551 LINE",
"200 482 OFFCURVE",
"252 413 OFFCURVE",
"345 413 CURVE SMOOTH",
"440 413 OFFCURVE",
"508 487 OFFCURVE",
"508 568 CURVE SMOOTH",
"508 662 OFFCURVE",
"439 726 OFFCURVE",
"337 726 CURVE SMOOTH",
"263 726 OFFCURVE",
"193 679 OFFCURVE",
"174 666 CURVE",
"211 651 LINE",
"193 685 OFFCURVE",
"180 709 OFFCURVE",
"171 728 CURVE",
"94 685 LINE",
"148 586 LINE",
"144 637 LINE",
"100 599 OFFCURVE",
"44 505 OFFCURVE",
"44 407 CURVE SMOOTH",
"44 205 OFFCURVE",
"250 63 OFFCURVE",
"406 -10 CURVE"
);
},
{
closed = 1;
nodes = (
"288 497 OFFCURVE",
"249 579 OFFCURVE",
"223 624 CURVE",
"228 591 LINE",
"254 613 OFFCURVE",
"297 639 OFFCURVE",
"336 639 CURVE SMOOTH",
"379 639 OFFCURVE",
"411 607 OFFCURVE",
"411 570 CURVE SMOOTH",
"411 530 OFFCURVE",
"382 497 OFFCURVE",
"345 497 CURVE SMOOTH"
);
}
);
width = 515.44262;
},
{
layerId = "38768EF3-7794-49DB-B097-CE6891208EBB";
paths = (
{
closed = 1;
nodes = (
"483 77 LINE",
"326 163 OFFCURVE",
"163 270 OFFCURVE",
"163 416 CURVE SMOOTH",
"163 473 OFFCURVE",
"184 513 OFFCURVE",
"196 530 CURVE",
"166 533 LINE",
"202 459 OFFCURVE",
"264 400 OFFCURVE",
"350 400 CURVE SMOOTH",
"445 400 OFFCURVE",
"522 472 OFFCURVE",
"522 562 CURVE SMOOTH",
"522 664 OFFCURVE",
"445 727 OFFCURVE",
"339 727 CURVE SMOOTH",
"269 727 OFFCURVE",
"204 692 OFFCURVE",
"171 669 CURVE",
"211 649 LINE",
"193 679 OFFCURVE",
"180 704 OFFCURVE",
"168 726 CURVE",
"82 677 LINE",
"136 579 LINE",
"135 636 LINE",
"86 590 OFFCURVE",
"40 503 OFFCURVE",
"40 412 CURVE SMOOTH",
"40 216 OFFCURVE",
"223 78 OFFCURVE",
"399 -10 CURVE"
);
},
{
closed = 1;
nodes = (
"301 499 OFFCURVE",
"261 556 OFFCURVE",
"222 625 CURVE",
"232 577 LINE",
"261 603 OFFCURVE",
"302 624 OFFCURVE",
"338 624 CURVE SMOOTH",
"378 624 OFFCURVE",
"406 596 OFFCURVE",
"406 563 CURVE SMOOTH",
"406 526 OFFCURVE",
"381 499 OFFCURVE",
"350 499 CURVE SMOOTH"
);
}
);
width = 525.93443;
}
);
unicode = 1C56;
},
{
color = 10;
glyphname = uni1C57;
lastChange = "2019-10-15 17:35:40 +0000";
layers = (
{
layerId = UUID0;
paths = (
{
closed = 1;
nodes = (
"403 -10 OFFCURVE",
"474 91 OFFCURVE",
"495 140 CURVE",
"410 158 LINE",
"405 142 OFFCURVE",
"358 65 OFFCURVE",
"272 65 CURVE SMOOTH",
"186 65 OFFCURVE",
"140 125 OFFCURVE",
"140 195 CURVE SMOOTH",
"140 231 OFFCURVE",
"172 260 OFFCURVE",
"198 286 CURVE SMOOTH",
"351 440 LINE SMOOTH",
"369 459 OFFCURVE",
"453 533 OFFCURVE",
"453 599 CURVE SMOOTH",
"453 680 OFFCURVE",
"397 725 OFFCURVE",
"305 725 CURVE SMOOTH",
"216 725 OFFCURVE",
"170 657 OFFCURVE",
"151 626 CURVE",
"173 626 LINE",
"85 719 LINE",
"32 668 LINE",
"198 496 LINE",
"251 547 LINE",
"198 601 LINE",
"208 566 LINE",
"211 597 OFFCURVE",
"256 650 OFFCURVE",
"305 650 CURVE SMOOTH",
"344 650 OFFCURVE",
"365 628 OFFCURVE",
"365 599 CURVE SMOOTH",
"365 564 OFFCURVE",
"313 516 OFFCURVE",
"290 494 CURVE SMOOTH",
"123 329 LINE SMOOTH",
"104 311 OFFCURVE",
"51 260 OFFCURVE",
"51 195 CURVE SMOOTH",
"51 84 OFFCURVE",
"130 -10 OFFCURVE",
"272 -10 CURVE SMOOTH"
);
}
);
width = 514;
},
{
layerId = "9C387D97-1150-45A6-AF8D-2AAB62D95D5D";
paths = (
{
closed = 1;
nodes = (
"397 -15 OFFCURVE",
"482 46 OFFCURVE",
"529 161 CURVE",
"395 187 LINE",
"371 138 OFFCURVE",
"340 111 OFFCURVE",
"291 111 CURVE SMOOTH",
"242 111 OFFCURVE",
"206 143 OFFCURVE",
"206 193 CURVE SMOOTH",
"206 220 OFFCURVE",
"220 251 OFFCURVE",
"260 286 CURVE SMOOTH",
"438 438 LINE SMOOTH",
"478 473 OFFCURVE",
"509 516 OFFCURVE",
"509 577 CURVE SMOOTH",
"509 665 OFFCURVE",
"436 728 OFFCURVE",
"332 728 CURVE SMOOTH",
"239 728 OFFCURVE",
"178 675 OFFCURVE",
"150 624 CURVE",
"199 619 LINE",
"98 723 LINE",
"19 644 LINE",
"195 464 LINE",
"273 542 LINE",
"212 604 LINE",
"217 529 LINE",
"238 577 OFFCURVE",
"277 606 OFFCURVE",
"312 606 CURVE SMOOTH",
"340 606 OFFCURVE",
"355 593 OFFCURVE",
"355 569 CURVE SMOOTH",
"355 548 OFFCURVE",
"345 534 OFFCURVE",
"332 523 CURVE SMOOTH",
"141 360 LINE SMOOTH",
"87 314 OFFCURVE",
"48 259 OFFCURVE",
"48 193 CURVE SMOOTH",
"48 85 OFFCURVE",
"136 -15 OFFCURVE",
"287 -15 CURVE SMOOTH"
);
}
);
width = 535;
},
{
associatedMasterId = "9C387D97-1150-45A6-AF8D-2AAB62D95D5D";
layerId = "7F7B2803-D2AF-4F86-A09B-D4214278508C";
name = "Oct 4 19, 11:38";
paths = (
{
closed = 1;
nodes = (
"77 77 OFFCURVE",
"164 -15 OFFCURVE",
"315 -15 CURVE SMOOTH",
"425 -15 OFFCURVE",
"510 46 OFFCURVE",
"557 161 CURVE",
"423 187 LINE",
"398 139 OFFCURVE",
"364 111 OFFCURVE",
"315 111 CURVE SMOOTH",
"266 111 OFFCURVE",
"235 138 OFFCURVE",
"235 190 CURVE SMOOTH",
"235 217 OFFCURVE",
"247 252 OFFCURVE",
"286 288 CURVE SMOOTH",
"456 443 LINE SMOOTH",
"495 479 OFFCURVE",
"527 518 OFFCURVE",
"527 577 CURVE SMOOTH",
"527 665 OFFCURVE",
"454 728 OFFCURVE",
"353 728 CURVE SMOOTH",
"275 728 OFFCURVE",
"214 688 OFFCURVE",
"183 640 CURVE",
"250 547 LINE",
"273 584 OFFCURVE",
"308 607 OFFCURVE",
"336 607 CURVE SMOOTH",
"358 607 OFFCURVE",
"374 594 OFFCURVE",
"374 572 CURVE SMOOTH",
"374 551 OFFCURVE",
"365 538 OFFCURVE",
"352 526 CURVE SMOOTH",
"170 359 LINE SMOOTH",
"117 310 OFFCURVE",
"77 256 OFFCURVE",
"77 185 CURVE SMOOTH"
);
},
{
closed = 1;
nodes = (
"44 642 LINE",
"216 468 LINE",
"284 536 LINE",
"112 710 LINE"
);
}
);
width = 600;
},
{
associatedMasterId = UUID0;
layerId = "7E95A2A8-5900-43B9-A104-91CF3A0C6271";
width = 600;
},
{
layerId = "6E1A9BF3-6A06-44F2-8E17-ACCB47751CD5";
paths = (
{
closed = 1;
nodes = (
"401 -11 OFFCURVE",
"476 78 OFFCURVE",
"505 146 CURVE",
"406 167 LINE",
"395 141 OFFCURVE",
"353 79 OFFCURVE",
"278 79 CURVE SMOOTH",
"203 79 OFFCURVE",
"159 130 OFFCURVE",
"159 194 CURVE SMOOTH",
"159 228 OFFCURVE",
"186 257 OFFCURVE",
"216 286 CURVE SMOOTH",
"377 439 LINE SMOOTH",
"401 463 OFFCURVE",
"470 528 OFFCURVE",
"470 593 CURVE SMOOTH",
"470 676 OFFCURVE",
"409 726 OFFCURVE",
"313 726 CURVE SMOOTH",
"223 726 OFFCURVE",
"172 662 OFFCURVE",
"151 625 CURVE",
"181 624 LINE",
"89 720 LINE",
"28 661 LINE",
"197 487 LINE",
"257 546 LINE",
"202 602 LINE",
"211 555 LINE",
"219 591 OFFCURVE",
"262 637 OFFCURVE",
"307 637 CURVE SMOOTH",
"343 637 OFFCURVE",
"362 618 OFFCURVE",
"362 590 CURVE SMOOTH",
"362 559 OFFCURVE",
"322 521 OFFCURVE",
"302 503 CURVE SMOOTH",
"128 338 LINE SMOOTH",
"99 312 OFFCURVE",
"50 260 OFFCURVE",
"50 194 CURVE SMOOTH",
"50 84 OFFCURVE",
"132 -11 OFFCURVE",
"276 -11 CURVE SMOOTH"
);
}
);
width = 520.19672;
},
{
layerId = "38768EF3-7794-49DB-B097-CE6891208EBB";
paths = (
{
closed = 1;
nodes = (
"399 -13 OFFCURVE",
"479 63 OFFCURVE",
"516 153 CURVE",
"401 176 LINE",
"384 140 OFFCURVE",
"347 94 OFFCURVE",
"284 94 CURVE SMOOTH",
"221 94 OFFCURVE",
"181 136 OFFCURVE",
"181 194 CURVE SMOOTH",
"181 224 OFFCURVE",
"202 254 OFFCURVE",
"236 286 CURVE SMOOTH",
"405 439 LINE SMOOTH",
"437 468 OFFCURVE",
"488 522 OFFCURVE",
"488 586 CURVE SMOOTH",
"488 671 OFFCURVE",
"422 727 OFFCURVE",
"322 727 CURVE SMOOTH",
"230 727 OFFCURVE",
"175 668 OFFCURVE",
"151 625 CURVE",
"189 622 LINE",
"93 721 LINE",
"24 653 LINE",
"196 476 LINE",
"264 544 LINE",
"207 603 LINE",
"214 543 LINE",
"228 584 OFFCURVE",
"269 623 OFFCURVE",
"309 623 CURVE SMOOTH",
"342 623 OFFCURVE",
"359 606 OFFCURVE",
"359 580 CURVE SMOOTH",
"359 554 OFFCURVE",
"333 527 OFFCURVE",
"316 512 CURVE SMOOTH",
"134 348 LINE SMOOTH",
"93 313 OFFCURVE",
"49 260 OFFCURVE",
"49 194 CURVE SMOOTH",
"49 84 OFFCURVE",
"134 -13 OFFCURVE",
"281 -13 CURVE SMOOTH"
);
}
);
width = 527.08197;
}
);
unicode = 1C57;
},
{
color = 10;
glyphname = uni1C58;
lastChange = "2019-10-15 17:35:40 +0000";
layers = (
{
layerId = UUID0;
paths = (
{
closed = 1;
nodes = (
"580 -10 OFFCURVE",
"620 160 OFFCURVE",
"621 202 CURVE",
"528 202 LINE",
"524 143 OFFCURVE",
"481 65 OFFCURVE",
"341 65 CURVE SMOOTH",
"202 65 OFFCURVE",
"146 115 OFFCURVE",
"146 202 CURVE SMOOTH",
"146 295 LINE",
"122 224 LINE",
"373 548 LINE",
"335 534 LINE",
"369 492 OFFCURVE",
"435 420 OFFCURVE",
"502 420 CURVE SMOOTH",
"614 420 OFFCURVE",
"652 510 OFFCURVE",
"652 572 CURVE SMOOTH",
"652 633 OFFCURVE",
"627 725 OFFCURVE",
"509 725 CURVE SMOOTH",
"433 725 OFFCURVE",
"399 683 OFFCURVE",
"329 603 CURVE",
"384 603 LINE",
"366 619 LINE SMOOTH",
"336 645 OFFCURVE",
"272 726 OFFCURVE",
"202 726 CURVE SMOOTH",
"73 725 OFFCURVE",
"60 616 OFFCURVE",
"60 569 CURVE SMOOTH",
"60 194 LINE SMOOTH",
"60 104 OFFCURVE",
"107 -10 OFFCURVE",
"341 -10 CURVE SMOOTH"
);
},
{
closed = 1;
nodes = (
"146 582 LINE SMOOTH",
"146 603 OFFCURVE",
"157 647 OFFCURVE",
"198 647 CURVE SMOOTH",
"228 647 OFFCURVE",
"303 569 OFFCURVE",
"313 559 CURVE SMOOTH",
"324 548 LINE",
"313 581 LINE",
"121 341 LINE",
"146 332 LINE"
);
},
{
closed = 1;
nodes = (
"462 491 OFFCURVE",
"394 580 OFFCURVE",
"394 576 CURVE",
"384 556 LINE",
"416 581 OFFCURVE",
"450 654 OFFCURVE",
"508 654 CURVE SMOOTH",
"550 654 OFFCURVE",
"572 613 OFFCURVE",
"572 572 CURVE SMOOTH",
"572 532 OFFCURVE",
"546 491 OFFCURVE",
"502 491 CURVE SMOOTH"
);
}
);
width = 668;
},
{
layerId = "9C387D97-1150-45A6-AF8D-2AAB62D95D5D";
paths = (
{
closed = 1;
nodes = (
"542 -15 OFFCURVE",
"642 73 OFFCURVE",
"652 222 CURVE",
"504 222 LINE",
"501 152 OFFCURVE",
"441 111 OFFCURVE",
"352 111 CURVE SMOOTH",
"266 111 OFFCURVE",
"199 156 OFFCURVE",
"199 222 CURVE SMOOTH",
"199 304 LINE",
"168 227 LINE",
"392 495 LINE",
"359 470 LINE",
"406 417 OFFCURVE",
"454 382 OFFCURVE",
"520 382 CURVE SMOOTH",
"611 382 OFFCURVE",
"684 454 OFFCURVE",
"684 560 CURVE SMOOTH",
"684 659 OFFCURVE",
"618 729 OFFCURVE",
"524 729 CURVE SMOOTH",
"462 729 OFFCURVE",
"423 696 OFFCURVE",
"345 600 CURVE",
"401 599 LINE",
"341 666 LINE SMOOTH",
"301 711 OFFCURVE",
"267 731 OFFCURVE",
"200 731 CURVE SMOOTH",
"110 731 OFFCURVE",
"47 651 OFFCURVE",
"47 548 CURVE SMOOTH",
"47 220 LINE SMOOTH",
"47 79 OFFCURVE",
"161 -15 OFFCURVE",
"352 -15 CURVE SMOOTH"
);
},
{
closed = 1;
nodes = (
"199 571 LINE SMOOTH",
"199 593 OFFCURVE",
"205 604 OFFCURVE",
"218 604 CURVE SMOOTH",
"228 604 OFFCURVE",
"232 599 OFFCURVE",
"249 582 CURVE SMOOTH",
"324 507 LINE",
"326 575 LINE",
"175 396 LINE",
"199 385 LINE"
);
},
{
closed = 1;
nodes = (
"485 502 OFFCURVE",
"459 529 OFFCURVE",
"435 557 CURVE",
"434 545 LINE",
"466 585 OFFCURVE",
"485 606 OFFCURVE",
"509 606 CURVE SMOOTH",
"534 606 OFFCURVE",
"551 586 OFFCURVE",
"551 556 CURVE SMOOTH",
"551 525 OFFCURVE",
"533 502 OFFCURVE",
"509 502 CURVE SMOOTH"
);
}
);
width = 697;
},
{
associatedMasterId = "9C387D97-1150-45A6-AF8D-2AAB62D95D5D";
layerId = "D4333F5F-00B1-4632-8BF2-4ED7D3A6769F";
name = "Oct 4 19, 13:25";
paths = (
{
closed = 1;
nodes = (
"9 220 LINE SMOOTH",
"9 79 OFFCURVE",
"129 -15 OFFCURVE",
"310 -15 CURVE SMOOTH",
"491 -15 OFFCURVE",
"590 67 OFFCURVE",
"600 222 CURVE",
"452 222 LINE",
"449 146 OFFCURVE",
"390 111 OFFCURVE",
"310 111 CURVE SMOOTH",
"224 111 OFFCURVE",
"167 156 OFFCURVE",
"167 222 CURVE SMOOTH",
"167 578 LINE SMOOTH",
"167 598 OFFCURVE",
"172 611 OFFCURVE",
"186 611 CURVE",
"168 731 LINE",
"97 731 OFFCURVE",
"9 673 OFFCURVE",
"9 548 CURVE SMOOTH"
);
},
{
closed = 1;
nodes = (
"430 729 OFFCURVE",
"385 691 OFFCURVE",
"338 635 CURVE SMOOTH",
"100 350 LINE",
"121 203 LINE",
"407 550 LINE SMOOTH",
"424 570 OFFCURVE",
"443 606 OFFCURVE",
"477 606 CURVE SMOOTH",
"501 606 OFFCURVE",
"519 588 OFFCURVE",
"519 556 CURVE SMOOTH",
"519 524 OFFCURVE",
"501 502 OFFCURVE",
"477 502 CURVE SMOOTH",
"450 502 OFFCURVE",
"422 530 OFFCURVE",
"402 554 CURVE SMOOTH",
"317 657 LINE SMOOTH",
"271 713 OFFCURVE",
"236 731 OFFCURVE",
"168 731 CURVE",
"186 611 LINE",
"197 611 OFFCURVE",
"204 604 OFFCURVE",
"217 589 CURVE SMOOTH",
"333 460 LINE SMOOTH",
"355 435 OFFCURVE",
"411 382 OFFCURVE",
"491 382 CURVE SMOOTH",
"569 382 OFFCURVE",
"652 444 OFFCURVE",
"652 560 CURVE SMOOTH",
"652 673 OFFCURVE",
"573 729 OFFCURVE",
"492 729 CURVE SMOOTH"
);
}
);
width = 600;
},
{
associatedMasterId = UUID0;
layerId = "6FCA6DBC-EC0E-4C48-A24B-D34E0FF3FACD";
name = "Oct 4 19, 13:27";
paths = (
{
closed = 1;
nodes = (
"580 -10 OFFCURVE",
"620 160 OFFCURVE",
"621 202 CURVE",
"528 202 LINE",
"524 143 OFFCURVE",
"481 65 OFFCURVE",
"341 65 CURVE SMOOTH",
"202 65 OFFCURVE",
"146 115 OFFCURVE",
"146 202 CURVE SMOOTH",
"146 295 LINE",
"122 224 LINE",
"373 548 LINE",
"335 534 LINE",
"369 492 OFFCURVE",
"435 420 OFFCURVE",
"502 420 CURVE SMOOTH",
"614 420 OFFCURVE",
"652 510 OFFCURVE",
"652 572 CURVE SMOOTH",
"652 633 OFFCURVE",
"627 725 OFFCURVE",
"509 725 CURVE SMOOTH",
"433 725 OFFCURVE",
"399 683 OFFCURVE",
"329 603 CURVE",
"384 603 LINE",
"366 619 LINE SMOOTH",
"336 645 OFFCURVE",
"272 726 OFFCURVE",
"202 726 CURVE SMOOTH",
"73 725 OFFCURVE",
"60 616 OFFCURVE",
"60 569 CURVE SMOOTH",
"60 194 LINE SMOOTH",
"60 104 OFFCURVE",
"107 -10 OFFCURVE",
"341 -10 CURVE SMOOTH"
);
},
{
closed = 1;
nodes = (
"146 582 LINE SMOOTH",
"146 603 OFFCURVE",
"157 647 OFFCURVE",
"198 647 CURVE SMOOTH",
"228 647 OFFCURVE",
"303 569 OFFCURVE",
"313 559 CURVE SMOOTH",
"325 549 LINE",
"313 581 LINE",
"121 341 LINE",
"146 332 LINE"
);
},
{
closed = 1;
nodes = (
"462 491 OFFCURVE",
"394 580 OFFCURVE",
"394 576 CURVE",
"384 556 LINE",
"416 581 OFFCURVE",
"450 654 OFFCURVE",
"508 654 CURVE SMOOTH",
"550 654 OFFCURVE",
"572 613 OFFCURVE",
"572 572 CURVE SMOOTH",
"572 532 OFFCURVE",
"546 491 OFFCURVE",
"502 491 CURVE SMOOTH"
);
}
);
width = 668;
},
{
associatedMasterId = UUID0;
layerId = "7E95A2A8-5900-43B9-A104-91CF3A0C6271";
width = 600;
},
{
layerId = "6E1A9BF3-6A06-44F2-8E17-ACCB47751CD5";
paths = (
{
closed = 1;
nodes = (
"569 -11 OFFCURVE",
"626 134 OFFCURVE",
"630 208 CURVE",
"521 208 LINE",
"517 146 OFFCURVE",
"469 79 OFFCURVE",
"344 79 CURVE SMOOTH",
"221 79 OFFCURVE",
"162 127 OFFCURVE",
"162 208 CURVE SMOOTH",
"162 298 LINE",
"136 225 LINE",
"379 532 LINE",
"342 515 LINE",
"380 470 OFFCURVE",
"441 409 OFFCURVE",
"507 409 CURVE SMOOTH",
"613 409 OFFCURVE",
"661 493 OFFCURVE",
"661 568 CURVE SMOOTH",
"661 641 OFFCURVE",
"624 726 OFFCURVE",
"513 726 CURVE SMOOTH",
"442 726 OFFCURVE",
"406 687 OFFCURVE",
"334 602 CURVE",
"389 602 LINE",
"359 633 LINE SMOOTH",
"326 664 OFFCURVE",
"271 727 OFFCURVE",
"201 727 CURVE SMOOTH",
"84 727 OFFCURVE",
"56 626 OFFCURVE",
"56 563 CURVE SMOOTH",
"56 202 LINE SMOOTH",
"56 97 OFFCURVE",
"123 -11 OFFCURVE",
"344 -11 CURVE SMOOTH"
);
},
{
closed = 1;
nodes = (
"162 579 LINE SMOOTH",
"162 600 OFFCURVE",
"171 634 OFFCURVE",
"204 634 CURVE SMOOTH",
"228 634 OFFCURVE",
"282 578 OFFCURVE",
"294 566 CURVE SMOOTH",
"324 536 LINE",
"317 579 LINE",
"137 357 LINE",
"162 348 LINE"
);
},
{
closed = 1;
nodes = (
"469 494 OFFCURVE",
"413 565 OFFCURVE",
"406 570 CURVE",
"399 553 LINE",
"431 582 OFFCURVE",
"460 640 OFFCURVE",
"508 640 CURVE SMOOTH",
"545 640 OFFCURVE",
"566 605 OFFCURVE",
"566 567 CURVE SMOOTH",
"566 530 OFFCURVE",
"542 494 OFFCURVE",
"504 494 CURVE SMOOTH"
);
}
);
width = 676.55738;
},
{
layerId = "38768EF3-7794-49DB-B097-CE6891208EBB";
paths = (
{
closed = 1;
nodes = (
"556 -13 OFFCURVE",
"633 106 OFFCURVE",
"640 215 CURVE",
"513 215 LINE",
"510 149 OFFCURVE",
"456 94 OFFCURVE",
"348 94 CURVE SMOOTH",
"242 94 OFFCURVE",
"179 140 OFFCURVE",
"179 215 CURVE SMOOTH",
"179 301 LINE",
"151 226 LINE",
"385 515 LINE",
"350 494 LINE",
"392 445 OFFCURVE",
"447 396 OFFCURVE",
"513 396 CURVE SMOOTH",
"612 396 OFFCURVE",
"672 475 OFFCURVE",
"672 564 CURVE SMOOTH",
"672 649 OFFCURVE",
"621 727 OFFCURVE",
"518 727 CURVE SMOOTH",
"451 727 OFFCURVE",
"414 691 OFFCURVE",
"339 601 CURVE",
"395 601 LINE",
"351 648 LINE SMOOTH",
"314 686 OFFCURVE",
"269 729 OFFCURVE",
"201 729 CURVE SMOOTH",
"96 729 OFFCURVE",
"52 638 OFFCURVE",
"52 556 CURVE SMOOTH",
"52 210 LINE SMOOTH",
"52 89 OFFCURVE",
"141 -13 OFFCURVE",
"348 -13 CURVE SMOOTH"
);
},
{
closed = 1;
nodes = (
"179 575 LINE SMOOTH",
"179 597 OFFCURVE",
"187 620 OFFCURVE",
"211 620 CURVE SMOOTH",
"228 620 OFFCURVE",
"259 588 OFFCURVE",
"273 573 CURVE SMOOTH",
"324 523 LINE",
"321 577 LINE",
"155 375 LINE",
"179 365 LINE"
);
},
{
closed = 1;
nodes = (
"476 498 OFFCURVE",
"434 548 OFFCURVE",
"419 564 CURVE",
"415 549 LINE",
"447 583 OFFCURVE",
"472 624 OFFCURVE",
"508 624 CURVE SMOOTH",
"540 624 OFFCURVE",
"559 596 OFFCURVE",
"559 562 CURVE SMOOTH",
"559 528 OFFCURVE",
"538 498 OFFCURVE",
"506 498 CURVE SMOOTH"
);
}
);
width = 686.06557;
}
);
unicode = 1C58;
},
{
color = 10;
glyphname = uni1C59;
lastChange = "2019-10-15 17:35:40 +0000";
layers = (
{
layerId = UUID0;
paths = (
{
closed = 1;
nodes = (
"512 204 LINE",
"406 204 OFFCURVE",
"346 250 OFFCURVE",
"346 314 CURVE SMOOTH",
"346 352 OFFCURVE",
"370 401 OFFCURVE",
"425 401 CURVE SMOOTH",
"503 401 OFFCURVE",
"518 317 OFFCURVE",
"518 285 CURVE SMOOTH",
"518 169 OFFCURVE",
"459 65 OFFCURVE",
"333 65 CURVE SMOOTH",
"218 65 OFFCURVE",
"138 174 OFFCURVE",
"138 334 CURVE SMOOTH",
"138 513 OFFCURVE",
"262 625 OFFCURVE",
"373 646 CURVE",
"354 725 LINE",
"280 708 OFFCURVE",
"49 613 OFFCURVE",
"49 334 CURVE SMOOTH",
"49 133 OFFCURVE",
"160 -10 OFFCURVE",
"333 -10 CURVE SMOOTH",
"525 -10 OFFCURVE",
"596 160 OFFCURVE",
"596 280 CURVE SMOOTH",
"596 389 OFFCURVE",
"528 469 OFFCURVE",
"425 469 CURVE SMOOTH",
"342 469 OFFCURVE",
"272 400 OFFCURVE",
"272 313 CURVE SMOOTH",
"272 178 OFFCURVE",
"398 143 OFFCURVE",
"485 143 CURVE"
);
}
);
width = 632;
},
{
layerId = "9C387D97-1150-45A6-AF8D-2AAB62D95D5D";
paths = (
{
closed = 1;
nodes = (
"500 239 LINE",
"428 244 OFFCURVE",
"379 267 OFFCURVE",
"379 308 CURVE SMOOTH",
"379 335 OFFCURVE",
"394 357 OFFCURVE",
"428 357 CURVE SMOOTH",
"459 357 OFFCURVE",
"491 332 OFFCURVE",
"491 272 CURVE SMOOTH",
"491 168 OFFCURVE",
"427 111 OFFCURVE",
"351 111 CURVE SMOOTH",
"268 111 OFFCURVE",
"195 183 OFFCURVE",
"195 319 CURVE SMOOTH",
"195 459 OFFCURVE",
"274 545 OFFCURVE",
"395 598 CURVE",
"343 729 LINE",
"141 653 OFFCURVE",
"36 497 OFFCURVE",
"36 309 CURVE SMOOTH",
"36 131 OFFCURVE",
"149 -15 OFFCURVE",
"351 -15 CURVE SMOOTH",
"500 -15 OFFCURVE",
"623 99 OFFCURVE",
"623 250 CURVE SMOOTH",
"623 392 OFFCURVE",
"542 471 OFFCURVE",
"428 471 CURVE SMOOTH",
"335 471 OFFCURVE",
"250 410 OFFCURVE",
"250 308 CURVE SMOOTH",
"250 217 OFFCURVE",
"331 151 OFFCURVE",
"459 143 CURVE"
);
}
);
width = 646;
},
{
associatedMasterId = UUID0;
layerId = "8EC5DBAE-5160-4C84-95CC-5FCF35563814";
name = "Oct 8 19, 15:58";
paths = (
{
closed = 1;
nodes = (
"525 -10 OFFCURVE",
"596 160 OFFCURVE",
"596 280 CURVE SMOOTH",
"596 389 OFFCURVE",
"528 469 OFFCURVE",
"425 469 CURVE SMOOTH",
"342 469 OFFCURVE",
"272 400 OFFCURVE",
"272 313 CURVE SMOOTH",
"272 169 OFFCURVE",
"417 143 OFFCURVE",
"477 143 CURVE",
"468 122 OFFCURVE",
"427 65 OFFCURVE",
"333 65 CURVE SMOOTH",
"218 65 OFFCURVE",
"138 174 OFFCURVE",
"138 334 CURVE SMOOTH",
"138 513 OFFCURVE",
"262 625 OFFCURVE",
"373 646 CURVE",
"354 725 LINE",
"280 708 OFFCURVE",
"49 613 OFFCURVE",
"49 334 CURVE SMOOTH",
"49 133 OFFCURVE",
"160 -10 OFFCURVE",
"333 -10 CURVE SMOOTH"
);
},
{
closed = 1;
nodes = (
"411 204 OFFCURVE",
"346 248 OFFCURVE",
"346 314 CURVE SMOOTH",
"346 352 OFFCURVE",
"370 401 OFFCURVE",
"425 401 CURVE SMOOTH",
"503 401 OFFCURVE",
"518 317 OFFCURVE",
"518 285 CURVE SMOOTH",
"518 239 OFFCURVE",
"509 213 OFFCURVE",
"506 204 CURVE"
);
}
);
visible = 1;
width = 632;
},
{
associatedMasterId = UUID0;
layerId = "7E95A2A8-5900-43B9-A104-91CF3A0C6271";
width = 600;
},
{
layerId = "6E1A9BF3-6A06-44F2-8E17-ACCB47751CD5";
paths = (
{
closed = 1;
nodes = (
"508 214 LINE",
"412 216 OFFCURVE",
"356 255 OFFCURVE",
"356 312 CURVE SMOOTH",
"356 347 OFFCURVE",
"377 388 OFFCURVE",
"426 388 CURVE SMOOTH",
"490 388 OFFCURVE",
"510 321 OFFCURVE",
"510 281 CURVE SMOOTH",
"510 169 OFFCURVE",
"450 79 OFFCURVE",
"338 79 CURVE SMOOTH",
"233 79 OFFCURVE",
"155 177 OFFCURVE",
"155 330 CURVE SMOOTH",
"155 497 OFFCURVE",
"266 601 OFFCURVE",
"379 632 CURVE",
"351 726 LINE",
"239 692 OFFCURVE",
"45 579 OFFCURVE",
"45 327 CURVE SMOOTH",
"45 132 OFFCURVE",
"157 -11 OFFCURVE",
"338 -11 CURVE SMOOTH",
"518 -11 OFFCURVE",
"604 142 OFFCURVE",
"604 271 CURVE SMOOTH",
"604 390 OFFCURVE",
"532 470 OFFCURVE",
"426 470 CURVE SMOOTH",
"340 470 OFFCURVE",
"266 403 OFFCURVE",
"266 312 CURVE SMOOTH",
"266 190 OFFCURVE",
"378 145 OFFCURVE",
"477 143 CURVE"
);
}
);
width = 636.13115;
},
{
layerId = "38768EF3-7794-49DB-B097-CE6891208EBB";
paths = (
{
closed = 1;
nodes = (
"504 226 LINE",
"419 229 OFFCURVE",
"367 261 OFFCURVE",
"367 310 CURVE SMOOTH",
"367 341 OFFCURVE",
"385 374 OFFCURVE",
"427 374 CURVE SMOOTH",
"476 374 OFFCURVE",
"501 326 OFFCURVE",
"501 277 CURVE SMOOTH",
"501 169 OFFCURVE",
"439 94 OFFCURVE",
"344 94 CURVE SMOOTH",
"249 94 OFFCURVE",
"174 180 OFFCURVE",
"174 325 CURVE SMOOTH",
"174 479 OFFCURVE",
"270 575 OFFCURVE",
"386 616 CURVE",
"347 727 LINE",
"193 674 OFFCURVE",
"41 541 OFFCURVE",
"41 319 CURVE SMOOTH",
"41 132 OFFCURVE",
"153 -13 OFFCURVE",
"344 -13 CURVE SMOOTH",
"510 -13 OFFCURVE",
"613 122 OFFCURVE",
"613 261 CURVE SMOOTH",
"613 391 OFFCURVE",
"537 470 OFFCURVE",
"427 470 CURVE SMOOTH",
"338 470 OFFCURVE",
"259 406 OFFCURVE",
"259 310 CURVE SMOOTH",
"259 203 OFFCURVE",
"356 148 OFFCURVE",
"469 143 CURVE"
);
}
);
width = 640.72131;
}
);
unicode = 1C59;
},
{
color = 10;
glyphname = uni1C5A;
lastChange = "2019-10-15 17:35:40 +0000";
layers = (
{
layerId = UUID0;
paths = (
{
closed = 1;
nodes = (
"518 -10 OFFCURVE",
"601 158 OFFCURVE",
"601 325 CURVE SMOOTH",
"601 570 OFFCURVE",
"478 725 OFFCURVE",
"258 725 CURVE SMOOTH",
"118 725 OFFCURVE",
"53 679 OFFCURVE",
"53 640 CURVE SMOOTH",
"53 619 OFFCURVE",
"64 599 OFFCURVE",
"82 572 CURVE SMOOTH",
"155 462 LINE",
"173 495 LINE",
"47 495 LINE",
"47 419 LINE",
"161 419 LINE SMOOTH",
"204 419 OFFCURVE",
"223 442 OFFCURVE",
"223 473 CURVE SMOOTH",
"223 490 OFFCURVE",
"217 512 OFFCURVE",
"205 531 CURVE SMOOTH",
"119 662 LINE",
"120 619 LINE",
"160 640 OFFCURVE",
"193 650 OFFCURVE",
"258 650 CURVE SMOOTH",
"323 650 OFFCURVE",
"380 628 OFFCURVE",
"408 599 CURVE",
"417 643 LINE",
"69 196 LINE",
"69 98 OFFCURVE",
"165 -10 OFFCURVE",
"319 -10 CURVE SMOOTH"
);
},
{
closed = 1;
nodes = (
"233 65 OFFCURVE",
"174 114 OFFCURVE",
"141 183 CURVE",
"129 143 LINE",
"471 584 LINE",
"443 555 LINE",
"450 558 OFFCURVE",
"513 457 OFFCURVE",
"513 325 CURVE SMOOTH",
"513 224 OFFCURVE",
"462 65 OFFCURVE",
"316 65 CURVE SMOOTH"
);
}
);
width = 649;
},
{
layerId = "9C387D97-1150-45A6-AF8D-2AAB62D95D5D";
paths = (
{
closed = 1;
nodes = (
"505 -15 OFFCURVE",
"629 120 OFFCURVE",
"629 320 CURVE SMOOTH",
"629 572 OFFCURVE",
"479 729 OFFCURVE",
"238 729 CURVE SMOOTH",
"117 729 OFFCURVE",
"44 692 OFFCURVE",
"44 641 CURVE SMOOTH",
"44 625 OFFCURVE",
"48 609 OFFCURVE",
"58 589 CURVE SMOOTH",
"112 481 LINE",
"145 524 LINE",
"35 524 LINE",
"35 414 LINE",
"169 414 LINE SMOOTH",
"215 414 OFFCURVE",
"237 440 OFFCURVE",
"237 474 CURVE SMOOTH",
"237 487 OFFCURVE",
"234 503 OFFCURVE",
"221 530 CURVE SMOOTH",
"164 652 LINE",
"169 593 LINE",
"181 598 OFFCURVE",
"206 603 OFFCURVE",
"237 603 CURVE SMOOTH",
"287 603 OFFCURVE",
"339 586 OFFCURVE",
"382 554 CURVE",
"395 608 LINE",
"53 192 LINE",
"53 66 OFFCURVE",
"187 -15 OFFCURVE",
"316 -15 CURVE SMOOTH"
);
},
{
closed = 1;
nodes = (
"245 111 OFFCURVE",
"196 144 OFFCURVE",
"184 186 CURVE",
"171 130 LINE",
"488 528 LINE",
"420 520 LINE",
"452 476 OFFCURVE",
"469 421 OFFCURVE",
"469 320 CURVE SMOOTH",
"469 186 OFFCURVE",
"405 111 OFFCURVE",
"316 111 CURVE SMOOTH"
);
}
);
width = 664;
},
{
associatedMasterId = "9C387D97-1150-45A6-AF8D-2AAB62D95D5D";
layerId = "B0D7EBAA-1E4E-4534-AF16-62309431533E";
name = "Oct 5 19, 15:54";
paths = (
{
closed = 1;
nodes = (
"311 -15 LINE",
"538 -15 OFFCURVE",
"658 129 OFFCURVE",
"658 320 CURVE SMOOTH",
"658 590 OFFCURVE",
"495 729 OFFCURVE",
"236 729 CURVE",
"236 611 LINE",
"371 611 OFFCURVE",
"524 505 OFFCURVE",
"524 320 CURVE SMOOTH",
"524 209 OFFCURVE",
"454 111 OFFCURVE",
"311 111 CURVE"
);
},
{
closed = 1;
nodes = (
"236 729 LINE",
"154 729 OFFCURVE",
"111 708 OFFCURVE",
"76 686 CURVE",
"128 502 LINE",
"161 534 LINE",
"50 534 LINE",
"70 424 LINE",
"178 424 LINE SMOOTH",
"218 424 OFFCURVE",
"248 440 OFFCURVE",
"248 484 CURVE SMOOTH",
"248 496 OFFCURVE",
"247 509 OFFCURVE",
"242 524 CURVE SMOOTH",
"202 654 LINE",
"170 588 LINE",
"193 604 OFFCURVE",
"218 611 OFFCURVE",
"236 611 CURVE"
);
},
{
closed = 1;
nodes = (
"397 596 LINE",
"72 192 LINE",
"72 67 OFFCURVE",
"175 -15 OFFCURVE",
"311 -15 CURVE",
"311 111 LINE",
"255 111 OFFCURVE",
"206 159 OFFCURVE",
"198 192 CURVE",
"188 137 LINE",
"480 516 LINE"
);
}
);
width = 600;
},
{
associatedMasterId = UUID0;
layerId = "5A6B23B9-453A-4D30-8EDF-1955B5222AAC";
name = "Oct 5 19, 15:55";
paths = (
{
closed = 1;
nodes = (
"518 -10 OFFCURVE",
"601 158 OFFCURVE",
"601 325 CURVE SMOOTH",
"601 570 OFFCURVE",
"478 725 OFFCURVE",
"258 725 CURVE SMOOTH",
"118 725 OFFCURVE",
"53 679 OFFCURVE",
"53 640 CURVE SMOOTH",
"53 619 OFFCURVE",
"64 599 OFFCURVE",
"82 572 CURVE SMOOTH",
"133 495 LINE",
"47 495 LINE",
"47 419 LINE",
"161 419 LINE SMOOTH",
"204 419 OFFCURVE",
"223 442 OFFCURVE",
"223 473 CURVE SMOOTH",
"223 490 OFFCURVE",
"217 512 OFFCURVE",
"205 531 CURVE SMOOTH",
"141 629 LINE",
"144 631 OFFCURVE",
"182 650 OFFCURVE",
"258 650 CURVE SMOOTH",
"334 650 OFFCURVE",
"386 619 OFFCURVE",
"393 612 CURVE",
"69 196 LINE",
"69 98 OFFCURVE",
"165 -10 OFFCURVE",
"319 -10 CURVE SMOOTH"
);
},
{
closed = 1;
nodes = (
"213 65 OFFCURVE",
"155 144 OFFCURVE",
"153 174 CURVE",
"447 553 LINE",
"462 538 OFFCURVE",
"513 444 OFFCURVE",
"513 325 CURVE SMOOTH",
"513 224 OFFCURVE",
"462 65 OFFCURVE",
"316 65 CURVE SMOOTH"
);
}
);
visible = 1;
width = 649;
},
{
associatedMasterId = UUID0;
layerId = "7E95A2A8-5900-43B9-A104-91CF3A0C6271";
width = 600;
},
{
layerId = "6E1A9BF3-6A06-44F2-8E17-ACCB47751CD5";
paths = (
{
closed = 1;
nodes = (
"514 -11 OFFCURVE",
"609 147 OFFCURVE",
"609 324 CURVE SMOOTH",
"609 571 OFFCURVE",
"478 726 OFFCURVE",
"252 726 CURVE SMOOTH",
"118 726 OFFCURVE",
"50 683 OFFCURVE",
"50 640 CURVE SMOOTH",
"50 621 OFFCURVE",
"59 602 OFFCURVE",
"75 577 CURVE SMOOTH",
"142 468 LINE",
"165 504 LINE",
"43 504 LINE",
"43 418 LINE",
"163 418 LINE SMOOTH",
"207 418 OFFCURVE",
"227 441 OFFCURVE",
"227 473 CURVE SMOOTH",
"227 489 OFFCURVE",
"222 509 OFFCURVE",
"210 531 CURVE SMOOTH",
"132 659 LINE",
"134 611 LINE",
"166 628 OFFCURVE",
"197 636 OFFCURVE",
"252 636 CURVE SMOOTH",
"312 636 OFFCURVE",
"368 616 OFFCURVE",
"400 586 CURVE",
"411 633 LINE",
"64 195 LINE",
"64 89 OFFCURVE",
"171 -11 OFFCURVE",
"318 -11 CURVE SMOOTH"
);
},
{
closed = 1;
nodes = (
"237 79 OFFCURVE",
"180 123 OFFCURVE",
"154 184 CURVE",
"141 139 LINE",
"476 567 LINE",
"436 545 LINE",
"451 534 OFFCURVE",
"500 446 OFFCURVE",
"500 324 CURVE SMOOTH",
"500 213 OFFCURVE",
"445 79 OFFCURVE",
"316 79 CURVE SMOOTH"
);
}
);
width = 653.42623;
},
{
layerId = "38768EF3-7794-49DB-B097-CE6891208EBB";
paths = (
{
closed = 1;
nodes = (
"510 -13 OFFCURVE",
"618 134 OFFCURVE",
"618 322 CURVE SMOOTH",
"618 571 OFFCURVE",
"478 727 OFFCURVE",
"245 727 CURVE SMOOTH",
"118 727 OFFCURVE",
"47 687 OFFCURVE",
"47 640 CURVE SMOOTH",
"47 623 OFFCURVE",
"54 605 OFFCURVE",
"67 583 CURVE SMOOTH",
"128 474 LINE",
"156 513 LINE",
"39 513 LINE",
"39 416 LINE",
"166 416 LINE SMOOTH",
"211 416 OFFCURVE",
"232 441 OFFCURVE",
"232 473 CURVE SMOOTH",
"232 488 OFFCURVE",
"228 506 OFFCURVE",
"215 531 CURVE SMOOTH",
"147 656 LINE",
"150 603 LINE",
"173 614 OFFCURVE",
"201 621 OFFCURVE",
"245 621 CURVE SMOOTH",
"300 621 OFFCURVE",
"355 602 OFFCURVE",
"392 571 CURVE",
"404 621 LINE",
"59 194 LINE",
"59 78 OFFCURVE",
"178 -13 OFFCURVE",
"317 -13 CURVE SMOOTH"
);
},
{
closed = 1;
nodes = (
"241 94 OFFCURVE",
"187 133 OFFCURVE",
"168 185 CURVE",
"155 135 LINE",
"482 549 LINE",
"429 533 LINE",
"451 507 OFFCURVE",
"486 434 OFFCURVE",
"486 322 CURVE SMOOTH",
"486 200 OFFCURVE",
"426 94 OFFCURVE",
"316 94 CURVE SMOOTH"
);
}
);
width = 658.34426;
}
);
unicode = 1C5A;
},
{
glyphname = uni1C5B;
lastChange = "2019-10-15 17:35:40 +0000";
layers = (
{
layerId = UUID0;
paths = (
{
closed = 1;
nodes = (
"606 -10 OFFCURVE",
"720 137 OFFCURVE",
"720 358 CURVE SMOOTH",
"720 580 OFFCURVE",
"606 725 OFFCURVE",
"392 725 CURVE SMOOTH",
"168 725 OFFCURVE",
"61 578 OFFCURVE",
"61 359 CURVE SMOOTH",
"61 138 OFFCURVE",
"168 -10 OFFCURVE",
"391 -10 CURVE SMOOTH"
);
},
{
closed = 1;
nodes = (
"230 68 OFFCURVE",
"156 178 OFFCURVE",
"156 358 CURVE SMOOTH",
"156 538 OFFCURVE",
"230 646 OFFCURVE",
"392 646 CURVE SMOOTH",
"553 646 OFFCURVE",
"625 538 OFFCURVE",
"625 358 CURVE SMOOTH",
"625 178 OFFCURVE",
"553 68 OFFCURVE",
"391 68 CURVE SMOOTH"
);
}
);
width = 781;
},
{
layerId = "9C387D97-1150-45A6-AF8D-2AAB62D95D5D";
paths = (
{
closed = 1;
nodes = (
"621 -10 OFFCURVE",
"728 137 OFFCURVE",
"728 358 CURVE SMOOTH",
"728 580 OFFCURVE",
"621 725 OFFCURVE",
"389 725 CURVE SMOOTH",
"155 725 OFFCURVE",
"48 580 OFFCURVE",
"48 359 CURVE SMOOTH",
"48 137 OFFCURVE",
"155 -10 OFFCURVE",
"388 -10 CURVE SMOOTH"
);
},
{
closed = 1;
nodes = (
"261 117 OFFCURVE",
"207 208 OFFCURVE",
"207 358 CURVE SMOOTH",
"207 508 OFFCURVE",
"261 599 OFFCURVE",
"389 599 CURVE SMOOTH",
"517 599 OFFCURVE",
"569 508 OFFCURVE",
"569 358 CURVE SMOOTH",
"569 208 OFFCURVE",
"517 117 OFFCURVE",
"388 117 CURVE SMOOTH"
);
}
);
width = 776;
},
{
associatedMasterId = UUID0;
layerId = "7E95A2A8-5900-43B9-A104-91CF3A0C6271";
width = 600;
},
{
layerId = "6E1A9BF3-6A06-44F2-8E17-ACCB47751CD5";
paths = (
{
closed = 1;
nodes = (
"610 -10 OFFCURVE",
"722 137 OFFCURVE",
"722 358 CURVE SMOOTH",
"722 580 OFFCURVE",
"610 725 OFFCURVE",
"391 725 CURVE SMOOTH",
"164 725 OFFCURVE",
"57 579 OFFCURVE",
"57 359 CURVE SMOOTH",
"57 138 OFFCURVE",
"164 -10 OFFCURVE",
"390 -10 CURVE SMOOTH"
);
},
{
closed = 1;
nodes = (
"239 82 OFFCURVE",
"171 187 OFFCURVE",
"171 358 CURVE SMOOTH",
"171 529 OFFCURVE",
"239 632 OFFCURVE",
"391 632 CURVE SMOOTH",
"542 632 OFFCURVE",
"608 529 OFFCURVE",
"608 358 CURVE SMOOTH",
"608 187 OFFCURVE",
"542 82 OFFCURVE",
"390 82 CURVE SMOOTH"
);
}
);
width = 779.52459;
},
{
layerId = "38768EF3-7794-49DB-B097-CE6891208EBB";
paths = (
{
closed = 1;
nodes = (
"615 -10 OFFCURVE",
"725 137 OFFCURVE",
"725 358 CURVE SMOOTH",
"725 580 OFFCURVE",
"615 725 OFFCURVE",
"390 725 CURVE SMOOTH",
"160 725 OFFCURVE",
"53 579 OFFCURVE",
"53 359 CURVE SMOOTH",
"53 138 OFFCURVE",
"160 -10 OFFCURVE",
"389 -10 CURVE SMOOTH"
);
},
{
closed = 1;
nodes = (
"249 98 OFFCURVE",
"188 197 OFFCURVE",
"188 358 CURVE SMOOTH",
"188 519 OFFCURVE",
"249 617 OFFCURVE",
"390 617 CURVE SMOOTH",
"530 617 OFFCURVE",
"590 519 OFFCURVE",
"590 358 CURVE SMOOTH",
"590 197 OFFCURVE",
"530 98 OFFCURVE",
"389 98 CURVE SMOOTH"
);
}
);
width = 777.88525;
}
);
unicode = 1C5B;
},
{
glyphname = uni1C5C;
lastChange = "2019-10-15 17:35:40 +0000";
layers = (
{
layerId = UUID0;
paths = (
{
closed = 1;
nodes = (
"535 -10 OFFCURVE",
"614 148 OFFCURVE",
"631 304 CURVE",
"585 328 LINE",
"564 318 OFFCURVE",
"477 281 OFFCURVE",
"424 281 CURVE SMOOTH",
"379 281 OFFCURVE",
"341 307 OFFCURVE",
"341 362 CURVE SMOOTH",
"341 407 OFFCURVE",
"368 436 OFFCURVE",
"423 436 CURVE SMOOTH",
"609 436 LINE",
"609 512 LINE",
"436 512 LINE SMOOTH",
"357 512 OFFCURVE",
"262 476 OFFCURVE",
"262 362 CURVE SMOOTH",
"262 285 OFFCURVE",
"323 210 OFFCURVE",
"412 210 CURVE SMOOTH",
"457 210 OFFCURVE",
"512 230 OFFCURVE",
"550 246 CURVE",
"525 256 LINE",
"542 189 OFFCURVE",
"457 65 OFFCURVE",
"348 65 CURVE SMOOTH",
"193 65 OFFCURVE",
"137 214 OFFCURVE",
"137 357 CURVE SMOOTH",
"137 485 OFFCURVE",
"181 650 OFFCURVE",
"336 650 CURVE SMOOTH",
"428 650 OFFCURVE",
"472 568 OFFCURVE",
"475 556 CURVE",
"564 577 LINE",
"549 635 OFFCURVE",
"465 725 OFFCURVE",
"333 725 CURVE SMOOTH",
"139 725 OFFCURVE",
"49 556 OFFCURVE",
"49 357 CURVE SMOOTH",
"49 148 OFFCURVE",
"154 -10 OFFCURVE",
"348 -10 CURVE SMOOTH"
);
}
);
width = 676;
},
{
layerId = "9C387D97-1150-45A6-AF8D-2AAB62D95D5D";
paths = (
{
closed = 1;
nodes = (
"527 -15 OFFCURVE",
"662 85 OFFCURVE",
"681 314 CURVE",
"623 348 LINE",
"569 316 OFFCURVE",
"522 293 OFFCURVE",
"470 293 CURVE SMOOTH",
"438 293 OFFCURVE",
"417 310 OFFCURVE",
"417 337 CURVE SMOOTH",
"417 368 OFFCURVE",
"438 381 OFFCURVE",
"463 381 CURVE SMOOTH",
"653 381 LINE",
"651 501 LINE",
"433 501 LINE SMOOTH",
"349 501 OFFCURVE",
"267 453 OFFCURVE",
"267 339 CURVE SMOOTH",
"267 235 OFFCURVE",
"349 179 OFFCURVE",
"435 179 CURVE SMOOTH",
"485 179 OFFCURVE",
"513 196 OFFCURVE",
"536 219 CURVE",
"531 243 LINE",
"511 152 OFFCURVE",
"453 111 OFFCURVE",
"373 111 CURVE SMOOTH",
"248 111 OFFCURVE",
"196 213 OFFCURVE",
"196 355 CURVE SMOOTH",
"196 501 OFFCURVE",
"257 603 OFFCURVE",
"355 603 CURVE SMOOTH",
"412 603 OFFCURVE",
"440 573 OFFCURVE",
"461 537 CURVE",
"604 583 LINE",
"561 674 OFFCURVE",
"485 729 OFFCURVE",
"355 729 CURVE SMOOTH",
"186 729 OFFCURVE",
"36 584 OFFCURVE",
"36 355 CURVE SMOOTH",
"36 135 OFFCURVE",
"178 -15 OFFCURVE",
"369 -15 CURVE SMOOTH"
);
}
);
width = 698;
},
{
associatedMasterId = UUID0;
layerId = "EFFCAEA6-F790-42AB-A3CA-C83F9EED6ED9";
name = "Oct 5 19, 18:41";
paths = (
{
closed = 1;
nodes = (
"535 -10 OFFCURVE",
"614 148 OFFCURVE",
"631 304 CURVE",
"585 328 LINE",
"564 318 OFFCURVE",
"477 281 OFFCURVE",
"424 281 CURVE SMOOTH",
"379 281 OFFCURVE",
"341 307 OFFCURVE",
"341 362 CURVE SMOOTH",
"341 407 OFFCURVE",
"368 436 OFFCURVE",
"423 436 CURVE SMOOTH",
"609 436 LINE",
"609 512 LINE",
"436 512 LINE SMOOTH",
"357 512 OFFCURVE",
"262 476 OFFCURVE",
"262 362 CURVE SMOOTH",
"262 285 OFFCURVE",
"323 210 OFFCURVE",
"412 210 CURVE SMOOTH",
"455 210 OFFCURVE",
"511 230 OFFCURVE",
"527 237 CURVE",
"527 168 OFFCURVE",
"447 65 OFFCURVE",
"348 65 CURVE SMOOTH",
"193 65 OFFCURVE",
"137 214 OFFCURVE",
"137 357 CURVE SMOOTH",
"137 485 OFFCURVE",
"181 650 OFFCURVE",
"336 650 CURVE SMOOTH",
"428 650 OFFCURVE",
"472 568 OFFCURVE",
"475 556 CURVE",
"564 577 LINE",
"549 635 OFFCURVE",
"465 725 OFFCURVE",
"333 725 CURVE SMOOTH",
"139 725 OFFCURVE",
"49 556 OFFCURVE",
"49 357 CURVE SMOOTH",
"49 148 OFFCURVE",
"154 -10 OFFCURVE",
"348 -10 CURVE SMOOTH"
);
}
);
visible = 1;
width = 676;
},
{
associatedMasterId = UUID0;
layerId = "7E95A2A8-5900-43B9-A104-91CF3A0C6271";
width = 600;
},
{
layerId = "6E1A9BF3-6A06-44F2-8E17-ACCB47751CD5";
paths = (
{
closed = 1;
nodes = (
"533 -11 OFFCURVE",
"628 129 OFFCURVE",
"646 307 CURVE",
"596 334 LINE",
"565 317 OFFCURVE",
"490 285 OFFCURVE",
"438 285 CURVE SMOOTH",
"396 285 OFFCURVE",
"363 308 OFFCURVE",
"363 355 CURVE SMOOTH",
"363 395 OFFCURVE",
"389 420 OFFCURVE",
"435 420 CURVE SMOOTH",
"622 420 LINE",
"621 509 LINE",
"435 509 LINE SMOOTH",
"355 509 OFFCURVE",
"263 469 OFFCURVE",
"263 355 CURVE SMOOTH",
"263 270 OFFCURVE",
"331 201 OFFCURVE",
"419 201 CURVE SMOOTH",
"465 201 OFFCURVE",
"512 220 OFFCURVE",
"546 238 CURVE",
"527 252 LINE",
"533 178 OFFCURVE",
"456 79 OFFCURVE",
"355 79 CURVE SMOOTH",
"209 79 OFFCURVE",
"154 214 OFFCURVE",
"154 356 CURVE SMOOTH",
"154 490 OFFCURVE",
"203 636 OFFCURVE",
"342 636 CURVE SMOOTH",
"423 636 OFFCURVE",
"463 569 OFFCURVE",
"471 550 CURVE",
"576 579 LINE",
"553 647 OFFCURVE",
"471 726 OFFCURVE",
"339 726 CURVE SMOOTH",
"153 726 OFFCURVE",
"45 564 OFFCURVE",
"45 356 CURVE SMOOTH",
"45 144 OFFCURVE",
"161 -11 OFFCURVE",
"354 -11 CURVE SMOOTH"
);
}
);
width = 682.4918;
},
{
layerId = "38768EF3-7794-49DB-B097-CE6891208EBB";
paths = (
{
closed = 1;
nodes = (
"530 -13 OFFCURVE",
"644 109 OFFCURVE",
"662 310 CURVE",
"609 341 LINE",
"567 317 OFFCURVE",
"505 289 OFFCURVE",
"453 289 CURVE SMOOTH",
"416 289 OFFCURVE",
"388 309 OFFCURVE",
"388 347 CURVE SMOOTH",
"388 382 OFFCURVE",
"412 402 OFFCURVE",
"448 402 CURVE SMOOTH",
"636 402 LINE",
"635 505 LINE",
"434 505 LINE SMOOTH",
"352 505 OFFCURVE",
"265 462 OFFCURVE",
"265 348 CURVE SMOOTH",
"265 254 OFFCURVE",
"339 191 OFFCURVE",
"426 191 CURVE SMOOTH",
"474 191 OFFCURVE",
"512 209 OFFCURVE",
"541 229 CURVE",
"529 248 LINE",
"523 166 OFFCURVE",
"455 94 OFFCURVE",
"363 94 CURVE SMOOTH",
"227 94 OFFCURVE",
"174 214 OFFCURVE",
"174 356 CURVE SMOOTH",
"174 495 OFFCURVE",
"228 621 OFFCURVE",
"348 621 CURVE SMOOTH",
"418 621 OFFCURVE",
"452 571 OFFCURVE",
"466 544 CURVE",
"589 581 LINE",
"557 660 OFFCURVE",
"478 727 OFFCURVE",
"346 727 CURVE SMOOTH",
"168 727 OFFCURVE",
"41 573 OFFCURVE",
"41 356 CURVE SMOOTH",
"41 140 OFFCURVE",
"169 -13 OFFCURVE",
"361 -13 CURVE SMOOTH"
);
}
);
width = 689.70492;
}
);
unicode = 1C5C;
},
{
glyphname = uni1C5D;
lastChange = "2019-10-15 17:35:40 +0000";
layers = (
{
layerId = UUID0;
paths = (
{
closed = 1;
nodes = (
"463 -10 OFFCURVE",
"541 51 OFFCURVE",
"581 140 CURVE",
"335 385 LINE",
"335 329 LINE",
"581 575 LINE",
"541 664 OFFCURVE",
"463 725 OFFCURVE",
"344 725 CURVE SMOOTH",
"173 725 OFFCURVE",
"70 603 OFFCURVE",
"49 430 CURVE",
"138 430 LINE",
"155 547 OFFCURVE",
"215 650 OFFCURVE",
"344 650 CURVE SMOOTH",
"432 650 OFFCURVE",
"472 605 OFFCURVE",
"496 571 CURVE",
"513 614 LINE",
"257 357 LINE",
"513.001 100.999 LINE",
"496 144 LINE",
"472 110 OFFCURVE",
"432 65 OFFCURVE",
"344 65 CURVE SMOOTH",
"215 65 OFFCURVE",
"155 168 OFFCURVE",
"138 285 CURVE",
"49 285 LINE",
"70 112 OFFCURVE",
"173 -10 OFFCURVE",
"344 -10 CURVE SMOOTH"
);
},
{
closed = 1;
nodes = (
"632 318 LINE",
"632 387 LINE",
"446 387 LINE",
"446 318 LINE"
);
}
);
width = 672;
},
{
layerId = "9C387D97-1150-45A6-AF8D-2AAB62D95D5D";
paths = (
{
closed = 1;
nodes = (
"457 -13 OFFCURVE",
"542 58 OFFCURVE",
"600 172 CURVE",
"373 391 LINE",
"372 325 LINE",
"595 544 LINE",
"537 658 OFFCURVE",
"452 729 OFFCURVE",
"331 729 CURVE SMOOTH",
"185 729 OFFCURVE",
"63 627 OFFCURVE",
"36 428 CURVE",
"175 428 LINE",
"191 534 OFFCURVE",
"250 603 OFFCURVE",
"331 603 CURVE SMOOTH",
"389 603 OFFCURVE",
"427 577 OFFCURVE",
"453 523 CURVE",
"455 569 LINE",
"238 358 LINE",
"460 147 LINE",
"458 193 LINE",
"432 139 OFFCURVE",
"394 113 OFFCURVE",
"336 113 CURVE SMOOTH",
"250 113 OFFCURVE",
"196 182 OFFCURVE",
"180 288 CURVE",
"41 288 LINE",
"68 89 OFFCURVE",
"190 -13 OFFCURVE",
"336 -13 CURVE SMOOTH"
);
},
{
closed = 1;
nodes = (
"679 303 LINE",
"679 413 LINE",
"513 413 LINE",
"513 303 LINE"
);
}
);
width = 706;
},
{
associatedMasterId = "9C387D97-1150-45A6-AF8D-2AAB62D95D5D";
layerId = "01A59C60-C76C-4770-B6B3-B2C5333CD5DE";
name = "Oct 3 19, 16:49";
paths = (
{
closed = 1;
nodes = (
"511 -13 OFFCURVE",
"602 64 OFFCURVE",
"647 185 CURVE",
"458 391 LINE",
"458 325 LINE",
"647 531 LINE",
"602 652 OFFCURVE",
"511 729 OFFCURVE",
"370 729 CURVE SMOOTH",
"229 729 OFFCURVE",
"105 652 OFFCURVE",
"65 428 CURVE",
"210 428 LINE",
"227 554 OFFCURVE",
"294 603 OFFCURVE",
"370 603 CURVE SMOOTH",
"437 603 OFFCURVE",
"477 562 OFFCURVE",
"494 509 CURVE",
"514 569 LINE",
"314 358 LINE",
"514 147 LINE",
"494 207 LINE",
"477 154 OFFCURVE",
"437 113 OFFCURVE",
"370 113 CURVE SMOOTH",
"294 113 OFFCURVE",
"227 162 OFFCURVE",
"210 288 CURVE",
"65 288 LINE",
"105 64 OFFCURVE",
"229 -13 OFFCURVE",
"370 -13 CURVE SMOOTH"
);
},
{
closed = 1;
nodes = (
"754 298 LINE",
"754 408 LINE",
"588 408 LINE",
"588 298 LINE"
);
}
);
width = 814;
},
{
associatedMasterId = UUID0;
layerId = "7E95A2A8-5900-43B9-A104-91CF3A0C6271";
width = 600;
},
{
layerId = "6E1A9BF3-6A06-44F2-8E17-ACCB47751CD5";
paths = (
{
closed = 1;
nodes = (
"461 -11 OFFCURVE",
"541 53 OFFCURVE",
"587 149 CURVE",
"346 387 LINE",
"346 328 LINE",
"585 566 LINE",
"540 662 OFFCURVE",
"460 726 OFFCURVE",
"340 726 CURVE SMOOTH",
"177 726 OFFCURVE",
"68 610 OFFCURVE",
"45 429 CURVE",
"149 429 LINE",
"166 543 OFFCURVE",
"225 636 OFFCURVE",
"340 636 CURVE SMOOTH",
"419 636 OFFCURVE",
"459 597 OFFCURVE",
"483 557 CURVE",
"496 601 LINE",
"251 357 LINE",
"497 115 LINE",
"485 158 LINE",
"460 119 OFFCURVE",
"421 79 OFFCURVE",
"342 79 CURVE SMOOTH",
"225 79 OFFCURVE",
"167 172 OFFCURVE",
"150 286 CURVE",
"47 286 LINE",
"69 105 OFFCURVE",
"178 -11 OFFCURVE",
"342 -11 CURVE SMOOTH"
);
},
{
closed = 1;
nodes = (
"646 314 LINE",
"646 395 LINE",
"466 395 LINE",
"466 314 LINE"
);
}
);
width = 682.03279;
},
{
layerId = "38768EF3-7794-49DB-B097-CE6891208EBB";
paths = (
{
closed = 1;
nodes = (
"459 -12 OFFCURVE",
"541 55 OFFCURVE",
"593 160 CURVE",
"359 389 LINE",
"358 327 LINE",
"590 556 LINE",
"539 660 OFFCURVE",
"456 727 OFFCURVE",
"336 727 CURVE SMOOTH",
"181 727 OFFCURVE",
"66 618 OFFCURVE",
"41 429 CURVE",
"161 429 LINE",
"178 539 OFFCURVE",
"237 621 OFFCURVE",
"336 621 CURVE SMOOTH",
"405 621 OFFCURVE",
"444 588 OFFCURVE",
"469 541 CURVE",
"477 586 LINE",
"245 357 LINE",
"480 130 LINE",
"472 174 LINE",
"447 128 OFFCURVE",
"408 95 OFFCURVE",
"339 95 CURVE SMOOTH",
"237 95 OFFCURVE",
"180 177 OFFCURVE",
"164 287 CURVE",
"44 287 LINE",
"69 98 OFFCURVE",
"184 -12 OFFCURVE",
"339 -12 CURVE SMOOTH"
);
},
{
closed = 1;
nodes = (
"661 309 LINE",
"661 403 LINE",
"488 403 LINE",
"488 309 LINE"
);
}
);
width = 693.18033;
}
);
unicode = 1C5D;
},
{
glyphname = uni1C5E;
lastChange = "2019-10-15 17:35:40 +0000";
layers = (
{
layerId = UUID0;
paths = (
{
closed = 1;
nodes = (
"171 0 LINE",
"171 273 LINE",
"142 260 LINE",
"291 123 LINE",
"407 161 OFFCURVE",
"544 265 OFFCURVE",
"544 424 CURVE SMOOTH",
"544 583 OFFCURVE",
"407 687 OFFCURVE",
"291 725 CURVE",
"142 587 LINE",
"171 574 LINE",
"171 714 LINE",
"85 714 LINE",
"85 0 LINE"
);
},
{
closed = 1;
nodes = (
"171 564 LINE",
"143 496 LINE",
"319 668 LINE",
"272 644 LINE",
"344 632 OFFCURVE",
"455 556 OFFCURVE",
"455 424 CURVE SMOOTH",
"455 292 OFFCURVE",
"344 217 OFFCURVE",
"272 203 CURVE",
"320 181 LINE",
"142 350 LINE",
"171 283 LINE"
);
}
);
width = 584;
},
{
guideLines = (
{
angle = 270;
position = "{331, 568}";
}
);
layerId = "9C387D97-1150-45A6-AF8D-2AAB62D95D5D";
paths = (
{
closed = 1;
nodes = (
"226 0 LINE",
"226 282 LINE",
"198 252 LINE",
"335 119 LINE",
"480 166 OFFCURVE",
"590 270 OFFCURVE",
"590 424 CURVE SMOOTH",
"590 578 OFFCURVE",
"480 682 OFFCURVE",
"335 729 CURVE",
"198 596 LINE",
"226 566 LINE",
"226 714 LINE",
"75 714 LINE",
"75 0 LINE"
);
},
{
closed = 1;
nodes = (
"226 498 LINE",
"220 474 LINE",
"350 597 LINE",
"312 582 LINE",
"397 547 OFFCURVE",
"436 491 OFFCURVE",
"436 424 CURVE SMOOTH",
"436 357 OFFCURVE",
"397 301 OFFCURVE",
"312 266 CURVE",
"350 251 LINE",
"220 374 LINE",
"226 350 LINE"
);
}
);
width = 617;
},
{
associatedMasterId = UUID0;
layerId = "1FC5DBE7-9160-45A0-84FF-FE9DE92F1F86";
name = "Oct 3 19, 14:37";
paths = (
{
closed = 1;
nodes = (
"171 0 LINE",
"171 233 LINE",
"291 123 LINE",
"407 161 OFFCURVE",
"544 265 OFFCURVE",
"544 424 CURVE SMOOTH",
"544 583 OFFCURVE",
"407 687 OFFCURVE",
"291 725 CURVE",
"171 614 LINE",
"171 714 LINE",
"85 714 LINE",
"85 0 LINE"
);
},
{
closed = 1;
nodes = (
"171 323 LINE",
"171 524 LINE",
"291 640 LINE",
"362 619 OFFCURVE",
"455 545 OFFCURVE",
"455 424 CURVE SMOOTH",
"455 303 OFFCURVE",
"362 230 OFFCURVE",
"291 208 CURVE"
);
}
);
width = 584;
},
{
associatedMasterId = "9C387D97-1150-45A6-AF8D-2AAB62D95D5D";
guideLines = (
{
angle = 270;
position = "{365, 568}";
}
);
layerId = "9DF8C1BF-8249-4473-9DB4-66F172F02C77";
name = "Oct 3 19, 15:04";
paths = (
{
closed = 1;
nodes = (
"241 0 LINE",
"241 282 LINE",
"213 252 LINE",
"385 119 LINE",
"505 166 OFFCURVE",
"605 270 OFFCURVE",
"605 424 CURVE SMOOTH",
"605 578 OFFCURVE",
"505 682 OFFCURVE",
"385 729 CURVE",
"213 596 LINE",
"241 566 LINE",
"241 714 LINE",
"90 714 LINE",
"90 0 LINE"
);
},
{
closed = 1;
nodes = (
"241 498 LINE",
"235 474 LINE",
"396 597 LINE",
"362 582 LINE",
"422 547 OFFCURVE",
"451 491 OFFCURVE",
"451 424 CURVE SMOOTH",
"451 357 OFFCURVE",
"422 301 OFFCURVE",
"362 266 CURVE",
"396 251 LINE",
"235 374 LINE",
"241 350 LINE"
);
}
);
width = 650;
},
{
associatedMasterId = UUID0;
layerId = "7E95A2A8-5900-43B9-A104-91CF3A0C6271";
width = 600;
},
{
layerId = "6E1A9BF3-6A06-44F2-8E17-ACCB47751CD5";
paths = (
{
closed = 1;
nodes = (
"187 0 LINE",
"187 276 LINE",
"159 258 LINE",
"304 122 LINE",
"429 162 OFFCURVE",
"558 266 OFFCURVE",
"558 424 CURVE SMOOTH",
"558 582 OFFCURVE",
"429 686 OFFCURVE",
"304 726 CURVE",
"159 590 LINE",
"187 572 LINE",
"187 714 LINE",
"82 714 LINE",
"82 0 LINE"
);
},
{
closed = 1;
nodes = (
"187 545 LINE",
"166 490 LINE",
"328 647 LINE",
"284 626 LINE",
"360 607 OFFCURVE",
"449 537 OFFCURVE",
"449 424 CURVE SMOOTH",
"449 311 OFFCURVE",
"360 242 OFFCURVE",
"284 222 CURVE",
"329 202 LINE",
"165 357 LINE",
"187 303 LINE"
);
}
);
width = 593.7377;
},
{
layerId = "38768EF3-7794-49DB-B097-CE6891208EBB";
paths = (
{
closed = 1;
nodes = (
"205 0 LINE",
"205 279 LINE",
"177 255 LINE",
"318 121 LINE",
"453 164 OFFCURVE",
"573 268 OFFCURVE",
"573 424 CURVE SMOOTH",
"573 580 OFFCURVE",
"453 684 OFFCURVE",
"318 727 CURVE",
"177 593 LINE",
"205 569 LINE",
"205 714 LINE",
"79 714 LINE",
"79 0 LINE"
);
},
{
closed = 1;
nodes = (
"205 523 LINE",
"191 483 LINE",
"338 624 LINE",
"297 606 LINE",
"377 579 OFFCURVE",
"443 516 OFFCURVE",
"443 424 CURVE SMOOTH",
"443 332 OFFCURVE",
"377 269 OFFCURVE",
"297 242 CURVE",
"339 225 LINE",
"191 365 LINE",
"205 325 LINE"
);
}
);
width = 604.55738;
}
);
unicode = 1C5E;
},
{
glyphname = uni1C5F;
lastChange = "2019-10-15 17:35:40 +0000";
layers = (
{
layerId = UUID0;
paths = (
{
closed = 1;
nodes = (
"336 -10 OFFCURVE",
"475 73 OFFCURVE",
"475 350 CURVE SMOOTH",
"475 457 OFFCURVE",
"429 543 OFFCURVE",
"422 555 CURVE",
"401 520 LINE",
"483 643 LINE",
"448 622 LINE",
"499 582 OFFCURVE",
"554 465 OFFCURVE",
"554 350 CURVE SMOOTH",
"554 157 OFFCURVE",
"459 24 OFFCURVE",
"439 0 CURVE",
"536 0 LINE",
"552 17 OFFCURVE",
"642 144 OFFCURVE",
"642 350 CURVE SMOOTH",
"642 487 OFFCURVE",
"583 656 OFFCURVE",
"442 725 CURVE",
"355 594 LINE",
"394 604 LINE",
"346 674 OFFCURVE",
"281 725 OFFCURVE",
"206 725 CURVE SMOOTH",
"124 725 OFFCURVE",
"72 675 OFFCURVE",
"63 668 CURVE",
"145 456 LINE",
"171 493 LINE",
"47 493 LINE",
"63 416 LINE",
"135 416 LINE SMOOTH",
"185 416 OFFCURVE",
"208 447 OFFCURVE",
"208 485 CURVE SMOOTH",
"208 499 OFFCURVE",
"205 513 OFFCURVE",
"199 528 CURVE SMOOTH",
"144 671 LINE",
"150 629 LINE",
"168 641 OFFCURVE",
"179 650 OFFCURVE",
"205 650 CURVE SMOOTH",
"258 650 OFFCURVE",
"312 599 OFFCURVE",
"347 529 CURVE",
"353 590 LINE",
"51 136 LINE",
"51 62 OFFCURVE",
"133 -10 OFFCURVE",
"229 -10 CURVE SMOOTH"
);
},
{
closed = 1;
nodes = (
"177 65 OFFCURVE",
"138 108 OFFCURVE",
"129 132 CURVE",
"113 89 LINE",
"392 506 LINE",
"368 476 LINE",
"377 457 OFFCURVE",
"391 411 OFFCURVE",
"391 350 CURVE SMOOTH",
"391 258 OFFCURVE",
"365 65 OFFCURVE",
"229 65 CURVE SMOOTH"
);
}
);
width = 692;
},
{
layerId = "9C387D97-1150-45A6-AF8D-2AAB62D95D5D";
paths = (
{
closed = 1;
nodes = (
"369 -15 OFFCURVE",
"502 115 OFFCURVE",
"502 333 CURVE SMOOTH",
"502 411 OFFCURVE",
"487 473 OFFCURVE",
"454 543 CURVE",
"461 492 LINE",
"516 562 LINE",
"477 562 LINE",
"529 524 OFFCURVE",
"571 436 OFFCURVE",
"571 333 CURVE SMOOTH",
"571 204 OFFCURVE",
"519 86 OFFCURVE",
"450 0 CURVE",
"613 0 LINE",
"661 59 OFFCURVE",
"716 196 OFFCURVE",
"716 333 CURVE SMOOTH",
"716 504 OFFCURVE",
"618 656 OFFCURVE",
"495 729 CURVE",
"384 588 LINE",
"422 599 LINE",
"354 702 OFFCURVE",
"277 729 OFFCURVE",
"191 729 CURVE SMOOTH",
"140 729 OFFCURVE",
"81 710 OFFCURVE",
"39 680 CURVE",
"97 492 LINE",
"128 524 LINE",
"34 524 LINE",
"54 414 LINE",
"145 414 LINE SMOOTH",
"191 414 OFFCURVE",
"215 435 OFFCURVE",
"215 477 CURVE SMOOTH",
"215 489 OFFCURVE",
"213 502 OFFCURVE",
"209 514 CURVE SMOOTH",
"164 654 LINE",
"137 581 LINE",
"158 595 OFFCURVE",
"176 602 OFFCURVE",
"195 602 CURVE SMOOTH",
"246 602 OFFCURVE",
"311 574 OFFCURVE",
"333 491 CURVE",
"349 547 LINE",
"34 144 LINE",
"35 67 OFFCURVE",
"105 -15 OFFCURVE",
"232 -15 CURVE SMOOTH"
);
},
{
closed = 1;
nodes = (
"197 113 OFFCURVE",
"167 138 OFFCURVE",
"152 175 CURVE",
"171 120 LINE",
"403 424 LINE",
"359 450 LINE",
"366 405 OFFCURVE",
"370 374 OFFCURVE",
"370 343 CURVE SMOOTH",
"370 199 OFFCURVE",
"304 113 OFFCURVE",
"232 113 CURVE SMOOTH"
);
}
);
width = 763;
},
{
associatedMasterId = "9C387D97-1150-45A6-AF8D-2AAB62D95D5D";
layerId = "7A52987C-3A69-4FFC-9E75-7339A7CB0132";
name = "Oct 4 19, 17:16";
paths = (
{
closed = 1;
nodes = (
"137 172 LINE",
"493 601 LINE",
"412 547 LINE",
"458 501 OFFCURVE",
"486 443 OFFCURVE",
"486 341 CURVE SMOOTH",
"486 200 OFFCURVE",
"440 96 OFFCURVE",
"369 0 CURVE",
"538 0 LINE",
"582 60 OFFCURVE",
"632 210 OFFCURVE",
"632 341 CURVE SMOOTH",
"632 505 OFFCURVE",
"532 651 OFFCURVE",
"428 729 CURVE",
"-8 192 LINE"
);
},
{
closed = 1;
nodes = (
"-8 192 LINE",
"-8 67 OFFCURVE",
"78 -11 OFFCURVE",
"188 -11 CURVE SMOOTH",
"323 -11 OFFCURVE",
"428 112 OFFCURVE",
"428 341 CURVE SMOOTH",
"428 536 OFFCURVE",
"315 729 OFFCURVE",
"108 729 CURVE",
"93 601 LINE",
"103 604 OFFCURVE",
"126 611 OFFCURVE",
"142 611 CURVE SMOOTH",
"206 611 OFFCURVE",
"297 506 OFFCURVE",
"297 341 CURVE SMOOTH",
"297 159 OFFCURVE",
"233 124 OFFCURVE",
"188 124 CURVE SMOOTH",
"158 124 OFFCURVE",
"145 146 OFFCURVE",
"137 172 CURVE"
);
},
{
closed = 1;
nodes = (
"74 729 OFFCURVE",
"30 718 OFFCURVE",
"-6 696 CURVE",
"38 542 LINE",
"-28 542 LINE",
"-8 416 LINE",
"100 416 LINE SMOOTH",
"150 416 OFFCURVE",
"185 450 OFFCURVE",
"163 521 CURVE SMOOTH",
"129 629 LINE",
"108 729 LINE"
);
}
);
width = 600;
},
{
associatedMasterId = "9C387D97-1150-45A6-AF8D-2AAB62D95D5D";
layerId = "B51DD071-988C-4CCD-9F3C-A3D9505232E4";
name = "Oct 4 19, 17:17";
paths = (
{
closed = 1;
nodes = (
"137 172 LINE",
"493 601 LINE",
"412 557 LINE",
"460 496 OFFCURVE",
"486 425 OFFCURVE",
"486 341 CURVE SMOOTH",
"486 200 OFFCURVE",
"444 89 OFFCURVE",
"369 0 CURVE",
"538 0 LINE",
"582 60 OFFCURVE",
"632 210 OFFCURVE",
"632 341 CURVE SMOOTH",
"632 505 OFFCURVE",
"532 651 OFFCURVE",
"428 729 CURVE",
"-8 192 LINE"
);
},
{
closed = 1;
nodes = (
"-8 192 LINE",
"-8 67 OFFCURVE",
"78 -11 OFFCURVE",
"188 -11 CURVE SMOOTH",
"323 -11 OFFCURVE",
"438 122 OFFCURVE",
"438 351 CURVE SMOOTH",
"438 546 OFFCURVE",
"305 729 OFFCURVE",
"108 729 CURVE",
"93 601 LINE",
"103 604 OFFCURVE",
"126 611 OFFCURVE",
"142 611 CURVE SMOOTH",
"196 611 OFFCURVE",
"307 516 OFFCURVE",
"307 351 CURVE SMOOTH",
"307 169 OFFCURVE",
"233 124 OFFCURVE",
"188 124 CURVE SMOOTH",
"158 124 OFFCURVE",
"145 146 OFFCURVE",
"137 172 CURVE"
);
},
{
closed = 1;
nodes = (
"74 729 OFFCURVE",
"30 718 OFFCURVE",
"-6 696 CURVE",
"38 542 LINE",
"-28 542 LINE",
"-8 416 LINE",
"100 416 LINE SMOOTH",
"150 416 OFFCURVE",
"185 450 OFFCURVE",
"163 521 CURVE SMOOTH",
"129 629 LINE",
"108 729 LINE"
);
}
);
width = 600;
},
{
associatedMasterId = UUID0;
layerId = "51891153-2758-4AC1-8C43-286220670768";
name = "Oct 4 19, 17:17";
paths = (
{
closed = 1;
nodes = (
"336 -10 OFFCURVE",
"475 73 OFFCURVE",
"475 350 CURVE SMOOTH",
"475 466 OFFCURVE",
"419 560 OFFCURVE",
"422 555 CURVE",
"401 520 LINE",
"483 643 LINE",
"448 622 LINE",
"499 582 OFFCURVE",
"554 465 OFFCURVE",
"554 350 CURVE SMOOTH",
"554 157 OFFCURVE",
"459 24 OFFCURVE",
"439 0 CURVE",
"536 0 LINE",
"552 17 OFFCURVE",
"642 144 OFFCURVE",
"642 350 CURVE SMOOTH",
"642 487 OFFCURVE",
"583 656 OFFCURVE",
"442 725 CURVE",
"355 594 LINE",
"394 604 LINE",
"346 674 OFFCURVE",
"281 725 OFFCURVE",
"206 725 CURVE SMOOTH",
"124 725 OFFCURVE",
"72 675 OFFCURVE",
"63 668 CURVE",
"145 456 LINE",
"171 493 LINE",
"47 493 LINE",
"63 416 LINE",
"135 416 LINE SMOOTH",
"185 416 OFFCURVE",
"208 447 OFFCURVE",
"208 485 CURVE SMOOTH",
"208 499 OFFCURVE",
"205 513 OFFCURVE",
"199 528 CURVE SMOOTH",
"144 671 LINE",
"164 644 LINE",
"148 618 OFFCURVE",
"162 650 OFFCURVE",
"205 650 CURVE SMOOTH",
"258 650 OFFCURVE",
"312 599 OFFCURVE",
"347 529 CURVE",
"353 590 LINE",
"51 136 LINE",
"51 62 OFFCURVE",
"133 -10 OFFCURVE",
"229 -10 CURVE SMOOTH"
);
},
{
closed = 1;
nodes = (
"172 65 OFFCURVE",
"122 124 OFFCURVE",
"137 130 CURVE",
"113 89 LINE",
"392 506 LINE",
"370 473 LINE",
"365 483 OFFCURVE",
"391 431 OFFCURVE",
"391 350 CURVE SMOOTH",
"391 258 OFFCURVE",
"365 65 OFFCURVE",
"229 65 CURVE SMOOTH"
);
}
);
width = 692;
},
{
associatedMasterId = "9C387D97-1150-45A6-AF8D-2AAB62D95D5D";
layerId = "D79C1BAB-BE8A-477E-9F5A-2C7DA0B16E13";
name = "Oct 5 19, 16:04";
paths = (
{
closed = 1;
nodes = (
"413 -11 OFFCURVE",
"518 136 OFFCURVE",
"518 333 CURVE SMOOTH",
"518 411 OFFCURVE",
"506 473 OFFCURVE",
"480 529 CURVE",
"451 473 LINE",
"531 567 LINE",
"502 572 LINE",
"546 532 OFFCURVE",
"582 436 OFFCURVE",
"582 333 CURVE SMOOTH",
"582 194 OFFCURVE",
"528 86 OFFCURVE",
"459 0 CURVE",
"619 0 LINE",
"677 81 OFFCURVE",
"712 196 OFFCURVE",
"712 333 CURVE SMOOTH",
"712 500 OFFCURVE",
"638 656 OFFCURVE",
"515 727 CURVE",
"400 588 LINE",
"435 598 LINE",
"374 689 OFFCURVE",
"308 729 OFFCURVE",
"216 729 CURVE SMOOTH",
"167 729 OFFCURVE",
"123 716 OFFCURVE",
"76 686 CURVE",
"128 492 LINE",
"161 524 LINE",
"50 524 LINE",
"70 414 LINE",
"178 414 LINE SMOOTH",
"224 414 OFFCURVE",
"248 435 OFFCURVE",
"248 477 CURVE SMOOTH",
"248 489 OFFCURVE",
"245 502 OFFCURVE",
"242 514 CURVE SMOOTH",
"202 654 LINE",
"170 588 LINE",
"191 602 OFFCURVE",
"209 611 OFFCURVE",
"231 611 CURVE SMOOTH",
"279 611 OFFCURVE",
"329 567 OFFCURVE",
"358 485 CURVE",
"374 555 LINE",
"57 171 LINE",
"58 67 OFFCURVE",
"149 -11 OFFCURVE",
"266 -11 CURVE SMOOTH"
);
},
{
closed = 1;
nodes = (
"230 111 OFFCURVE",
"192 138 OFFCURVE",
"175 182 CURVE",
"173 130 LINE",
"405 410 LINE",
"382 440 LINE",
"389 395 OFFCURVE",
"393 364 OFFCURVE",
"393 333 CURVE SMOOTH",
"393 211 OFFCURVE",
"337 111 OFFCURVE",
"267 111 CURVE SMOOTH"
);
}
);
width = 777;
},
{
associatedMasterId = UUID0;
layerId = "7E95A2A8-5900-43B9-A104-91CF3A0C6271";
width = 600;
},
{
layerId = "6E1A9BF3-6A06-44F2-8E17-ACCB47751CD5";
paths = (
{
closed = 1;
nodes = (
"346 -11 OFFCURVE",
"483 85 OFFCURVE",
"483 345 CURVE SMOOTH",
"483 443 OFFCURVE",
"446 522 OFFCURVE",
"431 551 CURVE",
"419 512 LINE",
"493 619 LINE",
"457 604 LINE",
"508 565 OFFCURVE",
"559 456 OFFCURVE",
"559 345 CURVE SMOOTH",
"559 171 OFFCURVE",
"477 42 OFFCURVE",
"442 0 CURVE",
"559 0 LINE",
"584 29 OFFCURVE",
"664 159 OFFCURVE",
"664 345 CURVE SMOOTH",
"664 492 OFFCURVE",
"593 656 OFFCURVE",
"458 726 CURVE",
"364 592 LINE",
"402 603 LINE",
"348 682 OFFCURVE",
"280 726 OFFCURVE",
"202 726 CURVE SMOOTH",
"129 726 OFFCURVE",
"75 685 OFFCURVE",
"56 672 CURVE",
"131 467 LINE",
"158 502 LINE",
"43 502 LINE",
"60 415 LINE",
"138 415 LINE SMOOTH",
"187 415 OFFCURVE",
"210 443 OFFCURVE",
"210 483 CURVE SMOOTH",
"210 496 OFFCURVE",
"207 510 OFFCURVE",
"202 524 CURVE SMOOTH",
"150 666 LINE",
"146 615 LINE",
"165 627 OFFCURVE",
"178 636 OFFCURVE",
"202 636 CURVE SMOOTH",
"254 636 OFFCURVE",
"312 592 OFFCURVE",
"343 518 CURVE",
"352 577 LINE",
"46 138 LINE",
"46 63 OFFCURVE",
"125 -11 OFFCURVE",
"230 -11 CURVE SMOOTH"
);
},
{
closed = 1;
nodes = (
"183 79 OFFCURVE",
"147 117 OFFCURVE",
"136 145 CURVE",
"130 98 LINE",
"395 482 LINE",
"365 468 LINE",
"374 442 OFFCURVE",
"385 400 OFFCURVE",
"385 348 CURVE SMOOTH",
"385 241 OFFCURVE",
"347 79 OFFCURVE",
"230 79 CURVE SMOOTH"
);
}
);
width = 712.95082;
},
{
layerId = "38768EF3-7794-49DB-B097-CE6891208EBB";
paths = (
{
closed = 1;
nodes = (
"357 -13 OFFCURVE",
"492 99 OFFCURVE",
"492 339 CURVE SMOOTH",
"492 428 OFFCURVE",
"465 499 OFFCURVE",
"442 547 CURVE",
"439 503 LINE",
"504 592 LINE",
"466 584 LINE",
"518 546 OFFCURVE",
"565 447 OFFCURVE",
"565 339 CURVE SMOOTH",
"565 186 OFFCURVE",
"497 62 OFFCURVE",
"446 0 CURVE",
"584 0 LINE",
"620 43 OFFCURVE",
"688 176 OFFCURVE",
"688 339 CURVE SMOOTH",
"688 498 OFFCURVE",
"605 656 OFFCURVE",
"475 727 CURVE",
"373 590 LINE",
"411 601 LINE",
"351 691 OFFCURVE",
"279 727 OFFCURVE",
"197 727 CURVE SMOOTH",
"134 727 OFFCURVE",
"78 697 OFFCURVE",
"48 676 CURVE",
"115 479 LINE",
"144 512 LINE",
"39 512 LINE",
"57 415 LINE",
"141 415 LINE SMOOTH",
"189 415 OFFCURVE",
"212 439 OFFCURVE",
"212 480 CURVE SMOOTH",
"212 493 OFFCURVE",
"210 506 OFFCURVE",
"205 519 CURVE SMOOTH",
"157 660 LINE",
"142 599 LINE",
"162 612 OFFCURVE",
"177 620 OFFCURVE",
"199 620 CURVE SMOOTH",
"250 620 OFFCURVE",
"312 584 OFFCURVE",
"338 505 CURVE",
"351 563 LINE",
"40 141 LINE",
"41 65 OFFCURVE",
"116 -13 OFFCURVE",
"231 -13 CURVE SMOOTH"
);
},
{
closed = 1;
nodes = (
"190 95 OFFCURVE",
"156 127 OFFCURVE",
"143 159 CURVE",
"149 108 LINE",
"399 455 LINE",
"362 460 LINE",
"370 425 OFFCURVE",
"378 388 OFFCURVE",
"378 346 CURVE SMOOTH",
"378 221 OFFCURVE",
"327 95 OFFCURVE",
"231 95 CURVE SMOOTH"
);
}
);
width = 736.22951;
}
);
unicode = 1C5F;
},
{
glyphname = uni1C60;
lastChange = "2019-10-15 17:35:40 +0000";
layers = (
{
layerId = UUID0;
paths = (
{
closed = 1;
nodes = (
"402 28 OFFCURVE",
"539 132 OFFCURVE",
"539 291 CURVE SMOOTH",
"539 450 OFFCURVE",
"402 554 OFFCURVE",
"286 592 CURVE",
"137 455 LINE",
"166 442 LINE",
"166 715 LINE",
"80 715 LINE",
"80 176 LINE",
"286 -10 LINE"
);
},
{
closed = 1;
nodes = (
"137 370 LINE",
"315 534 LINE",
"267 511 LINE",
"339 499 OFFCURVE",
"450 423 OFFCURVE",
"450 291 CURVE SMOOTH",
"450 159 OFFCURVE",
"342 86 OFFCURVE",
"274 75 CURVE",
"321 53 LINE",
"137 218 LINE",
"166 152 LINE",
"166 437 LINE"
);
}
);
width = 579;
},
{
layerId = "9C387D97-1150-45A6-AF8D-2AAB62D95D5D";
paths = (
{
closed = 1;
nodes = (
"470 32 OFFCURVE",
"580 136 OFFCURVE",
"580 290 CURVE SMOOTH",
"580 444 OFFCURVE",
"470 548 OFFCURVE",
"325 595 CURVE",
"188 462 LINE",
"216 432 LINE",
"216 714 LINE",
"65 714 LINE",
"65 200 LINE",
"305 -15 LINE"
);
},
{
closed = 1;
nodes = (
"210 340 LINE",
"340 463 LINE",
"302 448 LINE",
"387 413 OFFCURVE",
"426 357 OFFCURVE",
"426 290 CURVE SMOOTH",
"426 223 OFFCURVE",
"387 167 OFFCURVE",
"302 132 CURVE",
"340 125 LINE",
"210 248 LINE",
"216 216 LINE",
"216 364 LINE"
);
}
);
width = 607;
},
{
associatedMasterId = UUID0;
layerId = "7E95A2A8-5900-43B9-A104-91CF3A0C6271";
width = 600;
},
{
layerId = "6E1A9BF3-6A06-44F2-8E17-ACCB47751CD5";
paths = (
{
closed = 1;
nodes = (
"422 29 OFFCURVE",
"551 133 OFFCURVE",
"551 291 CURVE SMOOTH",
"551 448 OFFCURVE",
"422 552 OFFCURVE",
"298 593 CURVE",
"152 457 LINE",
"181 439 LINE",
"181 715 LINE",
"76 715 LINE",
"76 183 LINE",
"292 -11 LINE"
);
},
{
closed = 1;
nodes = (
"159 361 LINE",
"322 513 LINE",
"277 492 LINE",
"353 474 OFFCURVE",
"443 404 OFFCURVE",
"443 291 CURVE SMOOTH",
"443 178 OFFCURVE",
"355 110 OFFCURVE",
"282 92 CURVE",
"327 74 LINE",
"159 227 LINE",
"181 171 LINE",
"181 415 LINE"
);
}
);
width = 587.2623;
},
{
layerId = "38768EF3-7794-49DB-B097-CE6891208EBB";
paths = (
{
closed = 1;
nodes = (
"444 30 OFFCURVE",
"564 134 OFFCURVE",
"564 291 CURVE SMOOTH",
"564 446 OFFCURVE",
"444 550 OFFCURVE",
"311 594 CURVE",
"169 459 LINE",
"197 436 LINE",
"197 715 LINE",
"71 715 LINE",
"71 191 LINE",
"298 -13 LINE"
);
},
{
closed = 1;
nodes = (
"183 351 LINE",
"330 490 LINE",
"289 472 LINE",
"369 446 OFFCURVE",
"435 382 OFFCURVE",
"435 291 CURVE SMOOTH",
"435 199 OFFCURVE",
"370 137 OFFCURVE",
"291 111 CURVE",
"333 98 LINE",
"183 237 LINE",
"197 192 LINE",
"197 391 LINE"
);
}
);
width = 596.44262;
}
);
unicode = 1C60;
},
{
glyphname = uni1C64;
lastChange = "2020-10-21 14:49:54 +0000";
layers = (
{
layerId = UUID0;
paths = (
{
closed = 1;
nodes = (
"420 458 LINE",
"397 466 LINE",
"397 0 LINE",
"473 0 LINE",
"473 573 LINE",
"450 501 LINE",
"523 604 LINE",
"506 625 OFFCURVE",
"429 725 OFFCURVE",
"295 725 CURVE SMOOTH",
"212 725 OFFCURVE",
"133 681 OFFCURVE",
"68 597 CURVE",
"124 543 LINE",
"174 610 OFFCURVE",
"238 650 OFFCURVE",
"295 650 CURVE SMOOTH",
"375 650 OFFCURVE",
"422 601 OFFCURVE",
"440 575 CURVE",
"444 630 LINE",
"30 47 LINE",
"95 0 LINE"
);
}
);
width = 561;
},
{
layerId = "9C387D97-1150-45A6-AF8D-2AAB62D95D5D";
paths = (
{
closed = 1;
nodes = (
"392 361 LINE",
"374 369 LINE",
"374 0 LINE",
"509 0 LINE",
"509 542 LINE",
"481 462 LINE",
"571 581 LINE",
"507 659 OFFCURVE",
"430 729 OFFCURVE",
"305 729 CURVE SMOOTH",
"205 729 OFFCURVE",
"113 687 OFFCURVE",
"44 581 CURVE",
"138 499 LINE",
"185 573 OFFCURVE",
"238 603 OFFCURVE",
"305 603 CURVE SMOOTH",
"360 603 OFFCURVE",
"390 575 OFFCURVE",
"426 536 CURVE",
"426 601 LINE",
"17 82 LINE",
"124 -3 LINE"
);
}
);
width = 596;
},
{
associatedMasterId = UUID0;
layerId = "7E95A2A8-5900-43B9-A104-91CF3A0C6271";
width = 600;
},
{
associatedMasterId = UUID0;
layerId = "19D158CC-4614-4AF4-A0FC-C3FF1F6854D1";
name = "Oct 15 19, 20:31";
paths = (
{
closed = 1;
nodes = (
"420 458 LINE",
"397 466 LINE",
"397 0 LINE",
"473 0 LINE",
"473 573 LINE",
"450 501 LINE",
"523 604 LINE",
"506 625 OFFCURVE",
"429 725 OFFCURVE",
"295 725 CURVE SMOOTH",
"167 725 OFFCURVE",
"89 622 OFFCURVE",
"68 597 CURVE",
"124 543 LINE",
"128 548 OFFCURVE",
"200 650 OFFCURVE",
"295 650 CURVE SMOOTH",
"383 650 OFFCURVE",
"430 586 OFFCURVE",
"421 599 CURVE",
"444 630 LINE",
"30 47 LINE",
"95 0 LINE"
);
}
);
visible = 1;
width = 561;
},
{
layerId = "6E1A9BF3-6A06-44F2-8E17-ACCB47751CD5";
paths = (
{
closed = 1;
nodes = (
"412 429 LINE",
"390 437 LINE",
"390 0 LINE",
"484 0 LINE",
"484 564 LINE",
"459 489 LINE",
"537 597 LINE",
"506 635 OFFCURVE",
"429 726 OFFCURVE",
"298 726 CURVE SMOOTH",
"210 726 OFFCURVE",
"127 683 OFFCURVE",
"61 592 CURVE",
"128 530 LINE",
"177 599 OFFCURVE",
"238 636 OFFCURVE",
"298 636 CURVE SMOOTH",
"371 636 OFFCURVE",
"413 593 OFFCURVE",
"436 563 CURVE",
"439 621 LINE",
"26 57 LINE",
"104 -1 LINE"
);
}
);
width = 571.32787;
},
{
layerId = "38768EF3-7794-49DB-B097-CE6891208EBB";
paths = (
{
closed = 1;
nodes = (
"403 397 LINE",
"383 405 LINE",
"383 0 LINE",
"496 0 LINE",
"496 554 LINE",
"469 476 LINE",
"553 590 LINE",
"506 646 OFFCURVE",
"429 727 OFFCURVE",
"301 727 CURVE SMOOTH",
"208 727 OFFCURVE",
"120 685 OFFCURVE",
"53 587 CURVE",
"133 516 LINE",
"181 587 OFFCURVE",
"238 621 OFFCURVE",
"301 621 CURVE SMOOTH",
"366 621 OFFCURVE",
"402 585 OFFCURVE",
"431 550 CURVE",
"433 612 LINE",
"22 69 LINE",
"113 -2 LINE"
);
}
);
width = 582.80328;
}
);
unicode = 1C64;
},
{
glyphname = uni1C66;
lastChange = "2019-10-15 17:35:40 +0000";
layers = (
{
layerId = UUID0;
paths = (
{
closed = 1;
nodes = (
"406 192 LINE",
"356 192 LINE",
"518 -10 LINE",
"532 3 OFFCURVE",
"713 154 OFFCURVE",
"713 371 CURVE SMOOTH",
"713 584 OFFCURVE",
"570 707 OFFCURVE",
"551 725 CURVE",
"495 659 LINE",
"514 644 OFFCURVE",
"624 536 OFFCURVE",
"624 371 CURVE SMOOTH",
"624 208 OFFCURVE",
"518 117 OFFCURVE",
"511 107 CURVE",
"540 80 LINE",
"381 281 LINE",
"222 80 LINE",
"251 107 LINE",
"244 117 OFFCURVE",
"138 208 OFFCURVE",
"138 371 CURVE SMOOTH",
"138 536 OFFCURVE",
"248 644 OFFCURVE",
"267 659 CURVE",
"211 725 LINE",
"192 707 OFFCURVE",
"49 584 OFFCURVE",
"49 371 CURVE SMOOTH",
"49 154 OFFCURVE",
"230 3 OFFCURVE",
"244 -10 CURVE"
);
}
);
width = 762;
},
{
layerId = "9C387D97-1150-45A6-AF8D-2AAB62D95D5D";
paths = (
{
closed = 1;
nodes = (
"434 189 LINE",
"380 189 LINE",
"546 -15 LINE",
"688 77 OFFCURVE",
"778 219 OFFCURVE",
"778 378 CURVE SMOOTH",
"778 514 OFFCURVE",
"738 618 OFFCURVE",
"649 729 CURVE",
"526 630 LINE",
"578 573 OFFCURVE",
"623 485 OFFCURVE",
"623 388 CURVE SMOOTH",
"623 276 OFFCURVE",
"578 201 OFFCURVE",
"510 163 CURVE",
"581 140 LINE",
"407 339 LINE",
"232 140 LINE",
"308 163 LINE",
"235 201 OFFCURVE",
"191 276 OFFCURVE",
"191 388 CURVE SMOOTH",
"191 485 OFFCURVE",
"235 573 OFFCURVE",
"287 630 CURVE",
"165 729 LINE",
"75 618 OFFCURVE",
"36 514 OFFCURVE",
"36 378 CURVE SMOOTH",
"36 219 OFFCURVE",
"126 77 OFFCURVE",
"268 -15 CURVE"
);
}
);
width = 814;
},
{
associatedMasterId = UUID0;
layerId = "7E95A2A8-5900-43B9-A104-91CF3A0C6271";
width = 600;
},
{
layerId = "6E1A9BF3-6A06-44F2-8E17-ACCB47751CD5";
paths = (
{
closed = 1;
nodes = (
"414 191 LINE",
"363 191 LINE",
"526 -11 LINE",
"578 25 OFFCURVE",
"732 173 OFFCURVE",
"732 373 CURVE SMOOTH",
"732 563 OFFCURVE",
"620 681 OFFCURVE",
"580 726 CURVE",
"504 650 LINE",
"533 623 OFFCURVE",
"624 521 OFFCURVE",
"624 376 CURVE SMOOTH",
"624 228 OFFCURVE",
"536 142 OFFCURVE",
"511 124 CURVE",
"552 98 LINE",
"389 298 LINE",
"225 98 LINE",
"268 124 LINE",
"241 142 OFFCURVE",
"154 228 OFFCURVE",
"154 376 CURVE SMOOTH",
"154 521 OFFCURVE",
"244 623 OFFCURVE",
"273 650 CURVE",
"197 726 LINE",
"157 681 OFFCURVE",
"45 563 OFFCURVE",
"45 373 CURVE SMOOTH",
"45 173 OFFCURVE",
"199 25 OFFCURVE",
"251 -11 CURVE"
);
}
);
width = 777.34426;
},
{
layerId = "38768EF3-7794-49DB-B097-CE6891208EBB";
paths = (
{
closed = 1;
nodes = (
"423 190 LINE",
"371 190 LINE",
"535 -13 LINE",
"629 49 OFFCURVE",
"753 194 OFFCURVE",
"753 375 CURVE SMOOTH",
"753 540 OFFCURVE",
"675 652 OFFCURVE",
"612 727 CURVE",
"514 641 LINE",
"554 600 OFFCURVE",
"624 504 OFFCURVE",
"624 382 CURVE SMOOTH",
"624 250 OFFCURVE",
"556 169 OFFCURVE",
"511 142 CURVE",
"565 118 LINE",
"397 317 LINE",
"228 118 LINE",
"287 142 LINE",
"238 169 OFFCURVE",
"171 250 OFFCURVE",
"171 382 CURVE SMOOTH",
"171 504 OFFCURVE",
"240 600 OFFCURVE",
"280 641 CURVE",
"182 727 LINE",
"119 652 OFFCURVE",
"41 540 OFFCURVE",
"41 375 CURVE SMOOTH",
"41 194 OFFCURVE",
"165 49 OFFCURVE",
"259 -13 CURVE"
);
}
);
width = 794.39344;
}
);
unicode = 1C66;
},
{
glyphname = uni1C68;
lastChange = "2019-10-15 17:35:40 +0000";
layers = (
{
guideLines = (
{
angle = 270;
position = "{45, 642}";
}
);
layerId = UUID0;
paths = (
{
closed = 1;
nodes = (
"183 169 LINE",
"133 169 LINE",
"276 -10 LINE",
"399 33 OFFCURVE",
"493 148 OFFCURVE",
"493 308 CURVE SMOOTH",
"493 617 OFFCURVE",
"203 712 OFFCURVE",
"46 725 CURVE",
"46 641 LINE",
"246 615 OFFCURVE",
"404 513 OFFCURVE",
"404 303 CURVE SMOOTH",
"404 225 OFFCURVE",
"381 198 OFFCURVE",
"377 188 CURVE",
"406 165 LINE",
"91 560 LINE",
"40 515 LINE",
"370 101 LINE",
"361 159 LINE",
"340 103 OFFCURVE",
"278 78 OFFCURVE",
"298 85 CURVE",
"320 54 LINE",
"158 257 LINE",
"40 109 LINE",
"40 -10 LINE"
);
}
);
width = 542;
},
{
guideLines = (
{
angle = 270;
position = "{7, 160}";
},
{
angle = 270;
position = "{35, 597}";
}
);
layerId = "9C387D97-1150-45A6-AF8D-2AAB62D95D5D";
paths = (
{
closed = 1;
nodes = (
"168 147 LINE",
"110 147 LINE",
"253 -15 LINE",
"390 35 OFFCURVE",
"508 149 OFFCURVE",
"508 324 CURVE SMOOTH",
"508 549 OFFCURVE",
"323 722 OFFCURVE",
"35 729 CURVE",
"35 597 LINE",
"226 591 OFFCURVE",
"365 475 OFFCURVE",
"365 316 CURVE SMOOTH",
"365 286 OFFCURVE",
"360 263 OFFCURVE",
"354 244 CURVE",
"393 234 LINE",
"113 542 LINE",
"29 466 LINE",
"344 125 LINE",
"324 184 LINE",
"303 160 OFFCURVE",
"281 133 OFFCURVE",
"242 120 CURVE",
"306 107 LINE",
"140 286 LINE",
"27 170 LINE",
"27 -12 LINE"
);
}
);
width = 544;
},
{
associatedMasterId = UUID0;
layerId = "7E95A2A8-5900-43B9-A104-91CF3A0C6271";
width = 600;
},
{
layerId = "6E1A9BF3-6A06-44F2-8E17-ACCB47751CD5";
paths = (
{
closed = 1;
nodes = (
"179 163 LINE",
"126 163 LINE",
"269 -11 LINE",
"396 34 OFFCURVE",
"497 148 OFFCURVE",
"497 313 CURVE SMOOTH",
"497 597 OFFCURVE",
"238 715 OFFCURVE",
"43 726 CURVE",
"43 628 LINE",
"240 608 OFFCURVE",
"392 502 OFFCURVE",
"392 307 CURVE SMOOTH",
"392 243 OFFCURVE",
"375 217 OFFCURVE",
"370 205 CURVE",
"402 185 LINE",
"97 555 LINE",
"37 501 LINE",
"362 108 LINE",
"350 166 LINE",
"329 120 OFFCURVE",
"279 94 OFFCURVE",
"281 95 CURVE",
"316 70 LINE",
"153 266 LINE",
"36 127 LINE",
"36 -11 LINE"
);
}
);
width = 542.59016;
},
{
layerId = "38768EF3-7794-49DB-B097-CE6891208EBB";
paths = (
{
closed = 1;
nodes = (
"174 156 LINE",
"119 156 LINE",
"262 -13 LINE",
"393 34 OFFCURVE",
"502 148 OFFCURVE",
"502 318 CURVE SMOOTH",
"502 575 OFFCURVE",
"278 718 OFFCURVE",
"39 727 CURVE",
"39 614 LINE",
"233 600 OFFCURVE",
"379 489 OFFCURVE",
"379 311 CURVE SMOOTH",
"379 263 OFFCURVE",
"368 238 OFFCURVE",
"363 223 CURVE",
"398 208 LINE",
"104 549 LINE",
"33 485 LINE",
"354 116 LINE",
"338 174 LINE",
"317 139 OFFCURVE",
"280 112 OFFCURVE",
"263 107 CURVE",
"311 87 LINE",
"147 275 LINE",
"32 147 LINE",
"32 -11 LINE"
);
}
);
width = 543.2459;
}
);
unicode = 1C68;
},
{
glyphname = uni1C69;
lastChange = "2019-10-15 17:35:40 +0000";
layers = (
{
guideLines = (
{
angle = 270;
position = "{300, 82}";
}
);
layerId = UUID0;
paths = (
{
closed = 1;
nodes = (
"410 28 OFFCURVE",
"505 151 OFFCURVE",
"505 307 CURVE SMOOTH",
"505 466 OFFCURVE",
"410 568 OFFCURVE",
"294 606 CURVE",
"256 596 OFFCURVE",
"174 523 OFFCURVE",
"158 460 CURVE",
"174 456 LINE",
"174 715 LINE",
"88 715 LINE",
"88 355 LINE",
"174 355 LINE",
"206 452 OFFCURVE",
"258 519 OFFCURVE",
"316 527 CURVE",
"263 531 LINE",
"318 522 OFFCURVE",
"416 460 OFFCURVE",
"416 307 CURVE SMOOTH",
"416 174 OFFCURVE",
"336 93 OFFCURVE",
"286 77 CURVE",
"330 57 LINE",
"130 228 LINE",
"80 172 LINE",
"294 -10 LINE"
);
}
);
width = 545;
},
{
guideLines = (
{
angle = 270;
position = "{321, 441}";
}
);
layerId = "9C387D97-1150-45A6-AF8D-2AAB62D95D5D";
paths = (
{
closed = 1;
nodes = (
"438 37 OFFCURVE",
"547 145 OFFCURVE",
"547 290 CURVE SMOOTH",
"547 458 OFFCURVE",
"449 553 OFFCURVE",
"345 595 CURVE",
"288 568 OFFCURVE",
"238 527 OFFCURVE",
"199 464 CURVE",
"223 432 LINE",
"223 714 LINE",
"72 714 LINE",
"72 340 LINE",
"218 340 LINE",
"247 398 OFFCURVE",
"291 445 OFFCURVE",
"360 471 CURVE",
"282 468 LINE",
"377 414 OFFCURVE",
"393 357 OFFCURVE",
"393 290 CURVE SMOOTH",
"393 223 OFFCURVE",
"357 167 OFFCURVE",
"290 133 CURVE",
"361 130 LINE",
"158 286 LINE",
"72 185 LINE",
"336 -15 LINE"
);
}
);
width = 574;
},
{
associatedMasterId = UUID0;
layerId = "7E95A2A8-5900-43B9-A104-91CF3A0C6271";
width = 600;
},
{
associatedMasterId = UUID0;
guideLines = (
{
angle = 270;
position = "{300, 82}";
}
);
layerId = "CC23A679-F109-4DB7-B9A0-D7D01F45ED6A";
name = "Oct 15 19, 20:32";
paths = (
{
closed = 1;
nodes = (
"410 28 OFFCURVE",
"505 151 OFFCURVE",
"505 307 CURVE SMOOTH",
"505 466 OFFCURVE",
"410 568 OFFCURVE",
"294 606 CURVE",
"256 596 OFFCURVE",
"172 519 OFFCURVE",
"168 477 CURVE",
"174 456 LINE",
"174 715 LINE",
"88 715 LINE",
"88 355 LINE",
"174 355 LINE",
"180 381 OFFCURVE",
"241 531 OFFCURVE",
"320 524 CURVE",
"295 521 LINE",
"278 526 OFFCURVE",
"416 490 OFFCURVE",
"416 307 CURVE SMOOTH",
"416 174 OFFCURVE",
"336 93 OFFCURVE",
"286 77 CURVE",
"330 57 LINE",
"130 228 LINE",
"80 172 LINE",
"294 -10 LINE"
);
}
);
visible = 1;
width = 545;
},
{
layerId = "6E1A9BF3-6A06-44F2-8E17-ACCB47751CD5";
paths = (
{
closed = 1;
nodes = (
"418 31 OFFCURVE",
"517 149 OFFCURVE",
"517 302 CURVE SMOOTH",
"517 464 OFFCURVE",
"422 564 OFFCURVE",
"309 603 CURVE",
"265 588 OFFCURVE",
"193 524 OFFCURVE",
"170 461 CURVE",
"188 449 LINE",
"188 715 LINE",
"83 715 LINE",
"83 351 LINE",
"187 351 LINE",
"218 436 OFFCURVE",
"268 497 OFFCURVE",
"329 510 CURVE",
"269 512 LINE",
"335 490 OFFCURVE",
"409 430 OFFCURVE",
"409 302 CURVE SMOOTH",
"409 188 OFFCURVE",
"342 115 OFFCURVE",
"287 94 CURVE",
"339 79 LINE",
"138 245 LINE",
"78 176 LINE",
"306 -11 LINE"
);
}
);
width = 553.55738;
},
{
layerId = "38768EF3-7794-49DB-B097-CE6891208EBB";
paths = (
{
closed = 1;
nodes = (
"427 34 OFFCURVE",
"531 147 OFFCURVE",
"531 296 CURVE SMOOTH",
"531 461 OFFCURVE",
"435 559 OFFCURVE",
"326 599 CURVE",
"276 579 OFFCURVE",
"214 525 OFFCURVE",
"183 462 CURVE",
"204 441 LINE",
"204 715 LINE",
"78 715 LINE",
"78 346 LINE",
"201 346 LINE",
"231 418 OFFCURVE",
"279 473 OFFCURVE",
"343 492 CURVE",
"275 492 LINE",
"355 455 OFFCURVE",
"402 396 OFFCURVE",
"402 296 CURVE SMOOTH",
"402 204 OFFCURVE",
"349 139 OFFCURVE",
"288 112 CURVE",
"349 103 LINE",
"147 264 LINE",
"75 180 LINE",
"320 -13 LINE"
);
}
);
width = 563.06557;
}
);
unicode = 1C69;
},
{
glyphname = uni1C6A;
lastChange = "2019-10-15 17:35:40 +0000";
layers = (
{
layerId = UUID0;
paths = (
{
closed = 1;
nodes = (
"447 -10 OFFCURVE",
"561 51 OFFCURVE",
"633 161 CURVE",
"512 285 LINE",
"512 540 LINE SMOOTH",
"512 616 OFFCURVE",
"488 729 OFFCURVE",
"327 729 CURVE SMOOTH",
"166 729 OFFCURVE",
"142 616 OFFCURVE",
"142 540 CURVE SMOOTH",
"142 285 LINE",
"21 161 LINE",
"93 51 OFFCURVE",
"207 -10 OFFCURVE",
"327 -10 CURVE SMOOTH"
);
},
{
closed = 1;
nodes = (
"216 57 OFFCURVE",
"135 134 OFFCURVE",
"113 160 CURVE",
"90 125 LINE",
"209.001 244.001 LINE",
"162 234 LINE",
"202 189 OFFCURVE",
"273 166 OFFCURVE",
"327 166 CURVE SMOOTH",
"381 166 OFFCURVE",
"452 189 OFFCURVE",
"492 234 CURVE",
"445 244 LINE",
"556 133 LINE",
"549 170 LINE",
"523 131 OFFCURVE",
"432 57 OFFCURVE",
"327 57 CURVE SMOOTH"
);
},
{
closed = 1;
nodes = (
"284 243 OFFCURVE",
"240 268 OFFCURVE",
"222 282 CURVE",
"228 237 LINE",
"228 536 LINE SMOOTH",
"228 580 OFFCURVE",
"230 654 OFFCURVE",
"327 654 CURVE SMOOTH",
"424 654 OFFCURVE",
"426 580 OFFCURVE",
"426 536 CURVE SMOOTH",
"426 237 LINE",
"432 282 LINE",
"415 267 OFFCURVE",
"370 243 OFFCURVE",
"327 243 CURVE SMOOTH"
);
}
);
width = 654;
},
{
layerId = "9C387D97-1150-45A6-AF8D-2AAB62D95D5D";
paths = (
{
closed = 1;
nodes = (
"478 -10 OFFCURVE",
"626 65 OFFCURVE",
"671 181 CURVE",
"573 310 LINE",
"576 488 LINE SMOOTH",
"578 601 OFFCURVE",
"488 725 OFFCURVE",
"338 725 CURVE SMOOTH",
"188 725 OFFCURVE",
"98 601 OFFCURVE",
"100 488 CURVE SMOOTH",
"103 310 LINE",
"5 181 LINE",
"50 65 OFFCURVE",
"198 -10 OFFCURVE",
"338 -10 CURVE SMOOTH"
);
},
{
closed = 1;
nodes = (
"258 109 OFFCURVE",
"185 144 OFFCURVE",
"145 200 CURVE",
"136 140 LINE",
"231 267 LINE",
"181 250 LINE",
"225 211 OFFCURVE",
"277 189 OFFCURVE",
"338 189 CURVE SMOOTH",
"399 189 OFFCURVE",
"451 211 OFFCURVE",
"495 250 CURVE",
"445 267 LINE",
"540 140 LINE",
"531 200 LINE",
"491 144 OFFCURVE",
"418 109 OFFCURVE",
"338 109 CURVE SMOOTH"
);
},
{
closed = 1;
nodes = (
"295 314 OFFCURVE",
"241 331 OFFCURVE",
"229 370 CURVE",
"243 302 LINE",
"243 488 LINE SMOOTH",
"243 546 OFFCURVE",
"274 599 OFFCURVE",
"338 599 CURVE SMOOTH",
"402 599 OFFCURVE",
"433 546 OFFCURVE",
"433 488 CURVE SMOOTH",
"433 302 LINE",
"447 370 LINE",
"435 331 OFFCURVE",
"381 314 OFFCURVE",
"338 314 CURVE SMOOTH"
);
}
);
width = 676;
},
{
associatedMasterId = UUID0;
layerId = "DAFFA52C-2B4E-4983-8D90-81AF81C7E229";
name = "Oct 5 19, 18:29";
paths = (
{
closed = 1;
nodes = (
"447 -10 OFFCURVE",
"561 51 OFFCURVE",
"633 161 CURVE",
"512 285 LINE",
"512 540 LINE SMOOTH",
"512 616 OFFCURVE",
"488 729 OFFCURVE",
"327 729 CURVE SMOOTH",
"166 729 OFFCURVE",
"142 616 OFFCURVE",
"142 540 CURVE SMOOTH",
"142 285 LINE",
"21 161 LINE",
"93 51 OFFCURVE",
"207 -10 OFFCURVE",
"327 -10 CURVE SMOOTH"
);
},
{
closed = 1;
nodes = (
"200 57 OFFCURVE",
"112 160 OFFCURVE",
"117 155 CURVE",
"90 125 LINE",
"209.001 244.001 LINE",
"162 234 LINE",
"202 189 OFFCURVE",
"273 166 OFFCURVE",
"327 166 CURVE SMOOTH",
"381 166 OFFCURVE",
"452 189 OFFCURVE",
"492 234 CURVE",
"445 244 LINE",
"564.001 124.999 LINE",
"537 155 LINE",
"542 160 OFFCURVE",
"454 57 OFFCURVE",
"327 57 CURVE SMOOTH"
);
},
{
closed = 1;
nodes = (
"275 243 OFFCURVE",
"222 279 OFFCURVE",
"222 282 CURVE",
"228 237 LINE",
"228 536 LINE SMOOTH",
"228 580 OFFCURVE",
"230 654 OFFCURVE",
"327 654 CURVE SMOOTH",
"424 654 OFFCURVE",
"426 580 OFFCURVE",
"426 536 CURVE SMOOTH",
"426 237 LINE",
"432 282 LINE",
"432 279 OFFCURVE",
"379 243 OFFCURVE",
"327 243 CURVE SMOOTH"
);
}
);
visible = 1;
width = 654;
},
{
associatedMasterId = "9C387D97-1150-45A6-AF8D-2AAB62D95D5D";
layerId = "21F218B8-8D5C-4203-BA40-9C7680E0BE1F";
name = "Oct 5 19, 18:28";
paths = (
{
closed = 1;
nodes = (
"9 65 OFFCURVE",
"157 -10 OFFCURVE",
"297 -10 CURVE",
"297 109 LINE",
"212 109 OFFCURVE",
"136 148 OFFCURVE",
"97 206 CURVE",
"93 137 LINE",
"191 269 LINE",
"127 262 LINE",
"175 215 OFFCURVE",
"225 189 OFFCURVE",
"297 189 CURVE",
"297 314 LINE",
"264 314 OFFCURVE",
"224 324 OFFCURVE",
"202 347 CURVE",
"202 488 LINE SMOOTH",
"202 546 OFFCURVE",
"233 599 OFFCURVE",
"297 599 CURVE",
"297 725 LINE",
"147 725 OFFCURVE",
"57 601 OFFCURVE",
"59 488 CURVE SMOOTH",
"62 310 LINE",
"-36 181 LINE"
);
},
{
closed = 1;
nodes = (
"532 310 LINE",
"535 488 LINE SMOOTH",
"537 601 OFFCURVE",
"447 725 OFFCURVE",
"297 725 CURVE",
"297 599 LINE",
"361 599 OFFCURVE",
"392 546 OFFCURVE",
"392 488 CURVE SMOOTH",
"392 347 LINE",
"370 324 OFFCURVE",
"330 314 OFFCURVE",
"297 314 CURVE",
"297 189 LINE",
"369 189 OFFCURVE",
"419 215 OFFCURVE",
"467 262 CURVE",
"403 269 LINE",
"501 137 LINE",
"497 206 LINE",
"458 148 OFFCURVE",
"382 109 OFFCURVE",
"297 109 CURVE",
"297 -10 LINE",
"437 -10 OFFCURVE",
"585 65 OFFCURVE",
"630 181 CURVE"
);
}
);
width = 600;
},
{
associatedMasterId = UUID0;
layerId = "7E95A2A8-5900-43B9-A104-91CF3A0C6271";
width = 600;
},
{
layerId = "6E1A9BF3-6A06-44F2-8E17-ACCB47751CD5";
paths = (
{
closed = 1;
nodes = (
"456 -10 OFFCURVE",
"580 55 OFFCURVE",
"644 167 CURVE",
"530 292 LINE",
"531 525 LINE SMOOTH",
"531 612 OFFCURVE",
"488 728 OFFCURVE",
"330 728 CURVE SMOOTH",
"172 728 OFFCURVE",
"129 612 OFFCURVE",
"130 525 CURVE SMOOTH",
"130 292 LINE",
"16 167 LINE",
"80 55 OFFCURVE",
"204 -10 OFFCURVE",
"330 -10 CURVE SMOOTH"
);
},
{
closed = 1;
nodes = (
"228 72 OFFCURVE",
"150 137 OFFCURVE",
"122 172 CURVE",
"104 129 LINE",
"215 251 LINE",
"168 239 LINE",
"209 195 OFFCURVE",
"274 173 OFFCURVE",
"330 173 CURVE SMOOTH",
"386 173 OFFCURVE",
"452 195 OFFCURVE",
"493 239 CURVE",
"445 251 LINE",
"551 135 LINE",
"544 179 LINE",
"514 135 OFFCURVE",
"428 72 OFFCURVE",
"330 72 CURVE SMOOTH"
);
},
{
closed = 1;
nodes = (
"287 264 OFFCURVE",
"240 287 OFFCURVE",
"224 308 CURVE",
"232 256 LINE",
"232 522 LINE SMOOTH",
"232 570 OFFCURVE",
"243 638 OFFCURVE",
"330 638 CURVE SMOOTH",
"418 638 OFFCURVE",
"428 570 OFFCURVE",
"428 522 CURVE SMOOTH",
"428 256 LINE",
"436 308 LINE",
"421 286 OFFCURVE",
"373 264 OFFCURVE",
"330 264 CURVE SMOOTH"
);
}
);
width = 660.4918;
},
{
layerId = "38768EF3-7794-49DB-B097-CE6891208EBB";
paths = (
{
closed = 1;
nodes = (
"466 -10 OFFCURVE",
"601 60 OFFCURVE",
"657 174 CURVE",
"550 300 LINE",
"552 508 LINE SMOOTH",
"553 607 OFFCURVE",
"488 727 OFFCURVE",
"334 727 CURVE SMOOTH",
"179 727 OFFCURVE",
"115 607 OFFCURVE",
"116 508 CURVE SMOOTH",
"117 300 LINE",
"11 174 LINE",
"66 60 OFFCURVE",
"201 -10 OFFCURVE",
"334 -10 CURVE SMOOTH"
);
},
{
closed = 1;
nodes = (
"242 89 OFFCURVE",
"166 140 OFFCURVE",
"133 185 CURVE",
"119 134 LINE",
"222 258 LINE",
"174 244 LINE",
"216 202 OFFCURVE",
"275 180 OFFCURVE",
"334 180 CURVE SMOOTH",
"392 180 OFFCURVE",
"452 202 OFFCURVE",
"494 244 CURVE",
"445 258 LINE",
"546 137 LINE",
"538 189 LINE",
"503 139 OFFCURVE",
"423 89 OFFCURVE",
"334 89 CURVE SMOOTH"
);
},
{
closed = 1;
nodes = (
"291 287 OFFCURVE",
"240 307 OFFCURVE",
"226 337 CURVE",
"237 277 LINE",
"237 506 LINE SMOOTH",
"237 559 OFFCURVE",
"257 620 OFFCURVE",
"334 620 CURVE SMOOTH",
"411 620 OFFCURVE",
"430 559 OFFCURVE",
"430 506 CURVE SMOOTH",
"430 277 LINE",
"441 337 LINE",
"428 307 OFFCURVE",
"377 287 OFFCURVE",
"334 287 CURVE SMOOTH"
);
}
);
width = 667.70492;
}
);
unicode = 1C6A;
},
{
glyphname = uni1C6B;
lastChange = "2019-10-15 17:35:40 +0000";
layers = (
{
layerId = UUID0;
paths = (
{
closed = 1;
nodes = (
"256 293 LINE",
"256 368 LINE",
"216 368 LINE SMOOTH",
"172 368 OFFCURVE",
"128 398 OFFCURVE",
"128 450 CURVE SMOOTH",
"128 530 OFFCURVE",
"291 631 OFFCURVE",
"339 647 CURVE",
"387 631 OFFCURVE",
"550 530 OFFCURVE",
"550 450 CURVE SMOOTH",
"550 398 OFFCURVE",
"506 368 OFFCURVE",
"462 368 CURVE SMOOTH",
"422 368 LINE",
"422 293 LINE",
"462 293 LINE SMOOTH",
"552 293 OFFCURVE",
"638 340 OFFCURVE",
"638 450 CURVE SMOOTH",
"638 585 OFFCURVE",
"407 706 OFFCURVE",
"339 725 CURVE",
"271 706 OFFCURVE",
"40 585 OFFCURVE",
"40 450 CURVE SMOOTH",
"40 340 OFFCURVE",
"126 293 OFFCURVE",
"216 293 CURVE SMOOTH"
);
},
{
closed = 1;
nodes = (
"509 -10 OFFCURVE",
"523 184 OFFCURVE",
"526 248 CURVE",
"446 248 LINE",
"446 172 OFFCURVE",
"426 58 OFFCURVE",
"339 58 CURVE SMOOTH",
"270 58 OFFCURVE",
"233 113 OFFCURVE",
"224 155 CURVE",
"342 120 LINE",
"379 163 LINE",
"379 517 LINE",
"299 517 LINE",
"299 196 LINE",
"134 245 LINE",
"134 186 OFFCURVE",
"154 -10 OFFCURVE",
"339 -10 CURVE SMOOTH"
);
}
);
width = 678;
},
{
layerId = "9C387D97-1150-45A6-AF8D-2AAB62D95D5D";
paths = (
{
closed = 1;
nodes = (
"238 292 LINE",
"238 418 LINE",
"218 418 LINE SMOOTH",
"199 418 OFFCURVE",
"179 428 OFFCURVE",
"179 453 CURVE SMOOTH",
"179 520 OFFCURVE",
"303 577 OFFCURVE",
"351 600 CURVE",
"399 577 OFFCURVE",
"523 520 OFFCURVE",
"523 453 CURVE SMOOTH",
"523 428 OFFCURVE",
"503 418 OFFCURVE",
"484 418 CURVE SMOOTH",
"464 418 LINE",
"464 292 LINE",
"484 292 LINE SMOOTH",
"579 292 OFFCURVE",
"675 343 OFFCURVE",
"675 453 CURVE SMOOTH",
"675 581 OFFCURVE",
"419 710 OFFCURVE",
"351 729 CURVE",
"283 710 OFFCURVE",
"27 581 OFFCURVE",
"27 453 CURVE SMOOTH",
"27 343 OFFCURVE",
"123 292 OFFCURVE",
"218 292 CURVE SMOOTH"
);
},
{
closed = 1;
nodes = (
"491 -15 OFFCURVE",
"583 98 OFFCURVE",
"588 241 CURVE",
"475 241 LINE",
"475 167 OFFCURVE",
"432 98 OFFCURVE",
"351 98 CURVE SMOOTH",
"298 98 OFFCURVE",
"260 122 OFFCURVE",
"245 163 CURVE",
"346 133 LINE",
"415 192 LINE",
"415 516 LINE",
"288 516 LINE",
"288 231 LINE",
"101 282 LINE",
"101 107 OFFCURVE",
"197 -15 OFFCURVE",
"351 -15 CURVE SMOOTH"
);
}
);
width = 702;
},
{
associatedMasterId = UUID0;
layerId = "7E95A2A8-5900-43B9-A104-91CF3A0C6271";
width = 600;
},
{
layerId = "6E1A9BF3-6A06-44F2-8E17-ACCB47751CD5";
paths = (
{
closed = 1;
nodes = (
"251 293 LINE",
"251 383 LINE",
"217 383 LINE SMOOTH",
"180 383 OFFCURVE",
"143 407 OFFCURVE",
"143 451 CURVE SMOOTH",
"143 527 OFFCURVE",
"295 615 OFFCURVE",
"343 633 CURVE",
"391 615 OFFCURVE",
"542 527 OFFCURVE",
"542 451 CURVE SMOOTH",
"542 407 OFFCURVE",
"505 383 OFFCURVE",
"468 383 CURVE SMOOTH",
"434 383 LINE",
"434 293 LINE",
"468 293 LINE SMOOTH",
"560 293 OFFCURVE",
"649 341 OFFCURVE",
"649 451 CURVE SMOOTH",
"649 584 OFFCURVE",
"411 707 OFFCURVE",
"343 726 CURVE",
"275 707 OFFCURVE",
"36 584 OFFCURVE",
"36 451 CURVE SMOOTH",
"36 341 OFFCURVE",
"125 293 OFFCURVE",
"217 293 CURVE SMOOTH"
);
},
{
closed = 1;
nodes = (
"504 -11 OFFCURVE",
"541 159 OFFCURVE",
"544 246 CURVE",
"455 246 LINE",
"455 171 OFFCURVE",
"428 70 OFFCURVE",
"343 70 CURVE SMOOTH",
"278 70 OFFCURVE",
"241 116 OFFCURVE",
"230 157 CURVE",
"343 124 LINE",
"390 172 LINE",
"390 517 LINE",
"296 517 LINE",
"296 206 LINE",
"124 256 LINE",
"124 163 OFFCURVE",
"167 -11 OFFCURVE",
"343 -11 CURVE SMOOTH"
);
}
);
width = 685.08197;
},
{
layerId = "38768EF3-7794-49DB-B097-CE6891208EBB";
paths = (
{
closed = 1;
nodes = (
"245 293 LINE",
"245 399 LINE",
"217 399 LINE SMOOTH",
"189 399 OFFCURVE",
"160 417 OFFCURVE",
"160 452 CURVE SMOOTH",
"160 524 OFFCURVE",
"299 597 OFFCURVE",
"347 618 CURVE",
"395 597 OFFCURVE",
"533 524 OFFCURVE",
"533 452 CURVE SMOOTH",
"533 417 OFFCURVE",
"504 399 OFFCURVE",
"475 399 CURVE SMOOTH",
"448 399 LINE",
"448 293 LINE",
"475 293 LINE SMOOTH",
"569 293 OFFCURVE",
"661 342 OFFCURVE",
"661 452 CURVE SMOOTH",
"661 583 OFFCURVE",
"415 708 OFFCURVE",
"347 727 CURVE",
"279 708 OFFCURVE",
"32 583 OFFCURVE",
"32 452 CURVE SMOOTH",
"32 342 OFFCURVE",
"124 293 OFFCURVE",
"217 293 CURVE SMOOTH"
);
},
{
closed = 1;
nodes = (
"498 -13 OFFCURVE",
"561 131 OFFCURVE",
"564 244 CURVE",
"464 244 LINE",
"464 169 OFFCURVE",
"430 83 OFFCURVE",
"347 83 CURVE SMOOTH",
"287 83 OFFCURVE",
"250 119 OFFCURVE",
"237 160 CURVE",
"344 128 LINE",
"402 181 LINE",
"402 517 LINE",
"292 517 LINE",
"292 218 LINE",
"113 268 LINE",
"113 137 OFFCURVE",
"181 -13 OFFCURVE",
"347 -13 CURVE SMOOTH"
);
}
);
width = 692.95082;
}
);
unicode = 1C6B;
},
{
glyphname = uni1C6D;
lastChange = "2019-10-15 17:35:40 +0000";
layers = (
{
layerId = UUID0;
paths = (
{
closed = 1;
nodes = (
"549 -10 OFFCURVE",
"601 99 OFFCURVE",
"606 193 CURVE",
"529 193 LINE",
"529 121 OFFCURVE",
"487 65 OFFCURVE",
"432 65 CURVE SMOOTH",
"369 65 OFFCURVE",
"330 137 OFFCURVE",
"330 249 CURVE SMOOTH",
"330 387 OFFCURVE",
"367 419 OFFCURVE",
"434 419 CURVE SMOOTH",
"497 419 OFFCURVE",
"579 343 OFFCURVE",
"605 317 CURVE",
"605 590 OFFCURVE",
"476 725 OFFCURVE",
"319 725 CURVE SMOOTH",
"152 725 OFFCURVE",
"49 559 OFFCURVE",
"49 362 CURVE SMOOTH",
"49 177 OFFCURVE",
"115 61 OFFCURVE",
"140 0 CURVE",
"237 0 LINE",
"213 49 OFFCURVE",
"137 182 OFFCURVE",
"137 362 CURVE SMOOTH",
"137 525 OFFCURVE",
"214 650 OFFCURVE",
"319 650 CURVE SMOOTH",
"399 650 OFFCURVE",
"515 556 OFFCURVE",
"508 426 CURVE",
"519 450 LINE",
"502 461 OFFCURVE",
"455 494 OFFCURVE",
"392 494 CURVE SMOOTH",
"316 494 OFFCURVE",
"249 421 OFFCURVE",
"249 249 CURVE SMOOTH",
"249 145 OFFCURVE",
"287 -10 OFFCURVE",
"432 -10 CURVE SMOOTH"
);
}
);
width = 655;
},
{
layerId = "9C387D97-1150-45A6-AF8D-2AAB62D95D5D";
paths = (
{
closed = 1;
nodes = (
"570 -15 OFFCURVE",
"637 72 OFFCURVE",
"637 193 CURVE",
"510 193 LINE",
"510 143 OFFCURVE",
"490 111 OFFCURVE",
"459 111 CURVE SMOOTH",
"419 111 OFFCURVE",
"397 165 OFFCURVE",
"397 266 CURVE SMOOTH",
"397 357 OFFCURVE",
"422 399 OFFCURVE",
"465 399 CURVE SMOOTH",
"510 399 OFFCURVE",
"589 346 OFFCURVE",
"637 306 CURVE",
"637 583 OFFCURVE",
"511 729 OFFCURVE",
"339 729 CURVE SMOOTH",
"172 729 OFFCURVE",
"36 578 OFFCURVE",
"36 363 CURVE SMOOTH",
"36 218 OFFCURVE",
"72 85 OFFCURVE",
"105 0 CURVE",
"270 0 LINE",
"224 85 OFFCURVE",
"181 209 OFFCURVE",
"181 363 CURVE SMOOTH",
"181 499 OFFCURVE",
"246 603 OFFCURVE",
"339 603 CURVE SMOOTH",
"409 603 OFFCURVE",
"459 554 OFFCURVE",
"475 471 CURVE",
"498 498 LINE",
"481 510 OFFCURVE",
"442 520 OFFCURVE",
"411 520 CURVE SMOOTH",
"308 520 OFFCURVE",
"242 420 OFFCURVE",
"242 266 CURVE SMOOTH",
"242 94 OFFCURVE",
"327 -15 OFFCURVE",
"459 -15 CURVE SMOOTH"
);
}
);
width = 673;
},
{
associatedMasterId = UUID0;
layerId = "7E95A2A8-5900-43B9-A104-91CF3A0C6271";
width = 600;
},
{
layerId = "6E1A9BF3-6A06-44F2-8E17-ACCB47751CD5";
paths = (
{
closed = 1;
nodes = (
"555 -11 OFFCURVE",
"612 91 OFFCURVE",
"615 193 CURVE",
"523 193 LINE",
"523 127 OFFCURVE",
"488 79 OFFCURVE",
"440 79 CURVE SMOOTH",
"384 79 OFFCURVE",
"350 145 OFFCURVE",
"350 254 CURVE SMOOTH",
"350 378 OFFCURVE",
"383 413 OFFCURVE",
"443 413 CURVE SMOOTH",
"501 413 OFFCURVE",
"582 344 OFFCURVE",
"614 314 CURVE",
"614 588 OFFCURVE",
"486 726 OFFCURVE",
"325 726 CURVE SMOOTH",
"158 726 OFFCURVE",
"45 565 OFFCURVE",
"45 362 CURVE SMOOTH",
"45 189 OFFCURVE",
"102 68 OFFCURVE",
"130 0 CURVE",
"247 0 LINE",
"216 60 OFFCURVE",
"150 190 OFFCURVE",
"150 362 CURVE SMOOTH",
"150 517 OFFCURVE",
"223 636 OFFCURVE",
"325 636 CURVE SMOOTH",
"402 636 OFFCURVE",
"498 555 OFFCURVE",
"498 439 CURVE",
"513 464 LINE",
"496 475 OFFCURVE",
"451 502 OFFCURVE",
"398 502 CURVE SMOOTH",
"314 502 OFFCURVE",
"247 421 OFFCURVE",
"247 254 CURVE SMOOTH",
"247 130 OFFCURVE",
"299 -11 OFFCURVE",
"440 -11 CURVE SMOOTH"
);
}
);
width = 660.31148;
},
{
layerId = "38768EF3-7794-49DB-B097-CE6891208EBB";
paths = (
{
closed = 1;
nodes = (
"562 -13 OFFCURVE",
"624 82 OFFCURVE",
"625 193 CURVE",
"517 193 LINE",
"517 134 OFFCURVE",
"489 94 OFFCURVE",
"449 94 CURVE SMOOTH",
"400 94 OFFCURVE",
"372 154 OFFCURVE",
"372 260 CURVE SMOOTH",
"372 368 OFFCURVE",
"401 406 OFFCURVE",
"453 406 CURVE SMOOTH",
"505 406 OFFCURVE",
"585 345 OFFCURVE",
"625 310 CURVE",
"625 586 OFFCURVE",
"498 727 OFFCURVE",
"332 727 CURVE SMOOTH",
"165 727 OFFCURVE",
"41 571 OFFCURVE",
"41 362 CURVE SMOOTH",
"41 202 OFFCURVE",
"88 76 OFFCURVE",
"118 0 CURVE",
"258 0 LINE",
"220 72 OFFCURVE",
"164 199 OFFCURVE",
"164 362 CURVE SMOOTH",
"164 509 OFFCURVE",
"234 621 OFFCURVE",
"332 621 CURVE SMOOTH",
"405 621 OFFCURVE",
"480 555 OFFCURVE",
"487 454 CURVE",
"506 480 LINE",
"489 491 OFFCURVE",
"447 510 OFFCURVE",
"404 510 CURVE SMOOTH",
"311 510 OFFCURVE",
"245 421 OFFCURVE",
"245 260 CURVE SMOOTH",
"245 113 OFFCURVE",
"312 -13 OFFCURVE",
"449 -13 CURVE SMOOTH"
);
}
);
width = 666.21311;
}
);
unicode = 1C6D;
},
{
glyphname = uni1C6E;
lastChange = "2019-10-15 17:35:40 +0000";
layers = (
{
layerId = UUID0;
paths = (
{
closed = 1;
nodes = (
"412 -10 OFFCURVE",
"500 73 OFFCURVE",
"538 173 CURVE",
"446 173 LINE",
"430 142 OFFCURVE",
"379 65 OFFCURVE",
"287 65 CURVE SMOOTH",
"182 65 OFFCURVE",
"142 155 OFFCURVE",
"133 174 CURVE",
"109 137 LINE",
"538 542 LINE",
"500 642 OFFCURVE",
"412 725 OFFCURVE",
"287 725 CURVE SMOOTH",
"162 725 OFFCURVE",
"74 642 OFFCURVE",
"36 542 CURVE",
"128 542 LINE",
"144 573 OFFCURVE",
"195 650 OFFCURVE",
"287 650 CURVE SMOOTH",
"392 650 OFFCURVE",
"430 563 OFFCURVE",
"440 540 CURVE",
"464 578 LINE",
"36 173 LINE",
"74 73 OFFCURVE",
"162 -10 OFFCURVE",
"287 -10 CURVE SMOOTH"
);
}
);
width = 574;
},
{
layerId = "9C387D97-1150-45A6-AF8D-2AAB62D95D5D";
paths = (
{
closed = 1;
nodes = (
"436 -15 OFFCURVE",
"538 80 OFFCURVE",
"568 198 CURVE",
"417 198 LINE",
"396 147 OFFCURVE",
"361 111 OFFCURVE",
"295 111 CURVE SMOOTH",
"230 111 OFFCURVE",
"193 152 OFFCURVE",
"175 205 CURVE",
"169 143 LINE",
"568 531 LINE",
"523 652 OFFCURVE",
"437 729 OFFCURVE",
"296 729 CURVE SMOOTH",
"155 729 OFFCURVE",
"53 634 OFFCURVE",
"23 516 CURVE",
"174 516 LINE",
"195 567 OFFCURVE",
"230 603 OFFCURVE",
"296 603 CURVE SMOOTH",
"363 603 OFFCURVE",
"398 562 OFFCURVE",
"415 509 CURVE",
"432 581 LINE",
"23 183 LINE",
"68 62 OFFCURVE",
"155 -15 OFFCURVE",
"295 -15 CURVE SMOOTH"
);
}
);
width = 591;
},
{
associatedMasterId = UUID0;
layerId = "7E95A2A8-5900-43B9-A104-91CF3A0C6271";
width = 600;
},
{
layerId = "6E1A9BF3-6A06-44F2-8E17-ACCB47751CD5";
paths = (
{
closed = 1;
nodes = (
"419 -11 OFFCURVE",
"511 75 OFFCURVE",
"547 180 CURVE",
"437 180 LINE",
"420 143 OFFCURVE",
"374 79 OFFCURVE",
"289 79 CURVE SMOOTH",
"196 79 OFFCURVE",
"157 154 OFFCURVE",
"145 183 CURVE",
"127 139 LINE",
"547 539 LINE",
"507 645 OFFCURVE",
"419 726 OFFCURVE",
"290 726 CURVE SMOOTH",
"160 726 OFFCURVE",
"68 640 OFFCURVE",
"32 534 CURVE",
"142 534 LINE",
"159 571 OFFCURVE",
"205 636 OFFCURVE",
"290 636 CURVE SMOOTH",
"383 636 OFFCURVE",
"421 563 OFFCURVE",
"433 531 CURVE",
"455 579 LINE",
"32 176 LINE",
"72 70 OFFCURVE",
"160 -11 OFFCURVE",
"289 -11 CURVE SMOOTH"
);
}
);
width = 579.01639;
},
{
layerId = "38768EF3-7794-49DB-B097-CE6891208EBB";
paths = (
{
closed = 1;
nodes = (
"427 -13 OFFCURVE",
"524 77 OFFCURVE",
"557 188 CURVE",
"428 188 LINE",
"409 145 OFFCURVE",
"368 94 OFFCURVE",
"292 94 CURVE SMOOTH",
"212 94 OFFCURVE",
"174 153 OFFCURVE",
"159 193 CURVE",
"147 141 LINE",
"557 535 LINE",
"514 648 OFFCURVE",
"427 727 OFFCURVE",
"293 727 CURVE SMOOTH",
"158 727 OFFCURVE",
"61 637 OFFCURVE",
"28 526 CURVE",
"157 526 LINE",
"176 569 OFFCURVE",
"217 621 OFFCURVE",
"293 621 CURVE SMOOTH",
"374 621 OFFCURVE",
"410 563 OFFCURVE",
"425 521 CURVE",
"444 580 LINE",
"28 179 LINE",
"70 66 OFFCURVE",
"158 -13 OFFCURVE",
"292 -13 CURVE SMOOTH"
);
}
);
width = 584.59016;
}
);
unicode = 1C6E;
},
{
glyphname = uni1C6F;
lastChange = "2019-12-30 14:36:48 +0000";
layers = (
{
layerId = UUID0;
paths = (
{
closed = 1;
nodes = (
"506 -10 OFFCURVE",
"612 36 OFFCURVE",
"698 159 CURVE",
"649 219 LINE",
"616 173 OFFCURVE",
"581 138 OFFCURVE",
"539 112 CURVE",
"560 86 LINE",
"560 455 LINE",
"647 625 LINE",
"574 693 OFFCURVE",
"487 725 OFFCURVE",
"373 725 CURVE SMOOTH",
"222 725 OFFCURVE",
"116 679 OFFCURVE",
"30 556 CURVE",
"79 496 LINE",
"110 542 OFFCURVE",
"147 576 OFFCURVE",
"189 602 CURVE",
"168 628 LINE",
"168 260 LINE",
"81 90 LINE",
"154 22 OFFCURVE",
"241 -10 OFFCURVE",
"355 -10 CURVE SMOOTH"
);
},
{
closed = 1;
nodes = (
"280 65 OFFCURVE",
"220 86 OFFCURVE",
"167 124 CURVE",
"170 75 LINE",
"254 240 LINE",
"254 672 LINE",
"231 623 LINE",
"273 641 OFFCURVE",
"321 650 OFFCURVE",
"373 650 CURVE SMOOTH",
"448 650 OFFCURVE",
"508 629 OFFCURVE",
"561 591 CURVE",
"558 640 LINE",
"474 475 LINE",
"474 42 LINE",
"498 91 LINE",
"454 72 OFFCURVE",
"407 65 OFFCURVE",
"355 65 CURVE SMOOTH"
);
}
);
width = 728;
},
{
layerId = "9C387D97-1150-45A6-AF8D-2AAB62D95D5D";
paths = (
{
closed = 1;
nodes = (
"534 -15 OFFCURVE",
"654 36 OFFCURVE",
"757 143 CURVE",
"682 256 LINE",
"654 224 OFFCURVE",
"622 195 OFFCURVE",
"597 178 CURVE",
"611 151 LINE",
"611 403 LINE",
"729 564 LINE",
"659 650 OFFCURVE",
"553 729 OFFCURVE",
"375 729 CURVE SMOOTH",
"240 729 OFFCURVE",
"120 680 OFFCURVE",
"17 571 CURVE",
"92 458 LINE",
"120 490 OFFCURVE",
"152 519 OFFCURVE",
"177 536 CURVE",
"162 563 LINE",
"162 311 LINE",
"45 150 LINE",
"115 64 OFFCURVE",
"221 -15 OFFCURVE",
"399 -15 CURVE SMOOTH"
);
},
{
closed = 1;
nodes = (
"310 110 OFFCURVE",
"250 142 OFFCURVE",
"201 188 CURVE",
"196 133 LINE",
"310 296 LINE",
"310 642 LINE",
"278 591 LINE",
"307 599 OFFCURVE",
"341 603 OFFCURVE",
"375 603 CURVE SMOOTH",
"463 603 OFFCURVE",
"524 572 OFFCURVE",
"573 528 CURVE",
"577 572 LINE",
"463 428 LINE",
"463 72 LINE",
"496 121 LINE",
"467 113 OFFCURVE",
"433 110 OFFCURVE",
"399 110 CURVE SMOOTH"
);
}
);
width = 774;
},
{
associatedMasterId = UUID0;
layerId = "7E95A2A8-5900-43B9-A104-91CF3A0C6271";
width = 600;
},
{
layerId = "6E1A9BF3-6A06-44F2-8E17-ACCB47751CD5";
paths = (
{
closed = 1;
nodes = (
"514 -11 OFFCURVE",
"624 36 OFFCURVE",
"715 154 CURVE",
"659 230 LINE",
"627 188 OFFCURVE",
"593 155 OFFCURVE",
"556 131 CURVE",
"575 105 LINE",
"575 440 LINE",
"671 607 LINE",
"599 680 OFFCURVE",
"506 726 OFFCURVE",
"374 726 CURVE SMOOTH",
"227 726 OFFCURVE",
"117 679 OFFCURVE",
"26 560 CURVE",
"83 485 LINE",
"113 527 OFFCURVE",
"148 559 OFFCURVE",
"185 583 CURVE",
"166 609 LINE",
"166 275 LINE",
"70 108 LINE",
"142 34 OFFCURVE",
"235 -11 OFFCURVE",
"368 -11 CURVE SMOOTH"
);
},
{
closed = 1;
nodes = (
"289 78 OFFCURVE",
"229 103 OFFCURVE",
"177 143 CURVE",
"178 92 LINE",
"271 257 LINE",
"271 663 LINE",
"245 614 LINE",
"283 629 OFFCURVE",
"327 636 OFFCURVE",
"374 636 CURVE SMOOTH",
"452 636 OFFCURVE",
"513 612 OFFCURVE",
"565 572 CURVE",
"564 620 LINE",
"471 461 LINE",
"471 51 LINE",
"497 100 LINE",
"458 84 OFFCURVE",
"415 78 OFFCURVE",
"368 78 CURVE SMOOTH"
);
}
);
width = 741.57377;
},
{
layerId = "38768EF3-7794-49DB-B097-CE6891208EBB";
paths = (
{
closed = 1;
nodes = (
"523 -13 OFFCURVE",
"638 36 OFFCURVE",
"735 149 CURVE",
"670 242 LINE",
"640 205 OFFCURVE",
"606 174 OFFCURVE",
"575 153 CURVE",
"592 126 LINE",
"592 423 LINE",
"698 587 LINE",
"627 666 OFFCURVE",
"528 727 OFFCURVE",
"374 727 CURVE SMOOTH",
"233 727 OFFCURVE",
"118 679 OFFCURVE",
"22 565 CURVE",
"87 472 LINE",
"116 510 OFFCURVE",
"150 540 OFFCURVE",
"181 561 CURVE",
"164 588 LINE",
"164 292 LINE",
"58 128 LINE",
"129 48 OFFCURVE",
"228 -13 OFFCURVE",
"382 -13 CURVE SMOOTH"
);
},
{
closed = 1;
nodes = (
"299 93 OFFCURVE",
"239 121 OFFCURVE",
"188 164 CURVE",
"186 111 LINE",
"289 275 LINE",
"289 653 LINE",
"260 603 LINE",
"294 615 OFFCURVE",
"334 621 OFFCURVE",
"374 621 CURVE SMOOTH",
"457 621 OFFCURVE",
"518 593 OFFCURVE",
"569 552 CURVE",
"570 598 LINE",
"467 446 LINE",
"467 61 LINE",
"497 110 LINE",
"462 97 OFFCURVE",
"423 93 OFFCURVE",
"382 93 CURVE SMOOTH"
);
}
);
width = 756.65574;
}
);
unicode = 1C6F;
},
{
glyphname = uni1C70;
lastChange = "2019-10-15 17:35:40 +0000";
layers = (
{
layerId = UUID0;
paths = (
{
closed = 1;
nodes = (
"402 0 LINE",
"402 667 LINE",
"387 633 LINE",
"455 611 OFFCURVE",
"581 520 OFFCURVE",
"581 355 CURVE SMOOTH",
"581 203 OFFCURVE",
"470 112 OFFCURVE",
"447 100 CURVE",
"486 26 LINE",
"517 42 OFFCURVE",
"669 158 OFFCURVE",
"669 355 CURVE SMOOTH",
"669 575 OFFCURVE",
"491 689 OFFCURVE",
"402 714 CURVE",
"316 714 LINE",
"316 46 LINE",
"332 80 LINE",
"262 103 OFFCURVE",
"137 193 OFFCURVE",
"137 359 CURVE SMOOTH",
"137 511 OFFCURVE",
"248 602 OFFCURVE",
"271 614 CURVE",
"232 688 LINE",
"201 672 OFFCURVE",
"49 556 OFFCURVE",
"49 359 CURVE SMOOTH",
"49 139 OFFCURVE",
"227 25 OFFCURVE",
"316 0 CURVE"
);
}
);
width = 718;
},
{
layerId = "9C387D97-1150-45A6-AF8D-2AAB62D95D5D";
paths = (
{
closed = 1;
nodes = (
"470 0 LINE",
"470 619 LINE",
"441 590 LINE",
"529 572 OFFCURVE",
"609 474 OFFCURVE",
"609 363 CURVE SMOOTH",
"609 264 OFFCURVE",
"572 205 OFFCURVE",
"506 151 CURVE",
"607 41 LINE",
"702 114 OFFCURVE",
"765 225 OFFCURVE",
"765 363 CURVE SMOOTH",
"765 526 OFFCURVE",
"650 657 OFFCURVE",
"521 714 CURVE",
"331 714 LINE",
"331 95 LINE",
"360 124 LINE",
"272 141 OFFCURVE",
"192 240 OFFCURVE",
"192 353 CURVE SMOOTH",
"192 445 OFFCURVE",
"229 509 OFFCURVE",
"295 563 CURVE",
"194 673 LINE",
"99 600 OFFCURVE",
"36 489 OFFCURVE",
"36 351 CURVE SMOOTH",
"36 188 OFFCURVE",
"151 57 OFFCURVE",
"280 0 CURVE"
);
}
);
width = 801;
},
{
associatedMasterId = UUID0;
layerId = "7E95A2A8-5900-43B9-A104-91CF3A0C6271";
width = 600;
},
{
layerId = "6E1A9BF3-6A06-44F2-8E17-ACCB47751CD5";
paths = (
{
closed = 1;
nodes = (
"422 0 LINE",
"422 653 LINE",
"403 620 LINE",
"477 599 OFFCURVE",
"589 506 OFFCURVE",
"589 357 CURVE SMOOTH",
"589 221 OFFCURVE",
"500 139 OFFCURVE",
"464 115 CURVE",
"522 30 LINE",
"572 63 OFFCURVE",
"697 178 OFFCURVE",
"697 357 CURVE SMOOTH",
"697 561 OFFCURVE",
"538 680 OFFCURVE",
"437 714 CURVE",
"320 714 LINE",
"320 60 LINE",
"340 93 LINE",
"265 114 OFFCURVE",
"153 207 OFFCURVE",
"153 357 CURVE SMOOTH",
"153 492 OFFCURVE",
"242 575 OFFCURVE",
"278 599 CURVE",
"221 684 LINE",
"171 651 OFFCURVE",
"45 536 OFFCURVE",
"45 357 CURVE SMOOTH",
"45 153 OFFCURVE",
"205 34 OFFCURVE",
"305 0 CURVE"
);
}
);
width = 742.4918;
},
{
layerId = "38768EF3-7794-49DB-B097-CE6891208EBB";
paths = (
{
closed = 1;
nodes = (
"444 0 LINE",
"444 637 LINE",
"421 606 LINE",
"501 586 OFFCURVE",
"598 491 OFFCURVE",
"598 360 CURVE SMOOTH",
"598 241 OFFCURVE",
"533 170 OFFCURVE",
"484 132 CURVE",
"562 35 LINE",
"632 87 OFFCURVE",
"729 200 OFFCURVE",
"729 360 CURVE SMOOTH",
"729 545 OFFCURVE",
"590 669 OFFCURVE",
"476 714 CURVE",
"325 714 LINE",
"325 76 LINE",
"349 107 LINE",
"268 127 OFFCURVE",
"171 222 OFFCURVE",
"171 355 CURVE SMOOTH",
"171 470 OFFCURVE",
"236 544 OFFCURVE",
"286 582 CURVE",
"208 679 LINE",
"138 627 OFFCURVE",
"41 514 OFFCURVE",
"41 354 CURVE SMOOTH",
"41 169 OFFCURVE",
"180 45 OFFCURVE",
"293 0 CURVE"
);
}
);
width = 769.70492;
}
);
unicode = 1C70;
},
{
glyphname = uni1C71;
lastChange = "2019-10-15 17:35:40 +0000";
layers = (
{
layerId = UUID0;
paths = (
{
closed = 1;
nodes = (
"139 725 OFFCURVE",
"71 658 OFFCURVE",
"58 647 CURVE",
"153 580 LINE",
"121 643 LINE",
"121 177 LINE",
"143 250 LINE",
"66 136 LINE",
"90 97 OFFCURVE",
"147 -10 OFFCURVE",
"281 -10 CURVE SMOOTH",
"415 -10 OFFCURVE",
"484 129 OFFCURVE",
"496 152 CURVE",
"401 152 LINE",
"395 139 OFFCURVE",
"355 65 OFFCURVE",
"281 65 CURVE SMOOTH",
"217 65 OFFCURVE",
"167 121 OFFCURVE",
"156 154 CURVE",
"142 104 LINE",
"470 596 LINE",
"416 593 LINE",
"474 551 OFFCURVE",
"491 482 OFFCURVE",
"494 479 CURVE",
"532 574 LINE",
"485 653 OFFCURVE",
"394 725 OFFCURVE",
"273 725 CURVE SMOOTH"
);
},
{
closed = 1;
nodes = (
"334 650 OFFCURVE",
"383 620 OFFCURVE",
"398 608 CURVE",
"409 649 LINE",
"175 297 LINE",
"197 290 LINE",
"197 680 LINE",
"200 642 LINE",
"185 634 OFFCURVE",
"214 650 OFFCURVE",
"273 650 CURVE SMOOTH"
);
}
);
width = 568;
},
{
layerId = "9C387D97-1150-45A6-AF8D-2AAB62D95D5D";
paths = (
{
closed = 1;
nodes = (
"225 729 OFFCURVE",
"147 686 OFFCURVE",
"68 605 CURVE",
"182 508 LINE",
"147 572 LINE",
"147 202 LINE",
"176 281 LINE",
"73 160 LINE",
"141 45 OFFCURVE",
"211 -15 OFFCURVE",
"318 -15 CURVE SMOOTH",
"413 -15 OFFCURVE",
"498 32 OFFCURVE",
"568 178 CURVE",
"416 178 LINE",
"390 134 OFFCURVE",
"356 111 OFFCURVE",
"319 111 CURVE SMOOTH",
"271 111 OFFCURVE",
"240 148 OFFCURVE",
"209 200 CURVE",
"200 135 LINE",
"533 520 LINE",
"488 512 LINE",
"506 491 OFFCURVE",
"520 471 OFFCURVE",
"543 433 CURVE",
"605 570 LINE",
"540 675 OFFCURVE",
"454 729 OFFCURVE",
"331 729 CURVE SMOOTH"
);
},
{
closed = 1;
nodes = (
"373 603 OFFCURVE",
"414 591 OFFCURVE",
"443 557 CURVE",
"454 606 LINE",
"253 370 LINE",
"282 359 LINE",
"282 646 LINE",
"252 585 LINE",
"273 599 OFFCURVE",
"297 603 OFFCURVE",
"324 603 CURVE SMOOTH"
);
}
);
width = 606;
},
{
associatedMasterId = UUID0;
layerId = "7E95A2A8-5900-43B9-A104-91CF3A0C6271";
width = 600;
},
{
layerId = "6E1A9BF3-6A06-44F2-8E17-ACCB47751CD5";
paths = (
{
closed = 1;
nodes = (
"164 726 OFFCURVE",
"93 666 OFFCURVE",
"61 635 CURVE",
"162 559 LINE",
"129 622 LINE",
"129 184 LINE",
"153 259 LINE",
"68 143 LINE",
"105 82 OFFCURVE",
"166 -11 OFFCURVE",
"292 -11 CURVE SMOOTH",
"414 -11 OFFCURVE",
"488 100 OFFCURVE",
"517 160 CURVE",
"405 160 LINE",
"394 138 OFFCURVE",
"355 79 OFFCURVE",
"292 79 CURVE SMOOTH",
"233 79 OFFCURVE",
"189 129 OFFCURVE",
"172 168 CURVE",
"159 113 LINE",
"489 574 LINE",
"437 569 LINE",
"483 533 OFFCURVE",
"500 479 OFFCURVE",
"508 465 CURVE",
"554 573 LINE",
"501 659 OFFCURVE",
"412 726 OFFCURVE",
"290 726 CURVE SMOOTH"
);
},
{
closed = 1;
nodes = (
"346 636 OFFCURVE",
"392 611 OFFCURVE",
"411 593 CURVE",
"422 636 LINE",
"198 319 LINE",
"222 310 LINE",
"222 670 LINE",
"215 625 LINE",
"211 624 OFFCURVE",
"238 636 OFFCURVE",
"288 636 CURVE SMOOTH"
);
}
);
width = 579.21311;
},
{
layerId = "38768EF3-7794-49DB-B097-CE6891208EBB";
paths = (
{
closed = 1;
nodes = (
"192 727 OFFCURVE",
"118 675 OFFCURVE",
"64 621 CURVE",
"171 535 LINE",
"137 599 LINE",
"137 192 LINE",
"164 269 LINE",
"70 151 LINE",
"122 65 OFFCURVE",
"187 -13 OFFCURVE",
"304 -13 CURVE SMOOTH",
"414 -13 OFFCURVE",
"493 68 OFFCURVE",
"541 168 CURVE",
"410 168 LINE",
"392 136 OFFCURVE",
"355 94 OFFCURVE",
"305 94 CURVE SMOOTH",
"251 94 OFFCURVE",
"213 138 OFFCURVE",
"189 183 CURVE",
"178 123 LINE",
"509 549 LINE",
"461 542 LINE",
"494 513 OFFCURVE",
"509 475 OFFCURVE",
"524 450 CURVE",
"578 572 LINE",
"519 666 OFFCURVE",
"432 727 OFFCURVE",
"309 727 CURVE SMOOTH"
);
},
{
closed = 1;
nodes = (
"359 621 OFFCURVE",
"402 602 OFFCURVE",
"426 576 CURVE",
"437 622 LINE",
"224 343 LINE",
"250 333 LINE",
"250 659 LINE",
"232 606 LINE",
"240 612 OFFCURVE",
"265 621 OFFCURVE",
"305 621 CURVE SMOOTH"
);
}
);
width = 591.67213;
}
);
unicode = 1C71;
},
{
glyphname = uni1C72;
lastChange = "2019-10-15 17:35:40 +0000";
layers = (
{
layerId = UUID0;
paths = (
{
closed = 1;
nodes = (
"417 -10 OFFCURVE",
"485 57 OFFCURVE",
"498 68 CURVE",
"403 135 LINE",
"435 72 LINE",
"435 538 LINE",
"413 465 LINE",
"490 579 LINE",
"466 618 OFFCURVE",
"409 725 OFFCURVE",
"275 725 CURVE SMOOTH",
"141 725 OFFCURVE",
"72 586 OFFCURVE",
"60 563 CURVE",
"155 563 LINE",
"161 576 OFFCURVE",
"201 650 OFFCURVE",
"275 650 CURVE SMOOTH",
"339 650 OFFCURVE",
"389 594 OFFCURVE",
"400 561 CURVE",
"414 611 LINE",
"86 119 LINE",
"140 122 LINE",
"82 164 OFFCURVE",
"65 233 OFFCURVE",
"62 236 CURVE",
"24 141 LINE",
"71 62 OFFCURVE",
"162 -10 OFFCURVE",
"283 -10 CURVE SMOOTH"
);
},
{
closed = 1;
nodes = (
"222 65 OFFCURVE",
"173 95 OFFCURVE",
"158 107 CURVE",
"147 66 LINE",
"381 418 LINE",
"359 425 LINE",
"359 35 LINE",
"394 91 LINE",
"377 79 OFFCURVE",
"342 65 OFFCURVE",
"283 65 CURVE SMOOTH"
);
}
);
width = 568;
},
{
layerId = "9C387D97-1150-45A6-AF8D-2AAB62D95D5D";
paths = (
{
closed = 1;
nodes = (
"392 -15 OFFCURVE",
"470 28 OFFCURVE",
"549 109 CURVE",
"435 206 LINE",
"470 142 LINE",
"470 512 LINE",
"441 433 LINE",
"544 554 LINE",
"476 669 OFFCURVE",
"406 729 OFFCURVE",
"299 729 CURVE SMOOTH",
"204 729 OFFCURVE",
"119 682 OFFCURVE",
"49 536 CURVE",
"201 536 LINE",
"227 580 OFFCURVE",
"261 603 OFFCURVE",
"298 603 CURVE SMOOTH",
"346 603 OFFCURVE",
"377 566 OFFCURVE",
"408 514 CURVE",
"417 579 LINE",
"84 194 LINE",
"129 202 LINE",
"111 223 OFFCURVE",
"97 243 OFFCURVE",
"74 281 CURVE",
"12 144 LINE",
"77 39 OFFCURVE",
"163 -15 OFFCURVE",
"286 -15 CURVE SMOOTH"
);
},
{
closed = 1;
nodes = (
"244 111 OFFCURVE",
"203 123 OFFCURVE",
"174 157 CURVE",
"163 108 LINE",
"364 344 LINE",
"335 355 LINE",
"335 68 LINE",
"365 129 LINE",
"344 115 OFFCURVE",
"320 111 OFFCURVE",
"293 111 CURVE SMOOTH"
);
}
);
width = 606;
},
{
associatedMasterId = "9C387D97-1150-45A6-AF8D-2AAB62D95D5D";
layerId = "F9BBF4F1-896A-44FB-8A58-7E3475CCE104";
name = "Oct 3 19, 17:51";
paths = (
{
closed = 1;
nodes = (
"202 536 LINE",
"228 580 OFFCURVE",
"262 603 OFFCURVE",
"300 603 CURVE SMOOTH",
"345 603 OFFCURVE",
"375 570 OFFCURVE",
"404 522 CURVE",
"424 585 LINE",
"59 165 LINE",
"131 70 LINE",
"545 554 LINE",
"477 669 OFFCURVE",
"407 729 OFFCURVE",
"300 729 CURVE SMOOTH",
"205 729 OFFCURVE",
"120 682 OFFCURVE",
"50 536 CURVE"
);
},
{
closed = 1;
nodes = (
"336 369 LINE",
"336 0 LINE",
"471 98 LINE",
"471 542 LINE"
);
},
{
closed = 1;
nodes = (
"471 187 LINE",
"417 134 OFFCURVE",
"368 111 OFFCURVE",
"303 111 CURVE SMOOTH",
"217 111 OFFCURVE",
"150 151 OFFCURVE",
"82 283 CURVE",
"18 144 LINE",
"85 35 OFFCURVE",
"171 -15 OFFCURVE",
"302 -15 CURVE SMOOTH",
"392 -15 OFFCURVE",
"481 37 OFFCURVE",
"550 121 CURVE"
);
}
);
width = 600;
},
{
associatedMasterId = UUID0;
layerId = "7E95A2A8-5900-43B9-A104-91CF3A0C6271";
width = 600;
},
{
associatedMasterId = UUID0;
layerId = "AF518EC2-FC9C-4567-8916-3D0B36F256C3";
name = "Oct 15 19, 20:33";
paths = (
{
closed = 1;
nodes = (
"417 -10 OFFCURVE",
"485 57 OFFCURVE",
"498 68 CURVE",
"403 135 LINE",
"435 72 LINE",
"435 538 LINE",
"413 465 LINE",
"490 579 LINE",
"466 618 OFFCURVE",
"409 725 OFFCURVE",
"275 725 CURVE SMOOTH",
"141 725 OFFCURVE",
"72 586 OFFCURVE",
"60 563 CURVE",
"155 563 LINE",
"161 576 OFFCURVE",
"201 650 OFFCURVE",
"275 650 CURVE SMOOTH",
"339 650 OFFCURVE",
"389 594 OFFCURVE",
"400 561 CURVE",
"414 611 LINE",
"86 119 LINE",
"140 122 LINE",
"82 164 OFFCURVE",
"65 233 OFFCURVE",
"62 236 CURVE",
"24 141 LINE",
"71 62 OFFCURVE",
"162 -10 OFFCURVE",
"283 -10 CURVE SMOOTH"
);
},
{
closed = 1;
nodes = (
"222 65 OFFCURVE",
"173 95 OFFCURVE",
"158 107 CURVE",
"147 66 LINE",
"381 418 LINE",
"359 425 LINE",
"359 35 LINE",
"356 73 LINE",
"371 81 OFFCURVE",
"342 65 OFFCURVE",
"283 65 CURVE SMOOTH"
);
}
);
visible = 1;
width = 568;
},
{
layerId = "6E1A9BF3-6A06-44F2-8E17-ACCB47751CD5";
paths = (
{
closed = 1;
nodes = (
"410 -11 OFFCURVE",
"481 48 OFFCURVE",
"513 80 CURVE",
"412 156 LINE",
"445 93 LINE",
"445 530 LINE",
"421 456 LINE",
"506 572 LINE",
"469 633 OFFCURVE",
"408 726 OFFCURVE",
"282 726 CURVE SMOOTH",
"160 726 OFFCURVE",
"86 614 OFFCURVE",
"57 555 CURVE",
"169 555 LINE",
"180 577 OFFCURVE",
"219 636 OFFCURVE",
"282 636 CURVE SMOOTH",
"341 636 OFFCURVE",
"385 586 OFFCURVE",
"402 547 CURVE",
"415 602 LINE",
"85 141 LINE",
"137 146 LINE",
"91 181 OFFCURVE",
"74 236 OFFCURVE",
"66 249 CURVE",
"20 142 LINE",
"73 55 OFFCURVE",
"162 -11 OFFCURVE",
"284 -11 CURVE SMOOTH"
);
},
{
closed = 1;
nodes = (
"228 79 OFFCURVE",
"182 103 OFFCURVE",
"163 122 CURVE",
"152 78 LINE",
"376 396 LINE",
"352 404 LINE",
"352 45 LINE",
"385 102 LINE",
"367 90 OFFCURVE",
"336 79 OFFCURVE",
"286 79 CURVE SMOOTH"
);
}
);
width = 579.21311;
},
{
layerId = "38768EF3-7794-49DB-B097-CE6891208EBB";
paths = (
{
closed = 1;
nodes = (
"402 -13 OFFCURVE",
"476 39 OFFCURVE",
"530 93 CURVE",
"423 179 LINE",
"457 116 LINE",
"457 522 LINE",
"430 445 LINE",
"524 564 LINE",
"472 650 OFFCURVE",
"407 727 OFFCURVE",
"290 727 CURVE SMOOTH",
"180 727 OFFCURVE",
"101 646 OFFCURVE",
"53 546 CURVE",
"184 546 LINE",
"202 578 OFFCURVE",
"239 621 OFFCURVE",
"289 621 CURVE SMOOTH",
"343 621 OFFCURVE",
"381 577 OFFCURVE",
"405 532 CURVE",
"416 591 LINE",
"85 166 LINE",
"133 172 LINE",
"100 201 OFFCURVE",
"85 239 OFFCURVE",
"70 264 CURVE",
"16 143 LINE",
"75 48 OFFCURVE",
"162 -13 OFFCURVE",
"285 -13 CURVE SMOOTH"
);
},
{
closed = 1;
nodes = (
"235 94 OFFCURVE",
"192 112 OFFCURVE",
"168 138 CURVE",
"157 92 LINE",
"370 372 LINE",
"344 381 LINE",
"344 56 LINE",
"376 115 LINE",
"356 102 OFFCURVE",
"329 94 OFFCURVE",
"289 94 CURVE SMOOTH"
);
}
);
width = 591.67213;
}
);
unicode = 1C72;
},
{
glyphname = uni1C73;
lastChange = "2019-10-15 17:35:40 +0000";
layers = (
{
layerId = UUID0;
paths = (
{
closed = 1;
nodes = (
"510 -10 OFFCURVE",
"620 148 OFFCURVE",
"620 357 CURVE SMOOTH",
"620 566 OFFCURVE",
"510 724 OFFCURVE",
"316 724 CURVE SMOOTH",
"156 724 OFFCURVE",
"76 608 OFFCURVE",
"45 477 CURVE",
"137 477 LINE",
"144 543 OFFCURVE",
"217 649 OFFCURVE",
"316 649 CURVE SMOOTH",
"422 649 OFFCURVE",
"488 578 OFFCURVE",
"516 480 CURVE",
"544 477 LINE",
"525 495 OFFCURVE",
"488 531 OFFCURVE",
"420 531 CURVE SMOOTH",
"318 531 OFFCURVE",
"254 453 OFFCURVE",
"254 357 CURVE SMOOTH",
"254 261 OFFCURVE",
"318 183 OFFCURVE",
"420 183 CURVE SMOOTH",
"488 183 OFFCURVE",
"525 217 OFFCURVE",
"542 236 CURVE",
"516 232 LINE",
"488 143 OFFCURVE",
"422 65 OFFCURVE",
"316 65 CURVE SMOOTH",
"217 65 OFFCURVE",
"144 171 OFFCURVE",
"137 237 CURVE",
"45 237 LINE",
"76 106 OFFCURVE",
"156 -10 OFFCURVE",
"316 -10 CURVE SMOOTH"
);
},
{
closed = 1;
nodes = (
"372 254 OFFCURVE",
"325 301 OFFCURVE",
"325 357 CURVE SMOOTH",
"325 413 OFFCURVE",
"372 460 OFFCURVE",
"428 460 CURVE SMOOTH",
"484 460 OFFCURVE",
"531 413 OFFCURVE",
"531 357 CURVE SMOOTH",
"531 301 OFFCURVE",
"484 254 OFFCURVE",
"428 254 CURVE SMOOTH"
);
}
);
width = 669;
},
{
layerId = "9C387D97-1150-45A6-AF8D-2AAB62D95D5D";
paths = (
{
closed = 1;
nodes = (
"535 -15 OFFCURVE",
"655 129 OFFCURVE",
"655 357 CURVE SMOOTH",
"655 590 OFFCURVE",
"539 729 OFFCURVE",
"346 729 CURVE SMOOTH",
"181 729 OFFCURVE",
"68 633 OFFCURVE",
"32 462 CURVE",
"179 462 LINE",
"198 553 OFFCURVE",
"257 603 OFFCURVE",
"346 603 CURVE SMOOTH",
"410 603 OFFCURVE",
"482 576 OFFCURVE",
"510 471 CURVE",
"534 471 LINE",
"499 522 OFFCURVE",
"463 532 OFFCURVE",
"428 532 CURVE SMOOTH",
"338 532 OFFCURVE",
"265 455 OFFCURVE",
"265 357 CURVE SMOOTH",
"265 259 OFFCURVE",
"338 182 OFFCURVE",
"428 182 CURVE SMOOTH",
"460 182 OFFCURVE",
"499 192 OFFCURVE",
"536 243 CURVE",
"510 243 LINE",
"482 138 OFFCURVE",
"410 111 OFFCURVE",
"346 111 CURVE SMOOTH",
"257 111 OFFCURVE",
"198 161 OFFCURVE",
"179 252 CURVE",
"32 252 LINE",
"65 82 OFFCURVE",
"180 -15 OFFCURVE",
"346 -15 CURVE SMOOTH"
);
},
{
closed = 1;
nodes = (
"378 391 OFFCURVE",
"406 418 OFFCURVE",
"440 418 CURVE SMOOTH",
"474 418 OFFCURVE",
"502 391 OFFCURVE",
"502 357 CURVE SMOOTH",
"502 323 OFFCURVE",
"474 296 OFFCURVE",
"440 296 CURVE SMOOTH",
"406 296 OFFCURVE",
"378 323 OFFCURVE",
"378 357 CURVE SMOOTH"
);
}
);
width = 691;
},
{
associatedMasterId = "9C387D97-1150-45A6-AF8D-2AAB62D95D5D";
layerId = "76E20C08-0A18-457E-8F7E-37F7B4E5FA2D";
name = "Oct 3 19, 17:04";
paths = (
{
closed = 1;
nodes = (
"571 180 OFFCURVE",
"650 259 OFFCURVE",
"650 357 CURVE SMOOTH",
"650 455 OFFCURVE",
"571 534 OFFCURVE",
"473 534 CURVE SMOOTH",
"374 534 OFFCURVE",
"295 455 OFFCURVE",
"295 357 CURVE SMOOTH",
"295 259 OFFCURVE",
"374 180 OFFCURVE",
"473 180 CURVE SMOOTH"
);
},
{
closed = 1;
nodes = (
"98 82 OFFCURVE",
"213 -15 OFFCURVE",
"379 -15 CURVE SMOOTH",
"568 -15 OFFCURVE",
"688 129 OFFCURVE",
"688 357 CURVE SMOOTH",
"688 590 OFFCURVE",
"572 729 OFFCURVE",
"379 729 CURVE SMOOTH",
"214 729 OFFCURVE",
"101 633 OFFCURVE",
"65 462 CURVE",
"212 462 LINE",
"231 553 OFFCURVE",
"290 603 OFFCURVE",
"379 603 CURVE SMOOTH",
"484 603 OFFCURVE",
"554 505 OFFCURVE",
"554 357 CURVE SMOOTH",
"554 209 OFFCURVE",
"484 111 OFFCURVE",
"379 111 CURVE SMOOTH",
"290 111 OFFCURVE",
"231 161 OFFCURVE",
"212 252 CURVE",
"65 252 LINE"
);
},
{
closed = 1;
nodes = (
"439 296 OFFCURVE",
"411 323 OFFCURVE",
"411 357 CURVE SMOOTH",
"411 391 OFFCURVE",
"439 418 OFFCURVE",
"473 418 CURVE SMOOTH",
"506 418 OFFCURVE",
"534 391 OFFCURVE",
"534 357 CURVE SMOOTH",
"534 323 OFFCURVE",
"506 296 OFFCURVE",
"473 296 CURVE SMOOTH"
);
}
);
width = 724;
},
{
associatedMasterId = UUID0;
layerId = "7E95A2A8-5900-43B9-A104-91CF3A0C6271";
width = 600;
},
{
associatedMasterId = UUID0;
layerId = "88FA79A5-19A5-4F75-A151-C65479DE1E49";
name = "Oct 15 19, 20:34";
paths = (
{
closed = 1;
nodes = (
"510 -10 OFFCURVE",
"620 148 OFFCURVE",
"620 357 CURVE SMOOTH",
"620 566 OFFCURVE",
"510 724 OFFCURVE",
"316 724 CURVE SMOOTH",
"156 724 OFFCURVE",
"76 608 OFFCURVE",
"45 477 CURVE",
"137 477 LINE",
"144 543 OFFCURVE",
"217 649 OFFCURVE",
"316 649 CURVE SMOOTH",
"422 649 OFFCURVE",
"488 578 OFFCURVE",
"516 480 CURVE",
"504 510 LINE",
"518 496 OFFCURVE",
"488 531 OFFCURVE",
"420 531 CURVE SMOOTH",
"318 531 OFFCURVE",
"254 453 OFFCURVE",
"254 357 CURVE SMOOTH",
"254 261 OFFCURVE",
"318 183 OFFCURVE",
"420 183 CURVE SMOOTH",
"488 183 OFFCURVE",
"518 218 OFFCURVE",
"504 204 CURVE",
"516 232 LINE",
"488 143 OFFCURVE",
"422 65 OFFCURVE",
"316 65 CURVE SMOOTH",
"217 65 OFFCURVE",
"144 171 OFFCURVE",
"137 237 CURVE",
"45 237 LINE",
"76 106 OFFCURVE",
"156 -10 OFFCURVE",
"316 -10 CURVE SMOOTH"
);
},
{
closed = 1;
nodes = (
"372 254 OFFCURVE",
"325 301 OFFCURVE",
"325 357 CURVE SMOOTH",
"325 413 OFFCURVE",
"372 460 OFFCURVE",
"428 460 CURVE SMOOTH",
"484 460 OFFCURVE",
"531 413 OFFCURVE",
"531 357 CURVE SMOOTH",
"531 301 OFFCURVE",
"484 254 OFFCURVE",
"428 254 CURVE SMOOTH"
);
}
);
visible = 1;
width = 669;
},
{
layerId = "6E1A9BF3-6A06-44F2-8E17-ACCB47751CD5";
paths = (
{
closed = 1;
nodes = (
"517 -11 OFFCURVE",
"630 142 OFFCURVE",
"630 357 CURVE SMOOTH",
"630 573 OFFCURVE",
"519 725 OFFCURVE",
"325 725 CURVE SMOOTH",
"163 725 OFFCURVE",
"74 615 OFFCURVE",
"41 473 CURVE",
"149 473 LINE",
"160 546 OFFCURVE",
"229 635 OFFCURVE",
"325 635 CURVE SMOOTH",
"418 635 OFFCURVE",
"486 577 OFFCURVE",
"514 477 CURVE",
"541 475 LINE",
"517 503 OFFCURVE",
"481 531 OFFCURVE",
"422 531 CURVE SMOOTH",
"324 531 OFFCURVE",
"257 454 OFFCURVE",
"257 357 CURVE SMOOTH",
"257 260 OFFCURVE",
"324 183 OFFCURVE",
"422 183 CURVE SMOOTH",
"480 183 OFFCURVE",
"517 210 OFFCURVE",
"540 238 CURVE",
"514 235 LINE",
"486 142 OFFCURVE",
"418 79 OFFCURVE",
"325 79 CURVE SMOOTH",
"229 79 OFFCURVE",
"160 168 OFFCURVE",
"149 241 CURVE",
"41 241 LINE",
"73 99 OFFCURVE",
"163 -11 OFFCURVE",
"325 -11 CURVE SMOOTH"
);
},
{
closed = 1;
nodes = (
"374 294 OFFCURVE",
"349 336 OFFCURVE",
"359 375 CURVE SMOOTH",
"369 414 OFFCURVE",
"410 440 OFFCURVE",
"450 430 CURVE SMOOTH",
"489 420 OFFCURVE",
"514 378 OFFCURVE",
"504 339 CURVE SMOOTH",
"494 300 OFFCURVE",
"453 274 OFFCURVE",
"413 284 CURVE SMOOTH"
);
}
);
width = 675.4918;
},
{
layerId = "38768EF3-7794-49DB-B097-CE6891208EBB";
paths = (
{
closed = 1;
nodes = (
"525 -13 OFFCURVE",
"642 136 OFFCURVE",
"642 357 CURVE SMOOTH",
"642 581 OFFCURVE",
"528 727 OFFCURVE",
"335 727 CURVE SMOOTH",
"171 727 OFFCURVE",
"71 623 OFFCURVE",
"37 468 CURVE",
"163 468 LINE",
"178 549 OFFCURVE",
"242 620 OFFCURVE",
"335 620 CURVE SMOOTH",
"414 620 OFFCURVE",
"484 577 OFFCURVE",
"512 474 CURVE",
"538 473 LINE",
"509 512 OFFCURVE",
"473 531 OFFCURVE",
"425 531 CURVE SMOOTH",
"331 531 OFFCURVE",
"261 454 OFFCURVE",
"261 357 CURVE SMOOTH",
"261 260 OFFCURVE",
"331 183 OFFCURVE",
"425 183 CURVE SMOOTH",
"471 183 OFFCURVE",
"509 202 OFFCURVE",
"538 240 CURVE",
"512 239 LINE",
"484 140 OFFCURVE",
"414 94 OFFCURVE",
"335 94 CURVE SMOOTH",
"242 94 OFFCURVE",
"178 165 OFFCURVE",
"163 246 CURVE",
"37 246 LINE",
"69 91 OFFCURVE",
"171 -13 OFFCURVE",
"335 -13 CURVE SMOOTH"
);
},
{
closed = 1;
nodes = (
"376 339 OFFCURVE",
"376 374 OFFCURVE",
"397 395 CURVE SMOOTH",
"418 416 OFFCURVE",
"453 417 OFFCURVE",
"474 396 CURVE SMOOTH",
"495 375 OFFCURVE",
"495 340 OFFCURVE",
"474 319 CURVE SMOOTH",
"453 298 OFFCURVE",
"418 297 OFFCURVE",
"397 318 CURVE SMOOTH"
);
}
);
width = 682.70492;
}
);
unicode = 1C73;
},
{
glyphname = uni1C74;
lastChange = "2019-10-15 17:35:40 +0000";
layers = (
{
layerId = UUID0;
paths = (
{
closed = 1;
nodes = (
"171 0 LINE",
"171 464 LINE",
"143 396 LINE",
"396 643 LINE",
"363 619 LINE",
"376 609 OFFCURVE",
"492 525 OFFCURVE",
"492 355 CURVE SMOOTH",
"492 169 OFFCURVE",
"351 43 OFFCURVE",
"309 0 CURVE",
"426 0 LINE",
"465 41 OFFCURVE",
"580 179 OFFCURVE",
"580 355 CURVE SMOOTH",
"580 526 OFFCURVE",
"448 683 OFFCURVE",
"368 725 CURVE",
"143 506 LINE",
"171 494 LINE",
"171 714 LINE",
"85 714 LINE",
"85 0 LINE"
);
}
);
width = 629;
},
{
guideLines = (
{
angle = 270;
position = "{410, 729}";
}
);
layerId = "9C387D97-1150-45A6-AF8D-2AAB62D95D5D";
paths = (
{
closed = 1;
nodes = (
"223 0 LINE",
"223 485 LINE",
"185 366 LINE",
"429 595 LINE",
"353 571 LINE",
"442 511 OFFCURVE",
"467 433 OFFCURVE",
"467 346 CURVE SMOOTH",
"467 237 OFFCURVE",
"411 112 OFFCURVE",
"324 0 CURVE",
"503 0 LINE",
"555 83 OFFCURVE",
"622 210 OFFCURVE",
"622 356 CURVE SMOOTH",
"622 529 OFFCURVE",
"529 645 OFFCURVE",
"400 729 CURVE",
"191 533 LINE",
"223 509 LINE",
"223 714 LINE",
"75 714 LINE",
"75 0 LINE"
);
}
);
width = 658;
},
{
associatedMasterId = "9C387D97-1150-45A6-AF8D-2AAB62D95D5D";
layerId = "ABE18FF7-CAF7-49F7-BCF7-A3F8A127F041";
name = "Oct 3 19, 14:40";
paths = (
{
closed = 1;
nodes = (
"241 0 LINE",
"241 485 LINE",
"203 352 LINE",
"457 571 LINE",
"399 560 LINE",
"472 511 OFFCURVE",
"495 433 OFFCURVE",
"495 346 CURVE SMOOTH",
"495 237 OFFCURVE",
"439 112 OFFCURVE",
"332 0 CURVE",
"521 0 LINE",
"593 83 OFFCURVE",
"650 200 OFFCURVE",
"650 356 CURVE SMOOTH",
"650 522 OFFCURVE",
"575 635 OFFCURVE",
"455 729 CURVE",
"209 513 LINE",
"241 509 LINE",
"241 714 LINE",
"90 714 LINE",
"90 0 LINE"
);
}
);
width = 720;
},
{
associatedMasterId = UUID0;
layerId = "7E95A2A8-5900-43B9-A104-91CF3A0C6271";
width = 600;
},
{
layerId = "6E1A9BF3-6A06-44F2-8E17-ACCB47751CD5";
paths = (
{
closed = 1;
nodes = (
"186 0 LINE",
"186 470 LINE",
"155 387 LINE",
"406 629 LINE",
"360 605 LINE",
"395 580 OFFCURVE",
"485 498 OFFCURVE",
"485 352 CURVE SMOOTH",
"485 189 OFFCURVE",
"369 63 OFFCURVE",
"313 0 CURVE",
"449 0 LINE",
"492 53 OFFCURVE",
"592 188 OFFCURVE",
"592 355 CURVE SMOOTH",
"592 527 OFFCURVE",
"472 672 OFFCURVE",
"377 726 CURVE",
"157 514 LINE",
"186 498 LINE",
"186 714 LINE",
"82 714 LINE",
"82 0 LINE"
);
}
);
width = 637.55738;
},
{
layerId = "38768EF3-7794-49DB-B097-CE6891208EBB";
paths = (
{
closed = 1;
nodes = (
"203 0 LINE",
"203 477 LINE",
"169 377 LINE",
"417 613 LINE",
"357 589 LINE",
"417 548 OFFCURVE",
"477 468 OFFCURVE",
"477 349 CURVE SMOOTH",
"477 211 OFFCURVE",
"389 86 OFFCURVE",
"318 0 CURVE",
"474 0 LINE",
"521 67 OFFCURVE",
"606 198 OFFCURVE",
"606 355 CURVE SMOOTH",
"606 528 OFFCURVE",
"499 659 OFFCURVE",
"388 727 CURVE",
"173 523 LINE",
"203 503 LINE",
"203 714 LINE",
"79 714 LINE",
"79 0 LINE"
);
}
);
width = 647.06557;
}
);
unicode = 1C74;
},
{
glyphname = uni1C76;
lastChange = "2019-10-15 17:35:40 +0000";
layers = (
{
layerId = UUID0;
paths = (
{
closed = 1;
nodes = (
"503 -10 OFFCURVE",
"606 156 OFFCURVE",
"606 353 CURVE SMOOTH",
"606 386 OFFCURVE",
"604 417 OFFCURVE",
"600 446 CURVE",
"511 446 LINE",
"515 417 OFFCURVE",
"518 386 OFFCURVE",
"518 353 CURVE SMOOTH",
"518 190 OFFCURVE",
"441 65 OFFCURVE",
"336 65 CURVE SMOOTH",
"256 65 OFFCURVE",
"140 159 OFFCURVE",
"147 289 CURVE",
"136 265 LINE",
"153 254 OFFCURVE",
"200 221 OFFCURVE",
"263 221 CURVE SMOOTH",
"339 221 OFFCURVE",
"406 294 OFFCURVE",
"406 466 CURVE SMOOTH",
"406 570 OFFCURVE",
"368 725 OFFCURVE",
"223 725 CURVE SMOOTH",
"106 725 OFFCURVE",
"54 616 OFFCURVE",
"49 522 CURVE",
"126 522 LINE",
"126 594 OFFCURVE",
"168 650 OFFCURVE",
"223 650 CURVE SMOOTH",
"286 650 OFFCURVE",
"325 578 OFFCURVE",
"325 466 CURVE SMOOTH",
"325 328 OFFCURVE",
"288 296 OFFCURVE",
"221 296 CURVE SMOOTH",
"158 296 OFFCURVE",
"76 372 OFFCURVE",
"50 398 CURVE",
"50 125 OFFCURVE",
"179 -10 OFFCURVE",
"336 -10 CURVE SMOOTH"
);
},
{
closed = 1;
nodes = (
"582 510 OFFCURVE",
"610 538 OFFCURVE",
"610 572 CURVE SMOOTH",
"610 606 OFFCURVE",
"582 634 OFFCURVE",
"548 634 CURVE SMOOTH",
"514 634 OFFCURVE",
"486 606 OFFCURVE",
"486 572 CURVE SMOOTH",
"486 538 OFFCURVE",
"514 510 OFFCURVE",
"548 510 CURVE SMOOTH"
);
}
);
width = 655;
},
{
layerId = "9C387D97-1150-45A6-AF8D-2AAB62D95D5D";
paths = (
{
closed = 1;
nodes = (
"501 -15 OFFCURVE",
"637 136 OFFCURVE",
"637 351 CURVE SMOOTH",
"637 384 OFFCURVE",
"635 416 OFFCURVE",
"632 447 CURVE",
"486 447 LINE",
"490 416 OFFCURVE",
"492 384 OFFCURVE",
"492 351 CURVE SMOOTH",
"492 215 OFFCURVE",
"427 111 OFFCURVE",
"334 111 CURVE SMOOTH",
"264 111 OFFCURVE",
"214 160 OFFCURVE",
"198 243 CURVE",
"175 216 LINE",
"192 204 OFFCURVE",
"231 194 OFFCURVE",
"262 194 CURVE SMOOTH",
"365 194 OFFCURVE",
"431 294 OFFCURVE",
"431 448 CURVE SMOOTH",
"431 620 OFFCURVE",
"346 729 OFFCURVE",
"214 729 CURVE SMOOTH",
"103 729 OFFCURVE",
"36 642 OFFCURVE",
"36 521 CURVE",
"163 521 LINE",
"163 571 OFFCURVE",
"183 603 OFFCURVE",
"214 603 CURVE SMOOTH",
"254 603 OFFCURVE",
"276 549 OFFCURVE",
"276 448 CURVE SMOOTH",
"276 357 OFFCURVE",
"251 315 OFFCURVE",
"208 315 CURVE SMOOTH",
"163 315 OFFCURVE",
"84 368 OFFCURVE",
"36 408 CURVE",
"36 131 OFFCURVE",
"162 -15 OFFCURVE",
"334 -15 CURVE SMOOTH"
);
},
{
closed = 1;
nodes = (
"604 509 OFFCURVE",
"645 550 OFFCURVE",
"645 598 CURVE SMOOTH",
"645 647 OFFCURVE",
"604 686 OFFCURVE",
"556 686 CURVE SMOOTH",
"507 686 OFFCURVE",
"467 647 OFFCURVE",
"467 598 CURVE SMOOTH",
"467 550 OFFCURVE",
"507 509 OFFCURVE",
"556 509 CURVE SMOOTH"
);
}
);
width = 677;
},
{
associatedMasterId = UUID0;
layerId = "7E95A2A8-5900-43B9-A104-91CF3A0C6271";
width = 600;
},
{
layerId = "6E1A9BF3-6A06-44F2-8E17-ACCB47751CD5";
paths = (
{
closed = 1;
nodes = (
"502 -11 OFFCURVE",
"615 150 OFFCURVE",
"615 352 CURVE SMOOTH",
"615 385 OFFCURVE",
"613 417 OFFCURVE",
"609 446 CURVE",
"504 446 LINE",
"508 417 OFFCURVE",
"510 385 OFFCURVE",
"510 352 CURVE SMOOTH",
"510 197 OFFCURVE",
"437 79 OFFCURVE",
"335 79 CURVE SMOOTH",
"258 79 OFFCURVE",
"162 159 OFFCURVE",
"162 275 CURVE",
"148 251 LINE",
"165 239 OFFCURVE",
"209 213 OFFCURVE",
"263 213 CURVE SMOOTH",
"347 213 OFFCURVE",
"413 294 OFFCURVE",
"413 461 CURVE SMOOTH",
"413 585 OFFCURVE",
"362 726 OFFCURVE",
"220 726 CURVE SMOOTH",
"105 726 OFFCURVE",
"49 624 OFFCURVE",
"45 522 CURVE",
"137 522 LINE",
"137 587 OFFCURVE",
"172 636 OFFCURVE",
"220 636 CURVE SMOOTH",
"277 636 OFFCURVE",
"311 569 OFFCURVE",
"311 461 CURVE SMOOTH",
"311 337 OFFCURVE",
"277 302 OFFCURVE",
"217 302 CURVE SMOOTH",
"159 302 OFFCURVE",
"78 371 OFFCURVE",
"46 401 CURVE",
"46 127 OFFCURVE",
"174 -11 OFFCURVE",
"335 -11 CURVE SMOOTH"
);
},
{
closed = 1;
nodes = (
"588 510 OFFCURVE",
"620 542 OFFCURVE",
"620 580 CURVE SMOOTH",
"620 618 OFFCURVE",
"588 649 OFFCURVE",
"550 649 CURVE SMOOTH",
"512 649 OFFCURVE",
"480 618 OFFCURVE",
"480 580 CURVE SMOOTH",
"480 542 OFFCURVE",
"512 510 OFFCURVE",
"550 510 CURVE SMOOTH"
);
}
);
width = 661.4918;
},
{
layerId = "38768EF3-7794-49DB-B097-CE6891208EBB";
paths = (
{
closed = 1;
nodes = (
"502 -13 OFFCURVE",
"625 143 OFFCURVE",
"625 352 CURVE SMOOTH",
"625 385 OFFCURVE",
"623 417 OFFCURVE",
"620 446 CURVE",
"496 446 LINE",
"500 417 OFFCURVE",
"502 385 OFFCURVE",
"502 352 CURVE SMOOTH",
"502 205 OFFCURVE",
"432 94 OFFCURVE",
"335 94 CURVE SMOOTH",
"261 94 OFFCURVE",
"186 159 OFFCURVE",
"179 260 CURVE",
"161 235 LINE",
"178 223 OFFCURVE",
"219 204 OFFCURVE",
"263 204 CURVE SMOOTH",
"355 204 OFFCURVE",
"421 294 OFFCURVE",
"421 455 CURVE SMOOTH",
"421 601 OFFCURVE",
"355 727 OFFCURVE",
"217 727 CURVE SMOOTH",
"104 727 OFFCURVE",
"43 632 OFFCURVE",
"41 522 CURVE",
"149 522 LINE",
"149 580 OFFCURVE",
"177 621 OFFCURVE",
"217 621 CURVE SMOOTH",
"266 621 OFFCURVE",
"295 560 OFFCURVE",
"295 455 CURVE SMOOTH",
"295 346 OFFCURVE",
"265 308 OFFCURVE",
"213 308 CURVE SMOOTH",
"161 308 OFFCURVE",
"81 370 OFFCURVE",
"41 404 CURVE",
"41 129 OFFCURVE",
"168 -13 OFFCURVE",
"335 -13 CURVE SMOOTH"
);
},
{
closed = 1;
nodes = (
"595 510 OFFCURVE",
"632 546 OFFCURVE",
"632 588 CURVE SMOOTH",
"632 631 OFFCURVE",
"595 666 OFFCURVE",
"553 666 CURVE SMOOTH",
"510 666 OFFCURVE",
"474 631 OFFCURVE",
"474 588 CURVE SMOOTH",
"474 546 OFFCURVE",
"510 510 OFFCURVE",
"553 510 CURVE SMOOTH"
);
}
);
width = 668.70492;
}
);
unicode = 1C76;
},
{
glyphname = uni1C77;
lastChange = "2019-10-15 17:35:40 +0000";
layers = (
{
layerId = UUID0;
paths = (
{
closed = 1;
nodes = (
"374 158 LINE",
"318 158 LINE",
"487 -10 LINE",
"501 3 OFFCURVE",
"669 119 OFFCURVE",
"669 317 CURVE SMOOTH",
"669 519 OFFCURVE",
"539 725 OFFCURVE",
"332 725 CURVE SMOOTH",
"206 725 OFFCURVE",
"173 635 OFFCURVE",
"173 578 CURVE SMOOTH",
"173 422 OFFCURVE",
"359 295 OFFCURVE",
"617 308 CURVE",
"581 308 LINE",
"581 180 OFFCURVE",
"496 105 OFFCURVE",
"482 97 CURVE",
"516 73 LINE",
"346 246 LINE",
"176 73 LINE",
"207 97 LINE",
"205 103 OFFCURVE",
"138 158 OFFCURVE",
"138 286 CURVE SMOOTH",
"138 351 OFFCURVE",
"157 408 OFFCURVE",
"181 453 CURVE",
"101 490 LINE",
"72 436 OFFCURVE",
"49 368 OFFCURVE",
"49 286 CURVE SMOOTH",
"49 86 OFFCURVE",
"191 3 OFFCURVE",
"205 -10 CURVE"
);
},
{
closed = 1;
nodes = (
"260 614 OFFCURVE",
"285 650 OFFCURVE",
"343 650 CURVE SMOOTH",
"479 650 OFFCURVE",
"578 466 OFFCURVE",
"578 378 CURVE",
"602 380 LINE",
"477 372 OFFCURVE",
"260 429 OFFCURVE",
"260 572 CURVE SMOOTH"
);
}
);
width = 718;
},
{
layerId = "9C387D97-1150-45A6-AF8D-2AAB62D95D5D";
paths = (
{
closed = 1;
nodes = (
"417 175 LINE",
"353 175 LINE",
"542 -15 LINE",
"676 77 OFFCURVE",
"747 202 OFFCURVE",
"747 369 CURVE SMOOTH",
"747 566 OFFCURVE",
"597 729 OFFCURVE",
"427 729 CURVE SMOOTH",
"303 729 OFFCURVE",
"234 648 OFFCURVE",
"234 554 CURVE SMOOTH",
"234 407 OFFCURVE",
"414 302 OFFCURVE",
"623 302 CURVE",
"595 334 LINE",
"589 254 OFFCURVE",
"549 188 OFFCURVE",
"499 158 CURVE",
"553 139 LINE",
"385 305 LINE",
"224 146 LINE",
"275 159 LINE",
"223 193 OFFCURVE",
"191 257 OFFCURVE",
"191 333 CURVE SMOOTH",
"191 377 OFFCURVE",
"200 415 OFFCURVE",
"222 455 CURVE",
"86 511 LINE",
"53 451 OFFCURVE",
"36 379 OFFCURVE",
"36 304 CURVE SMOOTH",
"36 178 OFFCURVE",
"97 77 OFFCURVE",
"229 -15 CURVE"
);
},
{
closed = 1;
nodes = (
"391 583 OFFCURVE",
"410 603 OFFCURVE",
"442 603 CURVE SMOOTH",
"506 603 OFFCURVE",
"598 524 OFFCURVE",
"598 410 CURVE",
"618 419 LINE",
"501 419 OFFCURVE",
"391 467 OFFCURVE",
"391 550 CURVE SMOOTH"
);
}
);
width = 783;
},
{
associatedMasterId = UUID0;
layerId = "7E95A2A8-5900-43B9-A104-91CF3A0C6271";
width = 600;
},
{
layerId = "6E1A9BF3-6A06-44F2-8E17-ACCB47751CD5";
paths = (
{
closed = 1;
nodes = (
"387 163 LINE",
"328 163 LINE",
"503 -11 LINE",
"553 25 OFFCURVE",
"692 143 OFFCURVE",
"692 332 CURVE SMOOTH",
"692 533 OFFCURVE",
"556 726 OFFCURVE",
"360 726 CURVE SMOOTH",
"235 726 OFFCURVE",
"191 639 OFFCURVE",
"191 571 CURVE SMOOTH",
"191 418 OFFCURVE",
"375 297 OFFCURVE",
"619 306 CURVE",
"585 316 LINE",
"583 202 OFFCURVE",
"512 129 OFFCURVE",
"487 115 CURVE",
"527 92 LINE",
"358 263 LINE",
"190 95 LINE",
"227 115 LINE",
"210 130 OFFCURVE",
"154 187 OFFCURVE",
"154 300 CURVE SMOOTH",
"154 359 OFFCURVE",
"170 410 OFFCURVE",
"193 454 CURVE",
"97 496 LINE",
"66 440 OFFCURVE",
"45 371 OFFCURVE",
"45 291 CURVE SMOOTH",
"45 113 OFFCURVE",
"163 25 OFFCURVE",
"212 -11 CURVE"
);
},
{
closed = 1;
nodes = (
"299 605 OFFCURVE",
"322 636 OFFCURVE",
"372 636 CURVE SMOOTH",
"487 636 OFFCURVE",
"584 483 OFFCURVE",
"584 387 CURVE",
"607 392 LINE",
"484 386 OFFCURVE",
"299 440 OFFCURVE",
"299 566 CURVE SMOOTH"
);
}
);
width = 737.18033;
},
{
layerId = "38768EF3-7794-49DB-B097-CE6891208EBB";
paths = (
{
closed = 1;
nodes = (
"401 169 LINE",
"340 169 LINE",
"521 -13 LINE",
"610 49 OFFCURVE",
"718 170 OFFCURVE",
"718 349 CURVE SMOOTH",
"718 548 OFFCURVE",
"575 727 OFFCURVE",
"391 727 CURVE SMOOTH",
"267 727 OFFCURVE",
"211 643 OFFCURVE",
"211 563 CURVE SMOOTH",
"211 413 OFFCURVE",
"393 299 OFFCURVE",
"621 304 CURVE",
"590 324 LINE",
"586 226 OFFCURVE",
"529 156 OFFCURVE",
"493 135 CURVE",
"539 114 LINE",
"371 283 LINE",
"206 119 LINE",
"249 135 LINE",
"216 159 OFFCURVE",
"171 220 OFFCURVE",
"171 315 CURVE SMOOTH",
"171 367 OFFCURVE",
"184 412 OFFCURVE",
"206 454 CURVE",
"92 503 LINE",
"60 445 OFFCURVE",
"41 375 OFFCURVE",
"41 297 CURVE SMOOTH",
"41 143 OFFCURVE",
"132 49 OFFCURVE",
"220 -13 CURVE"
);
},
{
closed = 1;
nodes = (
"342 595 OFFCURVE",
"363 621 OFFCURVE",
"405 621 CURVE SMOOTH",
"496 621 OFFCURVE",
"591 502 OFFCURVE",
"591 398 CURVE",
"612 405 LINE",
"492 401 OFFCURVE",
"342 453 OFFCURVE",
"342 559 CURVE SMOOTH"
);
}
);
width = 758.4918;
}
);
unicode = 1C77;
},
{
glyphname = uni1C78;
lastChange = "2019-10-15 17:35:40 +0000";
layers = (
{
layerId = UUID0;
paths = (
{
closed = 1;
nodes = (
"167 590 OFFCURVE",
"196 610 OFFCURVE",
"196 658 CURVE SMOOTH",
"196 707 OFFCURVE",
"167 725 OFFCURVE",
"133 725 CURVE SMOOTH",
"99 725 OFFCURVE",
"72 707 OFFCURVE",
"72 658 CURVE SMOOTH",
"72 610 OFFCURVE",
"99 590 OFFCURVE",
"133 590 CURVE SMOOTH"
);
}
);
width = 268;
},
{
layerId = "9C387D97-1150-45A6-AF8D-2AAB62D95D5D";
paths = (
{
closed = 1;
nodes = (
"189 563 OFFCURVE",
"228 587 OFFCURVE",
"228 646 CURVE SMOOTH",
"228 707 OFFCURVE",
"189 729 OFFCURVE",
"143 729 CURVE SMOOTH",
"95 729 OFFCURVE",
"57 707 OFFCURVE",
"57 646 CURVE SMOOTH",
"57 587 OFFCURVE",
"95 563 OFFCURVE",
"143 563 CURVE SMOOTH"
);
}
);
width = 285;
},
{
associatedMasterId = UUID0;
layerId = "7E95A2A8-5900-43B9-A104-91CF3A0C6271";
width = 600;
},
{
layerId = "6E1A9BF3-6A06-44F2-8E17-ACCB47751CD5";
paths = (
{
closed = 1;
nodes = (
"173 582 OFFCURVE",
"205 603 OFFCURVE",
"205 654 CURVE SMOOTH",
"205 707 OFFCURVE",
"173 726 OFFCURVE",
"136 726 CURVE SMOOTH",
"98 726 OFFCURVE",
"68 707 OFFCURVE",
"68 654 CURVE SMOOTH",
"68 603 OFFCURVE",
"98 582 OFFCURVE",
"136 582 CURVE SMOOTH"
);
}
);
width = 273.01639;
},
{
layerId = "38768EF3-7794-49DB-B097-CE6891208EBB";
paths = (
{
closed = 1;
nodes = (
"180 573 OFFCURVE",
"216 596 OFFCURVE",
"216 650 CURVE SMOOTH",
"216 707 OFFCURVE",
"180 727 OFFCURVE",
"139 727 CURVE SMOOTH",
"97 727 OFFCURVE",
"63 707 OFFCURVE",
"63 650 CURVE SMOOTH",
"63 596 OFFCURVE",
"97 573 OFFCURVE",
"139 573 CURVE SMOOTH"
);
}
);
width = 278.59016;
}
);
unicode = 1C78;
},
{
glyphname = uni1C79;
lastChange = "2019-10-15 17:35:40 +0000";
layers = (
{
layerId = UUID0;
paths = (
{
closed = 1;
nodes = (
"167 -14 OFFCURVE",
"196 6 OFFCURVE",
"196 54 CURVE SMOOTH",
"196 103 OFFCURVE",
"167 121 OFFCURVE",
"133 121 CURVE SMOOTH",
"99 121 OFFCURVE",
"72 103 OFFCURVE",
"72 54 CURVE SMOOTH",
"72 6 OFFCURVE",
"99 -14 OFFCURVE",
"133 -14 CURVE SMOOTH"
);
}
);
width = 268;
},
{
layerId = "9C387D97-1150-45A6-AF8D-2AAB62D95D5D";
paths = (
{
closed = 1;
nodes = (
"189 -13 OFFCURVE",
"228 11 OFFCURVE",
"228 70 CURVE SMOOTH",
"228 131 OFFCURVE",
"189 153 OFFCURVE",
"143 153 CURVE SMOOTH",
"95 153 OFFCURVE",
"57 131 OFFCURVE",
"57 70 CURVE SMOOTH",
"57 11 OFFCURVE",
"95 -13 OFFCURVE",
"143 -13 CURVE SMOOTH"
);
}
);
width = 285;
},
{
associatedMasterId = UUID0;
layerId = "7E95A2A8-5900-43B9-A104-91CF3A0C6271";
width = 600;
},
{
layerId = "6E1A9BF3-6A06-44F2-8E17-ACCB47751CD5";
paths = (
{
closed = 1;
nodes = (
"173 -14 OFFCURVE",
"205 7 OFFCURVE",
"205 59 CURVE SMOOTH",
"205 111 OFFCURVE",
"173 130 OFFCURVE",
"136 130 CURVE SMOOTH",
"98 130 OFFCURVE",
"68 111 OFFCURVE",
"68 59 CURVE SMOOTH",
"68 7 OFFCURVE",
"98 -14 OFFCURVE",
"136 -14 CURVE SMOOTH"
);
}
);
width = 273.01639;
},
{
layerId = "38768EF3-7794-49DB-B097-CE6891208EBB";
paths = (
{
closed = 1;
nodes = (
"180 -14 OFFCURVE",
"216 9 OFFCURVE",
"216 64 CURVE SMOOTH",
"216 120 OFFCURVE",
"180 141 OFFCURVE",
"139 141 CURVE SMOOTH",
"97 141 OFFCURVE",
"63 120 OFFCURVE",
"63 64 CURVE SMOOTH",
"63 9 OFFCURVE",
"97 -14 OFFCURVE",
"139 -14 CURVE SMOOTH"
);
}
);
width = 278.59016;
}
);
unicode = 1C79;
},
{
glyphname = uni1C7A;
lastChange = "2019-10-15 17:35:40 +0000";
layers = (
{
layerId = UUID0;
paths = (
{
closed = 1;
nodes = (
"167 414 OFFCURVE",
"196 434 OFFCURVE",
"196 482 CURVE SMOOTH",
"196 532 OFFCURVE",
"167 550 OFFCURVE",
"133 550 CURVE SMOOTH",
"99 550 OFFCURVE",
"72 532 OFFCURVE",
"72 482 CURVE SMOOTH",
"72 434 OFFCURVE",
"99 414 OFFCURVE",
"133 414 CURVE SMOOTH"
);
},
{
closed = 1;
nodes = (
"167 -14 OFFCURVE",
"196 6 OFFCURVE",
"196 54 CURVE SMOOTH",
"196 103 OFFCURVE",
"167 121 OFFCURVE",
"133 121 CURVE SMOOTH",
"99 121 OFFCURVE",
"72 103 OFFCURVE",
"72 54 CURVE SMOOTH",
"72 6 OFFCURVE",
"99 -14 OFFCURVE",
"133 -14 CURVE SMOOTH"
);
}
);
width = 268;
},
{
layerId = "9C387D97-1150-45A6-AF8D-2AAB62D95D5D";
paths = (
{
closed = 1;
nodes = (
"189 385 OFFCURVE",
"228 409 OFFCURVE",
"228 468 CURVE SMOOTH",
"228 529 OFFCURVE",
"189 551 OFFCURVE",
"143 551 CURVE SMOOTH",
"95 551 OFFCURVE",
"57 529 OFFCURVE",
"57 468 CURVE SMOOTH",
"57 409 OFFCURVE",
"95 385 OFFCURVE",
"143 385 CURVE SMOOTH"
);
},
{
closed = 1;
nodes = (
"189 -13 OFFCURVE",
"228 11 OFFCURVE",
"228 70 CURVE SMOOTH",
"228 131 OFFCURVE",
"189 153 OFFCURVE",
"143 153 CURVE SMOOTH",
"95 153 OFFCURVE",
"57 131 OFFCURVE",
"57 70 CURVE",
"57 11 OFFCURVE",
"95 -13 OFFCURVE",
"143 -13 CURVE SMOOTH"
);
}
);
width = 285;
},
{
associatedMasterId = UUID0;
layerId = "7E95A2A8-5900-43B9-A104-91CF3A0C6271";
width = 600;
},
{
layerId = "6E1A9BF3-6A06-44F2-8E17-ACCB47751CD5";
paths = (
{
closed = 1;
nodes = (
"173 405 OFFCURVE",
"205 427 OFFCURVE",
"205 478 CURVE SMOOTH",
"205 531 OFFCURVE",
"173 550 OFFCURVE",
"136 550 CURVE SMOOTH",
"98 550 OFFCURVE",
"68 531 OFFCURVE",
"68 478 CURVE SMOOTH",
"68 427 OFFCURVE",
"98 405 OFFCURVE",
"136 405 CURVE SMOOTH"
);
},
{
closed = 1;
nodes = (
"173 -14 OFFCURVE",
"205 7 OFFCURVE",
"205 59 CURVE SMOOTH",
"205 111 OFFCURVE",
"173 130 OFFCURVE",
"136 130 CURVE SMOOTH",
"98 130 OFFCURVE",
"68 111 OFFCURVE",
"68 59 CURVE SMOOTH",
"68 7 OFFCURVE",
"98 -14 OFFCURVE",
"136 -14 CURVE SMOOTH"
);
}
);
width = 273.01639;
},
{
layerId = "38768EF3-7794-49DB-B097-CE6891208EBB";
paths = (
{
closed = 1;
nodes = (
"180 396 OFFCURVE",
"216 419 OFFCURVE",
"216 473 CURVE SMOOTH",
"216 530 OFFCURVE",
"180 550 OFFCURVE",
"139 550 CURVE SMOOTH",
"97 550 OFFCURVE",
"63 530 OFFCURVE",
"63 473 CURVE SMOOTH",
"63 419 OFFCURVE",
"97 396 OFFCURVE",
"139 396 CURVE SMOOTH"
);
},
{
closed = 1;
nodes = (
"180 -14 OFFCURVE",
"216 9 OFFCURVE",
"216 64 CURVE SMOOTH",
"216 120 OFFCURVE",
"180 141 OFFCURVE",
"139 141 CURVE SMOOTH",
"97 141 OFFCURVE",
"63 120 OFFCURVE",
"63 64 CURVE SMOOTH",
"63 9 OFFCURVE",
"97 -14 OFFCURVE",
"139 -14 CURVE SMOOTH"
);
}
);
width = 278.59016;
}
);
unicode = 1C7A;
},
{
glyphname = uni1C7B;
lastChange = "2019-10-15 17:35:40 +0000";
layers = (
{
layerId = UUID0;
paths = (
{
closed = 1;
nodes = (
"83 390 OFFCURVE",
"109 443 OFFCURVE",
"154 443 CURVE SMOOTH",
"191 443 OFFCURVE",
"296 397 OFFCURVE",
"344 397 CURVE SMOOTH",
"418 397 OFFCURVE",
"457 485 OFFCURVE",
"460 495 CURVE",
"421 522 LINE",
"417 514 OFFCURVE",
"393 463 OFFCURVE",
"346 463 CURVE SMOOTH",
"315 463 OFFCURVE",
"211 509 OFFCURVE",
"164 509 CURVE SMOOTH",
"83 509 OFFCURVE",
"48 422 OFFCURVE",
"40 405 CURVE",
"79 382 LINE"
);
}
);
width = 500;
},
{
layerId = "9C387D97-1150-45A6-AF8D-2AAB62D95D5D";
paths = (
{
closed = 1;
nodes = (
"164 393 OFFCURVE",
"179 409 OFFCURVE",
"206 409 CURVE SMOOTH",
"253 409 OFFCURVE",
"334 358 OFFCURVE",
"387 358 CURVE SMOOTH",
"447 358 OFFCURVE",
"498 394 OFFCURVE",
"515 472 CURVE",
"455 502 LINE",
"440 473 OFFCURVE",
"425 457 OFFCURVE",
"398 457 CURVE SMOOTH",
"351 457 OFFCURVE",
"270 508 OFFCURVE",
"217 508 CURVE SMOOTH",
"157 508 OFFCURVE",
"106 472 OFFCURVE",
"89 394 CURVE",
"149 364 LINE"
);
}
);
width = 600;
},
{
associatedMasterId = UUID0;
layerId = "7E95A2A8-5900-43B9-A104-91CF3A0C6271";
width = 600;
},
{
layerId = "6E1A9BF3-6A06-44F2-8E17-ACCB47751CD5";
paths = (
{
closed = 1;
nodes = (
"107 391 OFFCURVE",
"130 433 OFFCURVE",
"169 433 CURVE SMOOTH",
"209 433 OFFCURVE",
"307 385 OFFCURVE",
"357 385 CURVE SMOOTH",
"427 385 OFFCURVE",
"469 458 OFFCURVE",
"476 488 CURVE",
"431 516 LINE",
"424 502 OFFCURVE",
"402 461 OFFCURVE",
"361 461 CURVE SMOOTH",
"326 461 OFFCURVE",
"228 509 OFFCURVE",
"180 509 CURVE SMOOTH",
"105 509 OFFCURVE",
"65 437 OFFCURVE",
"54 402 CURVE",
"100 377 LINE"
);
}
);
width = 529.5082;
},
{
layerId = "38768EF3-7794-49DB-B097-CE6891208EBB";
paths = (
{
closed = 1;
nodes = (
"134 392 OFFCURVE",
"153 422 OFFCURVE",
"186 422 CURVE SMOOTH",
"229 422 OFFCURVE",
"320 372 OFFCURVE",
"371 372 CURVE SMOOTH",
"436 372 OFFCURVE",
"482 428 OFFCURVE",
"494 481 CURVE",
"442 509 LINE",
"431 489 OFFCURVE",
"413 459 OFFCURVE",
"378 459 CURVE SMOOTH",
"338 459 OFFCURVE",
"248 509 OFFCURVE",
"197 509 CURVE SMOOTH",
"129 509 OFFCURVE",
"84 453 OFFCURVE",
"70 398 CURVE",
"123 371 LINE"
);
}
);
width = 562.29508;
}
);
unicode = 1C7B;
},
{
glyphname = uni1C7C;
lastChange = "2020-10-21 14:47:41 +0000";
layers = (
{
layerId = UUID0;
paths = (
{
closed = 1;
nodes = (
"286 419 LINE",
"286 487 LINE",
"40 487 LINE",
"40 419 LINE"
);
}
);
width = 326;
},
{
layerId = "9C387D97-1150-45A6-AF8D-2AAB62D95D5D";
paths = (
{
closed = 1;
nodes = (
"294 375 LINE",
"294 487 LINE",
"32 487 LINE",
"32 375 LINE"
);
}
);
width = 326;
},
{
associatedMasterId = UUID0;
layerId = "7E95A2A8-5900-43B9-A104-91CF3A0C6271";
width = 600;
},
{
layerId = "6E1A9BF3-6A06-44F2-8E17-ACCB47751CD5";
paths = (
{
closed = 1;
nodes = (
"288 406 LINE",
"288 487 LINE",
"38 487 LINE",
"38 406 LINE"
);
}
);
width = 326;
},
{
layerId = "38768EF3-7794-49DB-B097-CE6891208EBB";
paths = (
{
closed = 1;
nodes = (
"291 392 LINE",
"291 487 LINE",
"35 487 LINE",
"35 392 LINE"
);
}
);
width = 326;
}
);
unicode = 1C7C;
},
{
glyphname = uni1C7D;
lastChange = "2019-10-15 17:35:40 +0000";
layers = (
{
layerId = UUID0;
paths = (
{
closed = 1;
nodes = (
"395 288 LINE",
"305 316 OFFCURVE",
"184 430 OFFCURVE",
"184 547 CURVE SMOOTH",
"184 621 OFFCURVE",
"217 650 OFFCURVE",
"254 650 CURVE SMOOTH",
"344 650 OFFCURVE",
"396 476 OFFCURVE",
"396 397 CURVE SMOOTH",
"396 177 OFFCURVE",
"241 97 OFFCURVE",
"158 72 CURVE",
"194 41 LINE",
"116 278 LINE",
"41 253 LINE",
"132 -10 LINE",
"211 -4 OFFCURVE",
"484 84 OFFCURVE",
"484 393 CURVE SMOOTH",
"484 601 OFFCURVE",
"371 725 OFFCURVE",
"255 725 CURVE SMOOTH",
"184 725 OFFCURVE",
"96 685 OFFCURVE",
"96 551 CURVE SMOOTH",
"96 390 OFFCURVE",
"259 264 OFFCURVE",
"365 224 CURVE"
);
}
);
width = 533;
},
{
layerId = "9C387D97-1150-45A6-AF8D-2AAB62D95D5D";
paths = (
{
closed = 1;
nodes = (
"419 356 LINE",
"311 407 OFFCURVE",
"257 470 OFFCURVE",
"257 540 CURVE SMOOTH",
"257 576 OFFCURVE",
"277 602 OFFCURVE",
"310 602 CURVE SMOOTH",
"353 602 OFFCURVE",
"403 543 OFFCURVE",
"403 431 CURVE SMOOTH",
"403 264 OFFCURVE",
"306 169 OFFCURVE",
"197 145 CURVE",
"237 121 LINE",
"158 327 LINE",
"32 281 LINE",
"147 -17 LINE",
"359 8 OFFCURVE",
"552 166 OFFCURVE",
"552 431 CURVE SMOOTH",
"552 584 OFFCURVE",
"464 728 OFFCURVE",
"309 728 CURVE SMOOTH",
"185 728 OFFCURVE",
"108 645 OFFCURVE",
"108 540 CURVE SMOOTH",
"108 432 OFFCURVE",
"198 324 OFFCURVE",
"359 243 CURVE"
);
}
);
width = 588;
},
{
associatedMasterId = UUID0;
layerId = "ED1D3084-410A-4D0A-8331-0FD3E4A8FE75";
name = "Oct 8 19, 16:19";
paths = (
{
closed = 1;
nodes = (
"210 -4 OFFCURVE",
"483 84 OFFCURVE",
"483 393 CURVE SMOOTH",
"483 601 OFFCURVE",
"370 725 OFFCURVE",
"254 725 CURVE SMOOTH",
"183 725 OFFCURVE",
"95 685 OFFCURVE",
"95 551 CURVE SMOOTH",
"95 370 OFFCURVE",
"300 243 OFFCURVE",
"360 227 CURVE",
"336 175 OFFCURVE",
"233 85 OFFCURVE",
"157 73 CURVE",
"193 41 LINE",
"115 278 LINE",
"40 253 LINE",
"131 -10 LINE"
);
},
{
closed = 1;
nodes = (
"313 315 OFFCURVE",
"183 425 OFFCURVE",
"183 547 CURVE SMOOTH",
"183 621 OFFCURVE",
"216 650 OFFCURVE",
"253 650 CURVE SMOOTH",
"343 650 OFFCURVE",
"395 476 OFFCURVE",
"395 397 CURVE SMOOTH",
"395 344 OFFCURVE",
"389 309 OFFCURVE",
"384 291 CURVE"
);
}
);
visible = 1;
width = 532;
},
{
associatedMasterId = UUID0;
layerId = "7E95A2A8-5900-43B9-A104-91CF3A0C6271";
width = 600;
},
{
layerId = "6E1A9BF3-6A06-44F2-8E17-ACCB47751CD5";
paths = (
{
closed = 1;
nodes = (
"402 308 LINE",
"307 343 OFFCURVE",
"206 442 OFFCURVE",
"206 545 CURVE SMOOTH",
"206 608 OFFCURVE",
"235 636 OFFCURVE",
"271 636 CURVE SMOOTH",
"347 636 OFFCURVE",
"398 496 OFFCURVE",
"398 407 CURVE SMOOTH",
"398 203 OFFCURVE",
"260 118 OFFCURVE",
"170 94 CURVE",
"207 65 LINE",
"128 292 LINE",
"38 261 LINE",
"136 -12 LINE",
"255 0 OFFCURVE",
"504 108 OFFCURVE",
"504 404 CURVE SMOOTH",
"504 596 OFFCURVE",
"398 726 OFFCURVE",
"271 726 CURVE SMOOTH",
"184 726 OFFCURVE",
"100 673 OFFCURVE",
"100 548 CURVE SMOOTH",
"100 402 OFFCURVE",
"241 282 OFFCURVE",
"363 230 CURVE"
);
}
);
width = 549.22951;
},
{
layerId = "38768EF3-7794-49DB-B097-CE6891208EBB";
paths = (
{
closed = 1;
nodes = (
"410 330 LINE",
"309 373 OFFCURVE",
"230 455 OFFCURVE",
"230 543 CURVE SMOOTH",
"230 593 OFFCURVE",
"255 620 OFFCURVE",
"289 620 CURVE SMOOTH",
"350 620 OFFCURVE",
"400 518 OFFCURVE",
"400 418 CURVE SMOOTH",
"400 231 OFFCURVE",
"281 142 OFFCURVE",
"183 118 CURVE",
"221 91 LINE",
"142 308 LINE",
"35 270 LINE",
"141 -14 LINE",
"303 4 OFFCURVE",
"526 135 OFFCURVE",
"526 417 CURVE SMOOTH",
"526 590 OFFCURVE",
"429 727 OFFCURVE",
"289 727 CURVE SMOOTH",
"184 727 OFFCURVE",
"104 660 OFFCURVE",
"104 544 CURVE SMOOTH",
"104 416 OFFCURVE",
"221 302 OFFCURVE",
"361 236 CURVE"
);
}
);
width = 567.26229;
}
);
unicode = 1C7D;
},
{
glyphname = uni1C7E;
lastChange = "2019-10-15 17:35:40 +0000";
layers = (
{
layerId = UUID0;
paths = (
{
closed = 1;
nodes = (
"168 83 LINE",
"168 510 LINE",
"100 510 LINE",
"100 83 LINE"
);
}
);
width = 268;
},
{
layerId = "9C387D97-1150-45A6-AF8D-2AAB62D95D5D";
paths = (
{
closed = 1;
nodes = (
"219 83 LINE",
"219 510 LINE",
"100 510 LINE",
"100 83 LINE"
);
}
);
width = 319;
},
{
associatedMasterId = UUID0;
layerId = "7E95A2A8-5900-43B9-A104-91CF3A0C6271";
width = 600;
},
{
layerId = "6E1A9BF3-6A06-44F2-8E17-ACCB47751CD5";
paths = (
{
closed = 1;
nodes = (
"183 83 LINE",
"183 510 LINE",
"100 510 LINE",
"100 83 LINE"
);
}
);
width = 283.04918;
},
{
layerId = "38768EF3-7794-49DB-B097-CE6891208EBB";
paths = (
{
closed = 1;
nodes = (
"200 83 LINE",
"200 510 LINE",
"100 510 LINE",
"100 83 LINE"
);
}
);
width = 299.77049;
}
);
unicode = 1C7E;
},
{
glyphname = uni1C7F;
lastChange = "2019-10-15 17:35:40 +0000";
layers = (
{
layerId = UUID0;
paths = (
{
closed = 1;
nodes = (
"168 83 LINE",
"168 510 LINE",
"100 510 LINE",
"100 83 LINE"
);
},
{
closed = 1;
nodes = (
"401 83 LINE",
"401 510 LINE",
"333 510 LINE",
"333 83 LINE"
);
}
);
width = 501;
},
{
layerId = "9C387D97-1150-45A6-AF8D-2AAB62D95D5D";
paths = (
{
closed = 1;
nodes = (
"219 83 LINE",
"219 510 LINE",
"100 510 LINE",
"100 83 LINE"
);
},
{
closed = 1;
nodes = (
"449 83 LINE",
"449 510 LINE",
"330 510 LINE",
"330 83 LINE"
);
}
);
width = 549;
},
{
associatedMasterId = UUID0;
layerId = "7E95A2A8-5900-43B9-A104-91CF3A0C6271";
width = 600;
},
{
layerId = "6E1A9BF3-6A06-44F2-8E17-ACCB47751CD5";
paths = (
{
closed = 1;
nodes = (
"183 83 LINE",
"183 510 LINE",
"100 510 LINE",
"100 83 LINE"
);
},
{
closed = 1;
nodes = (
"415 83 LINE",
"415 510 LINE",
"332 510 LINE",
"332 83 LINE"
);
}
);
width = 515.16393;
},
{
layerId = "38768EF3-7794-49DB-B097-CE6891208EBB";
paths = (
{
closed = 1;
nodes = (
"200 83 LINE",
"200 510 LINE",
"100 510 LINE",
"100 83 LINE"
);
},
{
closed = 1;
nodes = (
"431 83 LINE",
"431 510 LINE",
"331 510 LINE",
"331 83 LINE"
);
}
);
width = 530.90164;
}
);
unicode = 1C7F;
},
